<?xml version="1.0" encoding="UTF-8" standalone="no"?>
<!-- Created with Inkscape (http://www.inkscape.org/) -->

<svg
   width="44.640728mm"
   height="93.786819mm"
   viewBox="0 0 44.640728 93.786819"
   version="1.1"
   id="svg1"
   inkscape:version="1.3.2 (091e20ef0f, 2023-11-25)"
   sodipodi:docname="packed-bed.svg"
   xmlns:inkscape="http://www.inkscape.org/namespaces/inkscape"
   xmlns:sodipodi="http://sodipodi.sourceforge.net/DTD/sodipodi-0.dtd"
   xmlns="http://www.w3.org/2000/svg"
   xmlns:svg="http://www.w3.org/2000/svg">
  <sodipodi:namedview
     id="namedview1"
     pagecolor="#ffffff"
     bordercolor="#000000"
     borderopacity="0.25"
     inkscape:showpageshadow="2"
     inkscape:pageopacity="0.0"
     inkscape:pagecheckerboard="0"
     inkscape:deskcolor="#d1d1d1"
     inkscape:document-units="mm"
     inkscape:zoom="2.0863777"
     inkscape:cx="-36.66642"
     inkscape:cy="212.09008"
     inkscape:window-width="2560"
     inkscape:window-height="1371"
     inkscape:window-x="0"
     inkscape:window-y="32"
     inkscape:window-maximized="1"
     inkscape:current-layer="layer1" />
  <defs
     id="defs1" />
  <g
     inkscape:label="Layer 1"
     inkscape:groupmode="layer"
     id="layer1"
     transform="translate(-64.238901,-71.230084)">
    <path
       style="fill:#000000;stroke-width:0.7"
       id="path3"
       d="m 80.977818,72.768115 c -0.02281,0.884275 -0.03642,1.768687 -0.04373,2.653213 -0.02482,1.425749 -2.65e-4,2.851316 0.04583,4.27632 0.0446,1.517099 0.158025,3.030773 0.272552,4.543822 0.08778,1.084995 0.142944,2.172255 0.220782,3.257904 0.03291,0.420751 0.06528,0.842669 0.132802,1.259615 0.01011,0.03928 0.0118,0.16237 0.07791,0.148312 0.076,0.108691 0.0602,0.247415 0.01619,0.365152 0,0 0.01746,0.0098 0.01746,0.0098 v 0 c 0.0639,-0.145825 0.161359,-0.198236 0.314037,-0.151268 0.07901,-0.02976 0.0454,-0.0785 0.02674,-0.151992 -0.08952,-0.416602 -0.121626,-0.842836 -0.159396,-1.266494 -0.07908,-1.08906 -0.142396,-2.179323 -0.23858,-3.267104 -0.121602,-1.51633 -0.242104,-3.033358 -0.297058,-4.553887 -0.04598,-1.42507 -0.06578,-2.85047 -0.04963,-4.276302 0.0074,-0.887431 0.01167,-1.774909 0.02477,-2.662279 z" />
    <path
       style="fill:#000000;stroke-width:0.7"
       id="path4"
       d="m 78.171909,85.877507 c 0.483868,0.685933 0.909752,1.40879 1.397781,2.091984 0.515138,0.711732 1.081244,1.232151 1.93975,1.51076 0.591585,0.1304 1.108044,-0.154477 1.597541,-0.453194 0.702657,-0.483338 1.263407,-1.139322 1.804615,-1.790824 0.445635,-0.575675 0.869018,-1.174152 1.162486,-1.842836 0.04617,-0.142045 0.175609,-0.593924 -0.0021,-0.709997 -0.156705,-0.102335 -0.326266,-0.183477 -0.489398,-0.275216 -0.130283,0.157665 -0.122711,0.297441 -0.12656,0.497144 0,0 0.01728,0.01005 0.01728,0.01005 v 0 c 0.155477,-0.08168 0.31323,-0.204491 0.494244,-0.205939 -0.120761,-0.07593 -0.237151,-0.159318 -0.362286,-0.227808 -0.02019,-0.01106 0.03405,0.03257 0.04373,0.05345 0.01455,0.0314 0.02225,0.06592 0.02748,0.10014 0.02596,0.169696 -0.01947,0.3337 -0.07435,0.492895 -0.284289,0.667581 -0.69306,1.26897 -1.14082,1.837883 -0.537011,0.648335 -1.096348,1.295781 -1.794203,1.776968 -0.475422,0.291576 -0.97509,0.570717 -1.549969,0.432446 -0.08221,-0.02827 -0.162343,-0.106098 -0.246634,-0.08481 -0.06137,0.01551 0.207791,0.144674 0.156502,0.107572 -0.08713,-0.06303 -0.181084,-0.116944 -0.264047,-0.185367 -0.298593,-0.246261 -0.534651,-0.561018 -0.773803,-0.861502 -0.490037,-0.680858 -0.920805,-1.399284 -1.39456,-2.091211 z" />
    <path
       style="fill:#000000;stroke-width:0.7"
       id="path5"
       d="m 84.146489,90.271953 c -0.704537,-0.273005 -1.4522,-0.335049 -2.199121,-0.37212 -1.199899,-0.03114 -2.400469,-0.01503 -3.600659,-0.01619 -1.051094,0.0077 -2.10516,0.01215 -3.152775,0.110493 -0.63682,0.05978 -0.963853,0.121039 -1.592551,0.219832 -1.449181,0.256918 -2.830213,0.757224 -4.167843,1.358058 -0.83657,0.364242 -1.591773,0.862693 -2.310321,1.418606 -0.549132,0.427405 -1.056679,0.903105 -1.459325,1.472121 -0.267192,0.550169 -0.10623,0.847137 0.290253,1.25789 0.757084,0.653399 1.665785,1.087032 2.584572,1.461719 1.393346,0.541766 2.863249,0.832798 4.322908,1.130679 1.812009,0.383296 3.642468,0.65247 5.484728,0.834429 1.95712,0.171024 3.922905,0.112215 5.883026,0.04045 1.702514,-0.07446 3.405087,-0.1499 5.10608,-0.254037 1.388567,-0.0956 2.771222,-0.25894 4.140673,-0.50691 0.943938,-0.174411 1.872893,-0.416452 2.796535,-0.675455 0.498562,-0.12991 0.988981,-0.279114 1.437116,-0.53657 0.295577,-0.186864 0.542451,-0.4378 0.758317,-0.710567 0.179282,-0.229815 0.261313,-0.485886 0.297344,-0.770229 0.03986,-0.382812 -0.04331,-0.748784 -0.171064,-1.106641 -0.164258,-0.451736 -0.445566,-0.826868 -0.7708,-1.173395 -0.409871,-0.424656 -0.900914,-0.750477 -1.397346,-1.063122 -0.746387,-0.460328 -1.506339,-0.898586 -2.285545,-1.30098 -0.772869,-0.390711 -1.588127,-0.67509 -2.429685,-0.872086 -1.103614,-0.239 -2.231673,-0.297277 -3.35653,-0.334406 -1.225958,-0.03529 -2.452003,0.01236 -3.677431,0.04484 -1.187429,0.0021 -2.365653,0.125667 -3.531761,0.342339 -0.821561,0.172149 -0.399172,0.08465 -1.267238,0.262155 0,0 0.0164,0.01143 0.0164,0.01143 v 0 c 0.883947,-0.180684 0.442746,-0.107067 1.323353,-0.222351 1.254406,-0.110617 2.511081,-0.165293 3.770519,-0.168545 1.231919,-0.0265 2.464448,-0.06269 3.696597,-0.02792 1.131779,0.04584 2.267006,0.116121 3.376523,0.359892 0.842668,0.206751 1.661617,0.490736 2.43456,0.889701 0.605521,0.314381 0.871861,0.456594 1.506837,0.851599 0.495535,0.310385 0.987827,0.630777 1.399053,1.051483 0.32753,0.341572 0.615791,0.708999 0.782955,1.158129 0.126339,0.352224 0.217064,0.713592 0.18624,1.09135 -0.02723,0.277816 -0.105322,0.528897 -0.278114,0.753716 -0.20234,0.27527 -0.445677,0.521153 -0.735729,0.704535 -0.440931,0.252651 -0.923399,0.406665 -1.411881,0.541372 -0.920556,0.262856 -1.848948,0.498285 -2.790316,0.675106 -1.365862,0.246314 -2.74383,0.41846 -4.129143,0.509558 -1.697996,0.107463 -3.397589,0.185021 -5.097328,0.259183 -1.954943,0.07497 -3.915167,0.129202 -5.867553,-0.03519 -1.834449,-0.176866 -3.656907,-0.442767 -5.461421,-0.821402 -1.458193,-0.297257 -2.924847,-0.594196 -4.31704,-1.133859 -0.731083,-0.298939 -1.455269,-0.603578 -2.047581,-1.143386 -0.39193,-0.391475 -0.567825,-0.686766 -0.328543,-1.231619 0.395959,-0.570889 0.915704,-1.033376 1.458325,-1.462778 0.713568,-0.555472 1.467966,-1.050701 2.297448,-1.419048 1.336186,-0.604552 2.719229,-1.106697 4.172336,-1.345777 1.582103,-0.235122 3.176202,-0.335166 4.776335,-0.302389 1.202876,0.0024 2.406222,-0.009 3.608713,0.02416 0.752967,0.04171 1.506244,0.11012 2.212695,0.396647 z" />
    <path
       style="fill:#000000;stroke-width:0.7"
       id="path8"
       d="m 65.640883,95.280161 c -0.315989,0.321406 -0.591373,0.692547 -0.764672,1.111721 -0.140962,0.340961 -0.188032,0.584997 -0.279331,0.945301 -0.278813,1.297644 -0.314923,2.627863 -0.348549,3.949517 -0.05134,1.71322 0.114615,3.42009 0.311692,5.11933 0.262559,1.98427 0.561629,3.96377 0.875655,5.94051 0.223641,1.45116 0.461097,2.90086 0.616053,4.36153 0.104656,0.98652 0.114768,1.28275 0.180514,2.26923 0.106347,2.33456 0.07693,4.6722 0.117317,7.00827 0.04179,1.98553 0.08825,3.97097 0.133455,5.95643 0.03268,1.59261 0.07266,3.185 0.119828,4.77724 0.02236,0.97842 0.07968,1.95538 0.220234,2.92423 0.06577,0.2903 0.09228,0.59811 0.215775,0.8724 0.0043,0.0397 0.18016,0.14831 0.130612,0.10338 0,0 -0.0186,-0.007 -0.0186,-0.007 v 0 c 0.04661,0.0333 0.231028,0.18376 0.273798,0.0855 -0.05116,-0.28465 -0.152019,-0.55972 -0.183573,-0.84863 -0.149765,-0.96769 -0.204584,-1.94496 -0.230418,-2.92327 -0.05392,-1.59426 -0.09193,-3.18896 -0.13304,-4.78359 -0.05384,-1.9907 -0.121383,-3.98102 -0.164878,-5.97198 -0.03916,-2.33866 -0.03296,-4.67848 -0.127775,-7.01583 -0.155178,-2.23388 -0.425654,-4.45439 -0.840245,-6.65603 -0.30742,-1.97627 -0.612228,-3.95326 -0.870831,-5.93662 -0.201637,-1.69716 -0.363265,-3.40219 -0.311873,-5.11382 0.03354,-1.31873 0.06972,-2.647657 0.344591,-3.942732 0.08933,-0.35234 0.138539,-0.604149 0.276966,-0.937739 0.172347,-0.415321 0.447278,-0.782381 0.76622,-1.095372 z" />
    <path
       style="fill:#000000;stroke-width:0.7"
       id="path9"
       d="m 98.226207,94.99625 c -0.204476,0.935519 -0.368851,1.878677 -0.521155,2.823853 -0.244018,1.435404 -0.372378,2.884327 -0.454562,4.336767 -0.0859,1.63388 0.01913,3.26937 0.139168,4.89858 0.156916,1.78155 0.256773,3.56679 0.325104,5.3537 0.04482,1.64778 0.09994,3.29497 0.193524,4.94076 0.114295,1.58122 0.174681,3.16484 0.188616,4.74991 0.009,1.61655 -0.08429,3.23074 -0.180499,4.84365 -0.09553,1.48301 -0.17527,2.96695 -0.256701,4.45078 -0.06318,1.13565 -0.111599,2.27207 -0.157512,3.40854 -0.03152,0.89119 -0.06964,1.78217 -0.08975,2.67371 -0.01225,0.58631 -0.02389,1.17253 -0.01238,1.7589 0.01336,0.19466 -0.01222,0.39193 0.01524,0.58553 -0.02257,0.18944 -0.0016,0.26369 -0.151443,0.40652 0,0 0.01704,0.0105 0.01704,0.0105 v 0 c 0.186463,-0.17776 0.236641,-0.10464 0.433216,-0.1911 0.01752,-0.008 0.02869,-0.0253 0.04303,-0.0379 0.109733,-0.12117 0.0029,-0.42127 0.03511,-0.57406 0.0024,-0.58575 -0.0019,-1.17156 0.0127,-1.75719 0.02138,-0.89178 0.0513,-1.78331 0.08651,-2.67464 0.0407,-1.1381 0.08603,-2.27601 0.147045,-3.41322 0.07552,-1.48593 0.156022,-2.9716 0.244409,-4.45682 0.0956,-1.61508 0.188859,-3.23128 0.174035,-4.85008 -0.01323,-1.58833 -0.08179,-3.17542 -0.202787,-4.75933 -0.103281,-1.64938 -0.163558,-3.30031 -0.217308,-4.95196 -0.07917,-1.79091 -0.188092,-3.57959 -0.346051,-5.36547 -0.118835,-1.63003 -0.232458,-3.26546 -0.152286,-4.90046 0.08055,-1.45211 0.207473,-2.901119 0.447495,-4.336703 0.152445,-0.944406 0.319328,-1.886312 0.522393,-2.821337 z" />
    <path
       style="fill:#000000;stroke-width:0.7"
       id="path10"
       d="m 89.534631,136.49689 c -0.454649,-0.45994 -0.950926,-0.73977 -1.515449,-1.04687 -0.509944,-0.22295 -1.061381,-0.32124 -1.605041,-0.42402 -0.730168,-0.13417 -1.466824,-0.22587 -2.204554,-0.30604 -0.748427,-0.0854 -1.501111,-0.11071 -2.253784,-0.10218 -0.716158,0.014 -1.428385,0.0994 -2.135034,0.21166 -0.645036,0.11672 -1.277816,0.28941 -1.895192,0.50835 -0.559213,0.21348 -1.11212,0.44289 -1.669404,0.66137 -0.482174,0.1836 -0.963983,0.36766 -1.439643,0.56766 -0.430004,0.18851 -0.848818,0.40109 -1.271895,0.60437 -0.41975,0.20049 -0.83703,0.40499 -1.245547,0.62756 -0.432347,0.24997 -0.874035,0.48155 -1.332415,0.67982 -0.43684,0.17113 -0.870342,0.34812 -1.285147,0.56794 -0.276749,0.1465 -0.519997,0.34367 -0.764532,0.53688 -0.15117,0.12429 -0.303824,0.24669 -0.45271,0.37373 -0.147543,0.1276 -0.295926,0.25527 -0.431126,0.39606 -0.127717,0.12437 -0.212738,0.25951 -0.258894,0.43052 -0.06177,0.24878 -0.0034,0.49856 0.06633,0.73874 0.115805,0.37023 0.3405,0.68823 0.593264,0.97699 0.516065,0.47667 1.160484,0.78862 1.816664,1.02365 0.896101,0.29185 1.824675,0.4663 2.751531,0.62713 1.079733,0.17992 2.169332,0.2903 3.255471,0.42316 0.882864,0.12017 1.765313,0.23731 2.65372,0.3075 0.919941,0.0724 1.842003,0.073 2.763682,0.0492 1.025731,-0.0364 2.050896,-0.0858 3.076688,-0.12079 1.005454,-0.0313 2.011318,-0.046 3.0172,-0.0534 0.865518,0.002 1.730055,-0.0128 2.594436,-0.056 0.664924,-0.0387 1.329182,-0.087 1.994791,-0.11276 0.4968,-0.0147 0.994026,-0.003 1.490284,-0.0326 0.389628,-0.0243 0.77197,-0.0959 1.147498,-0.19979 0.31595,-0.0835 0.615114,-0.21295 0.912453,-0.34612 0.316293,-0.14596 0.643281,-0.26613 0.979762,-0.35565 0.322673,-0.0694 0.644491,-0.12814 0.947987,-0.26086 0.259458,-0.12732 0.464034,-0.32123 0.6288,-0.55527 0.117256,-0.17402 0.130265,-0.36812 0.12427,-0.57085 -0.02482,-0.28884 -0.03023,-0.57818 -0.02527,-0.86787 0.0131,-0.36738 0.01894,-0.73288 -0.04365,-1.09597 -0.04048,-0.2335 -0.143619,-0.4338 -0.295426,-0.61237 -0.179956,-0.18169 -0.359201,-0.36407 -0.537773,-0.54713 -0.238782,-0.25229 -0.499576,-0.48021 -0.775997,-0.68997 -0.412292,-0.29438 -0.860398,-0.53327 -1.332135,-0.71593 -0.349636,-0.12179 -0.696603,-0.24999 -1.039047,-0.39077 -0.431541,-0.18562 -0.86536,-0.36392 -1.308587,-0.51969 -0.517242,-0.18639 -1.057733,-0.28267 -1.598184,-0.3717 -0.716635,-0.0958 -1.414116,-0.28759 -2.110097,-0.47757 -0.949076,-0.28685 -1.90803,-0.5211 -2.889263,-0.6641 -0.75724,-2e-5 -0.269394,-0.0434 -0.99436,0.12692 -0.966028,0.22693 -0.178996,-0.003 -1.08993,0.28481 0,0 0.01654,0.0113 0.01654,0.0113 v 0 c 0.314293,-0.0993 0.759224,-0.25857 1.089683,-0.28446 0.344131,-0.027 0.920221,0.0459 1.271675,0.0819 1.012598,0.17148 2.000554,0.43986 2.982106,0.74068 0.701127,0.19559 1.405405,0.38797 2.128319,0.48486 0.539932,0.0901 1.07814,0.19391 1.594752,0.38024 0.440983,0.15586 0.87164,0.33663 1.302631,0.51805 0.341513,0.13716 0.687038,0.26312 1.033939,0.38595 0.121226,0.048 0.179665,0.0694 0.299206,0.12406 0.0523,0.0239 0.200853,0.10999 0.155454,0.0747 -0.08189,-0.0636 -0.177308,-0.10758 -0.266285,-0.16083 -0.100153,-0.0599 0.409982,0.2453 0.294711,0.18909 0.279104,0.20747 0.544293,0.43189 0.783567,0.68499 0.18003,0.18342 0.360886,0.36594 0.543575,0.54671 0.155552,0.17139 0.273704,0.36348 0.318231,0.59442 0.06931,0.36139 0.07451,0.7255 0.05677,1.09255 -0.0019,0.29018 -0.0021,0.58056 0.02426,0.86986 0.0086,0.19281 0.004,0.38083 -0.103428,0.54941 -0.151037,0.23273 -0.339908,0.42799 -0.594902,0.5473 -0.298773,0.13134 -0.616059,0.18973 -0.932744,0.26346 -0.33863,0.0912 -0.666033,0.21494 -0.985615,0.35943 -0.2964,0.12906 -0.595445,0.25467 -0.907233,0.34225 -0.372049,0.10153 -0.750456,0.17483 -1.13639,0.19708 -0.493792,0.0285 -0.988513,0.0182 -1.482699,0.0372 -0.66276,0.0285 -1.324017,0.0798 -1.986161,0.11942 -0.862536,0.043 -1.725596,0.0584 -2.589223,0.0578 -1.005181,0.01 -2.010452,0.0205 -3.015123,0.0561 -1.026392,0.0361 -2.052349,0.0826 -3.078726,0.11885 -0.919757,0.0213 -1.84038,0.0202 -2.758373,-0.0502 -0.886122,-0.0724 -1.766724,-0.18854 -2.647961,-0.3051 -1.086472,-0.12974 -2.175407,-0.24478 -3.255026,-0.42528 -0.927483,-0.16364 -1.857417,-0.33902 -2.752966,-0.63649 -0.562467,-0.20643 -0.696478,-0.2269 -1.17888,-0.64781 -0.261908,-0.28388 -0.49554,-0.59613 -0.614685,-0.96881 -0.06751,-0.23389 -0.130072,-0.47575 -0.0704,-0.71857 0.04897,-0.16284 0.138612,-0.29245 0.271385,-0.4005 0.147633,-0.12866 0.294323,-0.25837 0.442246,-0.3867 0.148545,-0.12721 0.299826,-0.25114 0.454409,-0.37097 0.240212,-0.19188 0.478896,-0.38844 0.748495,-0.53859 0.417074,-0.22147 0.859542,-0.38146 1.297528,-0.55602 0.458951,-0.19862 0.8984,-0.43327 1.329923,-0.68591 0.407995,-0.2248 0.825476,-0.43062 1.250158,-0.62213 0.42013,-0.20508 0.836401,-0.41875 1.264613,-0.60668 0.475742,-0.20057 0.959128,-0.3818 1.441789,-0.56493 0.557641,-0.21581 1.107842,-0.45006 1.667288,-0.66118 0.618194,-0.21571 1.249992,-0.38949 1.896316,-0.49886 0.705554,-0.11488 1.416865,-0.19607 2.132478,-0.20603 0.752785,-0.006 1.505223,0.021 2.253578,0.10801 0.736603,0.0805 1.471869,0.17466 2.201114,0.30749 0.541221,0.10279 1.090319,0.20351 1.595821,0.43089 -0.04277,-0.0303 -0.176866,-0.11044 -0.128304,-0.0908 0.37371,0.15133 0.649131,0.49963 0.963451,0.73635 z" />
    <path
       style="fill:#000000;stroke-width:0.7"
       id="path11"
       d="m 81.916618,147.03333 c 0.04036,0.86366 0.04523,1.72863 0.05491,2.59305 0.0073,1.38044 0.04121,2.76041 0.08675,4.14005 0.05098,1.27778 0.100745,2.55561 0.149847,3.83347 0.03222,1.11531 0.04839,2.23059 0.108156,3.34489 0.04473,0.75787 0.113141,1.51479 0.250397,2.26186 0.01863,0.0463 0.07129,0.4624 0.128693,0.48106 0.04189,0.0136 0.08715,0.0129 0.130717,0.0194 -0.01066,-0.0208 -0.02135,-0.0416 -0.03202,-0.0624 0,0 -0.0182,-0.008 -0.0182,-0.008 v 0 c 0.009,0.0201 0.01805,0.0401 0.02707,0.0602 0.06335,0.0457 0.122941,0.0971 0.190039,0.13705 0.02162,0.0129 0.01117,-0.0657 -0.0053,-0.14681 -0.03141,-0.155 -0.02556,-0.1276 -0.05868,-0.30359 -0.12868,-0.74766 -0.210611,-1.5021 -0.256379,-2.25941 -0.06298,-1.11892 -0.08025,-2.23926 -0.136162,-3.35852 -0.06364,-1.28242 -0.1314,-2.56465 -0.178883,-3.84781 -0.05414,-1.38067 -0.09525,-2.76178 -0.09584,-4.14368 -0.0079,-0.86276 -0.01431,-1.72558 -0.04241,-2.58798 z" />
    <path
       style="fill:#000000;stroke-width:0.7"
       id="path12"
       d="m 80.166069,160.73128 c 0.214254,0.937 0.536202,1.83787 0.952793,2.70256 0.272122,0.49385 0.639901,0.93157 1.141558,1.20304 0.649386,0.35141 0.448006,0.28796 0.917824,0.37954 0.524846,0.0129 0.965076,-0.23507 1.362459,-0.55218 0.487042,-0.40193 0.774676,-0.95199 1.058836,-1.5026 0.505103,-1.05402 1.055571,-2.08442 1.612921,-3.11139 0.19622,-0.37117 0.433329,-0.71461 0.528473,-1.12833 0.0088,-0.0384 0.06679,-0.27651 0.0035,-0.33588 0,0 -0.01855,-0.007 -0.01855,-0.007 v 0 c 0.0421,0.0307 0.01429,0.003 -0.0583,0.074 -0.04844,0.0474 -0.09566,0.0961 -0.140902,0.14656 -0.280307,0.31252 -0.474458,0.67604 -0.683744,1.03851 -0.581702,1.01387 -1.127408,2.04661 -1.641152,3.09662 -0.285813,0.54117 -0.576937,1.08267 -1.052134,1.48448 -0.386194,0.31219 -0.813308,0.55453 -1.327364,0.52782 -0.08467,-0.0185 -0.171503,-0.0822 -0.254,-0.0556 -0.04634,0.0149 0.147343,0.12209 0.101875,0.10467 -0.48373,-0.18524 -0.920613,-0.76487 -1.172337,-1.18974 -0.421204,-0.86092 -0.738444,-1.75951 -0.954828,-2.69424 z" />
    <path
       style="fill:#000000;stroke-width:0.7"
       id="path13"
       d="m 86.450042,79.301144 c 0.08637,0.477165 0.172945,0.954301 0.273965,1.428633 0.07982,0.387792 -0.01238,0.270688 0.487778,0.430017 0.161219,-0.296651 0.289079,-0.609978 0.430313,-0.916339 0.128577,-0.210797 0.184193,-0.467662 0.32625,-0.669761 -0.01103,-0.08751 0.125079,0.02045 0.109437,0.01344 -0.105315,-0.04707 -0.197887,-0.122092 -0.30679,-0.160128 -0.028,-0.0098 0.03677,0.04665 0.053,0.07148 0.01979,0.03026 0.0366,0.06236 0.0549,0.09354 0.121296,0.233889 0.199745,0.486243 0.282787,0.735351 0.104386,0.336984 0.08811,0.23831 0.564372,0.370972 0.287726,-0.266456 0.480764,-0.611475 0.695034,-0.935122 0.138395,-0.165026 0.222554,-0.418303 0.415769,-0.532315 0.130445,-0.01294 0.512011,0.160957 -0.142005,-0.133445 -0.02606,-0.01172 0.04228,0.03854 0.06168,0.05951 0.02753,0.02975 0.05264,0.06166 0.07896,0.09249 0.222766,0.294341 0.378465,0.630621 0.529436,0.965372 0.111742,0.237194 0.191561,0.489593 0.319733,0.718839 0.18981,0.158242 0.185632,0.07025 0.162245,0.208624 0,0 0.01754,0.0096 0.01754,0.0096 v 0 c 0.04762,-0.110554 0.004,-0.05992 0.196258,-0.04074 0.0013,-0.243305 -0.18246,-0.46564 -0.248756,-0.692012 -0.155726,-0.341363 -0.3087,-0.689319 -0.542576,-0.986039 -0.175575,-0.20393 -0.466304,-0.515474 -0.749686,-0.404947 -0.183775,0.139634 -0.282268,0.368974 -0.43678,0.536363 -0.22125,0.312428 -0.435552,0.640149 -0.718172,0.900687 0.409366,0.384818 0.24288,0.301069 0.16986,0.03719 -0.08438,-0.248163 -0.160972,-0.500536 -0.271282,-0.73863 -0.105424,-0.196648 -0.419688,-0.613526 -0.615572,-0.378452 -0.139028,0.208357 -0.268076,0.421995 -0.371044,0.651145 -0.146531,0.30176 -0.291909,0.604163 -0.443531,0.903388 0.482097,0.376328 0.330861,0.313235 0.246184,-0.03882 -0.111495,-0.468937 -0.186883,-0.945467 -0.263451,-1.42109 z" />
    <path
       id="path14"
       style="fill:#000000;stroke-width:0.7"
       d="m 87.689011,76.921388 c -0.03549,0.025 -0.04934,0.05672 0,0 z m -0.158646,0.01964 c -0.01694,-4.81e-4 -0.01465,0.0048 0.01654,0.01964 0.0013,-0.0063 0.0023,-0.01201 0.0036,-0.01809 -0.0079,-10e-4 -0.01504,-0.0014 -0.02015,-0.0015 z m 1.086755,0.243396 c -0.04175,0.02244 -0.08408,0.0427 -0.127641,0.06046 0.04515,-0.016 0.08892,-0.03492 0.131775,-0.05633 -0.0014,-0.0014 -0.0028,-0.0027 -0.0041,-0.0041 z m -0.42323,0.08423 c -0.0396,0.0028 -0.07717,0.0048 -0.112138,0.0062 -0.0046,0.0048 -0.0089,0.0089 -0.01344,0.01344 0.04879,0.0091 0.09946,0.01525 0.151412,0.01757 0.0017,-1.74e-4 0.0034,-3.36e-4 0.0052,-5.17e-4 -0.01011,-0.01237 -0.02045,-0.02465 -0.03101,-0.03669 z" />
    <path
       style="fill:#000000;stroke-width:0.7"
       id="path15"
       d="m 93.825408,75.755415 c -0.306718,0.546272 -0.598167,1.100233 -0.854416,1.671989 -0.247838,0.537488 -0.405268,1.105522 -0.525643,1.682962 -0.11644,0.547849 -0.134154,1.105294 -0.09351,1.661893 0.05925,0.466373 0.195776,0.915789 0.383394,1.345319 0.145863,0.293558 0.307362,0.623379 0.580472,0.823444 0.06518,0.04774 0.139637,0.08132 0.209452,0.121978 0.229751,0.098 0.123868,0.06823 0.312436,0.106122 0,0 -0.01595,-0.01207 -0.01595,-0.01207 v 0 c -0.141692,-0.02889 -0.08212,-0.0094 -0.181584,-0.04896 -0.211968,-0.241298 -0.377621,-0.5025 -0.497678,-0.803516 -0.18107,-0.425598 -0.328845,-0.867169 -0.383254,-1.328722 -0.045,-0.552151 -0.02265,-1.103746 0.09384,-1.64719 0.118166,-0.574627 0.275421,-1.139515 0.519118,-1.675175 0.254373,-0.57118 0.537816,-1.127889 0.848942,-1.670452 z" />
    <path
       style="fill:#000000;stroke-width:0.7"
       id="path16"
       d="m 96.322352,77.107893 c -0.148899,0.62288 -0.351681,1.230686 -0.564832,1.833973 -0.179168,0.483015 -0.338998,0.972669 -0.439386,1.478383 -0.03855,0.228529 -0.04729,0.466085 0.09162,0.661167 0.292174,0.282107 0.588344,0.322311 0.95426,0.337127 0.04011,-0.0011 0.224271,-0.0011 0.267612,-0.02185 0.03046,-0.01471 0.03641,-0.06255 0.06758,-0.07568 0.04722,-0.0199 0.101844,-0.01143 0.152765,-0.01717 0,0 -0.0163,-0.01156 -0.0163,-0.01156 v 0 c -0.0509,0.0057 -0.101751,0.02233 -0.152696,0.01707 -0.198716,-0.02053 -0.395095,-0.108302 -0.599898,-0.09796 -0.139033,-0.01378 -0.279281,-0.02598 -0.41474,-0.06259 -0.0296,-0.008 -0.111699,-0.04783 -0.08717,-0.02942 0.06012,0.04512 0.404985,0.245864 0.192387,0.117676 -0.155073,-0.175295 -0.13861,-0.405109 -0.09314,-0.622681 0.110146,-0.500102 0.272909,-0.98483 0.456948,-1.462434 0.212728,-0.604219 0.417211,-1.211461 0.575448,-1.832677 z" />
    <path
       style="fill:#000000;stroke-width:0.7"
       id="path17"
       d="m 95.057874,79.70094 c 0.580134,-0.143582 1.165283,-0.26561 1.74598,-0.4068 0.129839,-0.03114 0.205023,-0.150664 0.31822,-0.20738 0.05351,-0.02681 0.114358,-0.03537 0.171537,-0.05306 0,0 -0.01651,-0.0113 -0.01651,-0.0113 v 0 c -0.252986,0.06609 -0.503967,0.05658 -0.764804,0.06982 -0.587399,0.127177 -1.172086,0.266308 -1.758389,0.398401 z" />
    <path
       style="fill:#000000;stroke-width:0.7"
       id="path18"
       d="m 97.738503,75.567272 c 0.358021,0.510747 0.677995,1.044234 0.955093,1.602756 0.313494,0.635646 0.41715,1.332177 0.471246,2.030754 0.03055,0.73605 -0.06436,1.463162 -0.28662,2.16381 -0.226658,0.597355 -0.589592,1.128615 -0.974722,1.633688 -0.0011,0.0019 -0.240861,0.395351 -0.254461,0.411118 -0.04487,0.05202 -0.10582,0.08764 -0.158729,0.131455 0,0 0.01696,0.01061 0.01696,0.01061 v 0 c 0.198123,-0.164121 0.420082,-0.269671 0.638469,-0.405783 0.128209,-0.112207 0.339399,-0.290425 0.452154,-0.416656 0.296985,-0.332478 0.501669,-0.741198 0.673635,-1.147953 0.240906,-0.7006 0.326027,-1.437658 0.297733,-2.17811 -0.05376,-0.709327 -0.152869,-1.417204 -0.486061,-2.056919 -0.29179,-0.564144 -0.630224,-1.09864 -0.988542,-1.622827 z" />
    <path
       style="fill:#000000;stroke-width:0.7"
       id="path19"
       d="m 67.231886,76.708547 c -0.133276,0.756221 -0.189259,1.522886 -0.236487,2.288397 -0.03303,0.667636 -0.05844,1.336881 -0.01966,2.004716 0.03763,0.238799 0.08779,0.478784 0.225872,0.680926 0,0 0.01807,0.0086 0.01807,0.0086 v 0 c 0.0648,-0.162658 0.104479,-0.329433 0.11978,-0.504714 0.02381,-0.660093 0.01971,-1.321083 0.05976,-1.980642 0.04549,-0.762788 0.101454,-1.52695 0.242371,-2.279115 z" />
    <path
       style="fill:#000000;stroke-width:0.7"
       id="path20"
       d="m 65.456831,77.089986 c 0.866584,-0.06455 1.735362,-0.08751 2.601211,-0.161624 0.804344,-0.07419 1.595668,-0.223623 2.338319,-0.545113 0.205581,-0.05687 0.301897,-0.19327 0.437666,-0.336714 0,0 -0.01675,-0.01093 -0.01675,-0.01093 v 0 c -0.223551,0.06243 -0.455207,0.08187 -0.668409,0.180806 -0.775832,0.23963 -1.563713,0.440915 -2.375947,0.508582 -0.865902,0.078 -1.734828,0.104462 -2.602304,0.160454 z" />
    <path
       style="fill:#000000;stroke-width:0.7"
       id="path21"
       d="m 72.736992,75.394964 c -0.30897,0.602986 -0.581314,1.224034 -0.831136,1.853571 -0.231219,0.634576 -0.378301,1.292103 -0.37597,1.968037 0.02117,0.566356 0.193458,1.102661 0.396208,1.626153 0.18093,0.474403 0.41483,0.922824 0.692087,1.347324 0.193339,0.275011 0.464423,0.523558 0.80251,0.59517 0,0 -0.01582,-0.01222 -0.01582,-0.01222 v 0 c -0.248089,-0.09423 -0.275857,-0.187555 -0.421087,-0.421135 -0.235892,-0.422201 -0.439759,-0.861115 -0.624282,-1.308116 -0.201409,-0.519001 -0.379468,-1.050231 -0.405939,-1.611606 -0.0058,-0.669959 0.141118,-1.321744 0.371419,-1.950124 0.239467,-0.632349 0.499809,-1.257464 0.815271,-1.856283 z" />
    <path
       style="fill:#000000;stroke-width:0.7"
       id="path22"
       d="m 74.47614,77.129713 c -0.06226,0.536535 -0.164414,1.06698 -0.266456,1.596993 -0.07601,0.377341 -0.143563,0.756791 -0.172863,1.140849 -0.0406,0.299908 0.03341,0.569264 0.168135,0.833578 0.13182,0.242983 0.333568,0.430024 0.556456,0.587991 0.356354,0.203515 0.579072,0.432377 0.898583,0.113025 0,0 -0.01667,-0.01106 -0.01667,-0.01106 v 0 c -0.21545,0.03562 -0.404082,0.03746 -0.613365,-0.03428 -0.04121,-0.01413 -0.153368,-0.07868 -0.120891,-0.04964 0.05724,0.05116 0.131763,0.07883 0.197647,0.118255 -0.209595,-0.149172 -0.395359,-0.331149 -0.525738,-0.554966 -0.136956,-0.255428 -0.215882,-0.513733 -0.169855,-0.80722 0.05089,-0.378777 0.113459,-0.755599 0.183462,-1.131342 0.09655,-0.531574 0.193289,-1.063247 0.269386,-1.598229 z" />
    <path
       style="fill:#000000;stroke-width:0.7"
       id="path23"
       d="m 74.033209,79.268949 c 0.376651,-0.06874 0.756751,-0.118685 1.131443,-0.198091 0.07867,-0.01667 0.159997,-0.02551 0.23503,-0.05442 0.05348,-0.02061 0.09678,-0.06144 0.145174,-0.09215 0.04949,-0.0195 0.09899,-0.039 0.148479,-0.05849 0,0 -0.0164,-0.01146 -0.0164,-0.01146 v 0 c -0.07266,0.0033 -0.145328,0.0065 -0.21799,0.0098 -0.09861,-0.0045 -0.197176,-0.01675 -0.295839,-0.01352 -0.477311,0.01566 -0.94528,0.168463 -1.419077,0.215281 z" />
    <path
       style="fill:#000000;stroke-width:0.7"
       id="path24"
       d="m 75.659185,75.198514 c 0.337868,0.299844 0.683493,0.595307 0.931169,0.976344 0.251172,0.443288 0.302967,0.951122 0.355211,1.448147 0.05603,0.621583 0.08409,1.245232 0.09383,1.869133 0.0016,0.646499 -0.111607,1.279432 -0.309697,1.892501 -0.210117,0.644885 -0.595599,1.181362 -1.041533,1.681287 -0.19037,0.178043 -0.300728,0.428969 -0.487158,0.60974 -0.04496,0.04359 -0.101312,0.07364 -0.151967,0.110458 0,0 0.01688,0.01072 0.01688,0.01072 v 0 c 0.292666,-0.212762 0.647292,-0.311992 0.931219,-0.541761 0.506053,-0.461182 0.94597,-0.970418 1.165204,-1.632307 0.208293,-0.616815 0.315463,-1.257954 0.310692,-1.910728 -0.01423,-0.627306 -0.05006,-1.25394 -0.104777,-1.879045 -0.04985,-0.505087 -0.09689,-1.02181 -0.352809,-1.472155 -0.270862,-0.396779 -0.640347,-0.704633 -1.000908,-1.018156 z" />
    <ellipse
       style="fill:#000000;stroke-width:0.7"
       id="path27"
       cx="88.36525"
       cy="77.302216"
       rx="0.46377069"
       ry="0.61074656" />
    <ellipse
       style="fill:#000000;stroke-width:0.7"
       id="path27-5"
       cx="69.127251"
       cy="80.203201"
       rx="0.46377069"
       ry="0.61074656" />
    <path
       style="fill:#000000;stroke-width:0.7"
       id="path28"
       d="m 68.921182,81.321747 c -0.05163,0.477909 -0.111837,0.954802 -0.164111,1.432645 -0.02609,0.205116 -0.0525,0.342159 0.08039,0.50886 0.01717,0.0127 0.03435,0.0254 0.05153,0.03809 0,0 0.01804,0.0086 0.01804,0.0086 v 0 c 0.0149,0.0042 0.02977,0.0084 0.04466,0.01254 0.182009,-0.02582 0.145171,-0.234641 0.171569,-0.376034 0.0607,-0.474279 0.123039,-0.948357 0.183168,-1.422707 z" />
    <path
       style="fill:#000000;stroke-width:0.7"
       id="path29"
       d="m 70.183559,81.461728 c -0.07073,0.325522 -0.13893,0.651663 -0.213662,0.976302 -0.05941,0.269139 -0.07288,0.143433 0.369809,0.287425 0.08459,-0.222317 0.200207,-0.430374 0.324268,-0.632611 0.152566,-0.232905 0.297494,-0.470993 0.458557,-0.698204 0.02143,-0.01635 0.06031,-0.08801 0.100364,-0.07858 0.0072,0.0016 0.02307,0.01783 0.01622,0.01511 -0.101721,-0.04032 -0.195667,-0.103034 -0.302098,-0.128437 -0.02381,-0.0057 0.02326,0.04311 0.03489,0.06466 0.07907,0.171923 0.119607,0.358574 0.152217,0.544062 0.04162,0.286835 0.04472,0.577038 0.04744,0.866267 -0.01802,0.21776 -0.0085,0.403612 0.111857,0.589431 0.01267,0.02357 0.02537,0.04714 0.03805,0.07072 0,0 0.01786,0.009 0.01786,0.009 v 0 c 0.01151,-0.01109 0.02302,-0.0222 0.03454,-0.03329 0.179197,-0.0778 0.17,-0.267793 0.180425,-0.439936 0.01413,-0.289566 0.0011,-0.580507 -0.03262,-0.868413 -0.03536,-0.195607 -0.0788,-0.391054 -0.171823,-0.568611 -0.123348,-0.221271 -0.390472,-0.492315 -0.555762,-0.237728 -0.182142,0.214069 -0.332576,0.452072 -0.485095,0.687559 -0.126495,0.203409 -0.246915,0.410374 -0.340881,0.631254 0.409918,0.303861 0.321812,0.385895 0.370625,0.117403 0.05505,-0.329676 0.120439,-0.657952 0.199356,-0.982741 z" />
    <path
       style="fill:#000000;stroke-width:0.7"
       id="path30"
       d="m 87.436891,152.80484 c -0.03626,0.69386 -0.0054,1.38905 0.03085,2.08222 0.02405,0.42874 0.04852,0.8653 0.177979,1.2775 0.03494,0.0809 0.0463,0.18759 0.12074,0.24392 0.04301,0.0199 0.05225,0.0241 0.03924,0.0613 0,0 0.01749,0.01 0.01749,0.01 v 0 c 0.01175,-0.033 -0.0089,-0.0452 0.04435,-0.0267 0.03782,-0.0142 -0.0065,-0.13343 0.01603,-0.17123 0.02622,-0.40325 -0.04042,-0.80927 -0.0528,-1.21189 -0.03745,-0.68923 -0.07189,-1.3815 -0.01998,-2.07092 z" />
    <path
       style="fill:#000000;stroke-width:0.7"
       id="path31"
       d="m 86.11314,152.97807 c 0.945957,-0.0456 1.882487,-0.18877 2.810309,-0.37242 0.532921,-0.15618 1.476145,-0.25282 1.899097,-0.636 0,0 -0.01648,-0.0113 -0.01648,-0.0113 v 0 c -0.08517,-5.3e-4 -0.170765,-0.0101 -0.255524,-0.002 -0.09271,0.009 -0.18306,0.0349 -0.274196,0.0542 -0.549981,0.11677 -1.08708,0.2871 -1.639239,0.39525 -0.927354,0.18536 -1.86468,0.33074 -2.811275,0.36517 z" />
    <path
       style="fill:#000000;stroke-width:0.7"
       id="path32"
       d="m 91.088519,155.8083 c -0.359191,0.30418 -0.678376,0.64484 -0.913718,1.05303 -0.09703,0.19038 -0.146184,0.37418 0.01146,0.53911 0.322598,0.2545 0.592891,0.31535 0.961977,0.22237 0.32661,-0.1314 0.561584,-0.38977 0.756209,-0.6737 0.15685,-0.27344 0.276267,-0.57165 0.29837,-0.88789 0.0055,-0.17699 -0.04326,-0.32896 -0.175014,-0.4475 -0.106709,-0.0553 -0.566851,-0.45155 -0.70467,-0.28494 -0.04556,0.1218 0.0847,0.16808 0.125698,0.28289 0,0 0.01786,0.009 0.01786,0.009 v 0 c 0.04461,-0.0983 0.133622,-0.009 0.220279,-0.049 0.04334,0.003 0.07845,0.0137 0.11997,0.0274 0.01849,0.006 0.07188,0.0289 0.05554,0.0183 -0.251581,-0.16353 -0.52188,-0.30173 -0.323389,-0.19922 0.149754,0.10211 0.224504,0.23463 0.229499,0.41948 -0.0043,0.31665 -0.08322,0.61419 -0.240675,0.89161 -0.172374,0.28604 -0.397513,0.53216 -0.710745,0.66562 -0.114827,0.0308 -0.222613,0.0551 -0.342686,0.0461 -0.03491,-0.003 -0.127333,-0.0417 -0.103844,-0.0157 0.06139,0.0678 0.154115,0.0988 0.227947,0.15287 0.02141,0.0157 -0.0468,-0.025 -0.0702,-0.0374 -0.170847,-0.14058 -0.108109,-0.30557 -0.01341,-0.48266 0.24003,-0.39976 0.577104,-0.72697 0.932569,-1.02518 z" />
    <path
       style="fill:#000000;stroke-width:0.7"
       id="path33"
       d="m 93.182759,155.72628 c -0.05593,0.33807 -0.190269,0.69383 -0.108735,1.03749 0.264599,0.45192 0.528775,0.2891 0.809453,0.0778 0.195431,-0.15916 0.365828,-0.34509 0.538151,-0.52809 0.09962,-0.0998 0.407914,-0.24533 -0.149053,-0.20149 -0.04024,0.003 0.0275,0.0759 0.04126,0.11385 0.06047,0.29987 0.168553,0.57548 0.320119,0.84043 0.112178,0.1555 0.0646,0.0823 0.146191,0.21737 0,0 0.0182,0.008 0.0182,0.008 v 0 c -0.03159,-0.10152 -0.02641,-0.0496 -0.01529,-0.15579 -0.0079,-0.25078 -0.03355,-0.49976 -0.107701,-0.7408 -0.09792,-0.30635 -0.369904,-0.58194 -0.566357,-0.27207 -0.170571,0.18249 -0.343268,0.36484 -0.540893,0.5186 -0.0914,0.0668 -0.193897,0.15916 -0.31015,0.18024 -0.02082,0.004 -0.07976,-0.0185 -0.06332,-0.005 0.415364,0.3372 0.276027,0.18713 0.199991,0.0991 -0.111922,-0.33152 0.04223,-0.68968 0.109357,-1.01604 z" />
    <path
       style="fill:#000000;stroke-width:0.7"
       id="path34"
       d="m 95.906944,153.3806 c -0.055,0.662 -0.127064,1.32227 -0.170646,1.9852 -0.0168,0.32432 0.01691,0.6376 0.148722,0.93476 0.102898,0.19079 0.222478,0.37393 0.360328,0.54135 0.1156,0.12786 0.46372,0.52605 0.54341,0.22372 0.0273,-0.0204 0.0545,-0.0408 0.0818,-0.0613 0,0 -0.0169,-0.0107 -0.0169,-0.0107 v 0 c -0.0283,0.0195 -0.0567,0.0391 -0.085,0.0586 -0.0453,-0.002 -0.0909,-0.002 -0.13594,-0.007 -0.0335,-0.004 -0.12206,-0.0465 -0.099,-0.0218 0.31809,0.3408 0.14186,0.0182 0.0565,-0.033 -0.11913,-0.17413 -0.24624,-0.34348 -0.34965,-0.52777 -0.14206,-0.28943 -0.18459,-0.5972 -0.16139,-0.91943 0.0369,-0.65957 0.11977,-1.31531 0.19502,-1.97137 z" />
    <path
       style="fill:#000000;stroke-width:0.7"
       id="path35"
       d="m 95.369003,155.30693 c 0.29363,-0.11796 0.657325,-0.12219 0.942305,-0.25653 0.0572,-0.027 0.10246,-0.0741 0.15369,-0.11118 0,0 -0.0164,-0.0114 -0.0164,-0.0114 v 0 c -0.11029,-0.004 -0.22058,-0.0161 -0.33089,-0.0122 -0.352896,0.0124 -0.699437,0.12197 -1.043485,0.18896 z" />
    <path
       style="fill:#000000;stroke-width:0.7"
       id="path36"
       d="m 99.936778,150.43128 c -0.15205,0.76536 -0.29421,1.53178 -0.40136,2.30483 -0.0999,0.80724 -0.15741,1.6249 -0.0585,2.43429 0.0572,0.48729 0.21026,0.93572 0.49355,1.3347 0.215172,0.3156 0.545942,0.49167 0.849292,0.70565 0,0 0.0186,0.007 0.0186,0.007 v 0 c -0.19741,-0.14641 -0.35704,-0.39131 -0.53117,-0.56691 -0.27926,-0.3908 -0.433872,-0.83309 -0.489472,-1.31158 -0.0688,-0.80529 -0.036,-1.61391 0.0761,-2.41458 0.108622,-0.76997 0.251622,-1.53384 0.419052,-2.29324 z" />
    <path
       style="fill:#000000;stroke-width:0.7"
       id="path37"
       d="m 102.16146,152.1012 c -0.11104,0.6462 -0.21611,1.29326 -0.28461,1.94546 -0.033,0.3887 2.7e-4,0.76415 0.18745,1.10914 0.22418,0.34 0.57944,0.53758 0.94463,0.70278 0.0276,0.008 0.18537,0.0577 0.2179,0.0545 0.0211,-0.002 0.0315,-0.0294 0.0508,-0.038 0.0259,-0.0115 0.0549,-0.014 0.0824,-0.021 0,0 -0.0162,-0.0117 -0.0162,-0.0117 v 0 c -0.21449,-0.0304 -0.41248,-0.11912 -0.61109,-0.20363 -0.0408,-0.0203 -0.15916,-0.0877 -0.12244,-0.0608 0.0613,0.045 0.12774,0.0835 0.19678,0.11539 0.0382,0.0176 -0.0703,-0.0465 -0.10349,-0.0723 -0.11196,-0.087 -0.20796,-0.19123 -0.28808,-0.30812 -0.19178,-0.33325 -0.21896,-0.69965 -0.18061,-1.07914 0.0618,-0.65017 0.17208,-1.29365 0.29905,-1.9341 z" />
    <path
       style="fill:#000000;stroke-width:0.7"
       id="path38"
       d="m 101.53051,154.29926 c 0.31049,-0.12446 0.63479,-0.2143 0.93992,-0.3524 0.0626,-0.0283 0.13228,-0.0476 0.18418,-0.0926 0.0447,-0.0387 0.0634,-0.0998 0.0952,-0.14972 0.0596,-0.0262 0.11924,-0.0525 0.17886,-0.0788 0,0 -0.0166,-0.0111 -0.0166,-0.0111 v 0 c -0.0596,0.0262 -0.11922,0.0525 -0.17884,0.0787 -0.10004,0.004 -0.20095,-0.002 -0.30013,0.0116 -0.40152,0.0553 -0.8121,0.2856 -1.20252,0.39266 z" />
    <path
       style="fill:#000000;stroke-width:0.7"
       id="path39"
       d="m 103.39652,150.32449 c 0.41708,0.60646 0.65272,1.30865 0.83561,2.01497 0.19037,0.86115 0.19033,1.74102 0.13348,2.61589 -0.0701,0.92457 -0.25092,1.83452 -0.44042,2.74047 -0.0247,0.28655 -0.16168,0.55589 -0.18773,0.8424 -0.0783,0.8619 0.12788,0.04 -0.0822,0.75123 0,0 0.0175,0.01 0.0175,0.01 v 0 c 0.19719,-0.41044 0.0717,-0.2128 0.38694,-0.58608 0.0503,-0.0931 0.21292,-0.73902 0.23397,-0.81918 0.21446,-0.9008 0.40103,-1.80919 0.46479,-2.7351 0.0592,-0.87911 0.0625,-1.76272 -0.12737,-2.62871 -0.18691,-0.71252 -0.42406,-1.42077 -0.84199,-2.03509 z" />
    <ellipse
       style="fill:none;stroke-width:0.7"
       id="path40"
       cx="72.857437"
       cy="131.6299"
       rx="1.5688558"
       ry="1.5575802" />
    <ellipse
       style="fill:none;stroke:#000000;stroke-width:0.17429;stroke-dasharray:none;stroke-opacity:1"
       id="path41"
       cx="69.9123"
       cy="135.3595"
       rx="1.5465472"
       ry="1.4660243" />
    <ellipse
       style="fill:none;stroke:#000000;stroke-width:0.17429;stroke-dasharray:none;stroke-opacity:1"
       id="path41-2"
       cx="72.536316"
       cy="131.33191"
       rx="1.5465472"
       ry="1.4660243" />
    <ellipse
       style="fill:none;stroke:#000000;stroke-width:0.17429;stroke-dasharray:none;stroke-opacity:1"
       id="path41-7"
       cx="70.484451"
       cy="126.10043"
       rx="1.5465472"
       ry="1.4660243" />
    <ellipse
       style="fill:none;stroke:#000000;stroke-width:0.17429;stroke-dasharray:none;stroke-opacity:1"
       id="path41-61"
       cx="76.802155"
       cy="129.24963"
       rx="1.5465472"
       ry="1.4660243" />
    <ellipse
       style="fill:none;stroke:#000000;stroke-width:0.17429;stroke-dasharray:none;stroke-opacity:1"
       id="path41-20"
       cx="75.28714"
       cy="125.35063"
       rx="1.5465472"
       ry="1.4660243" />
    <ellipse
       style="fill:none;stroke:#000000;stroke-width:0.17429;stroke-dasharray:none;stroke-opacity:1"
       id="path41-5"
       cx="81.787666"
       cy="131.68221"
       rx="1.5465472"
       ry="1.4660243" />
    <ellipse
       style="fill:none;stroke:#000000;stroke-width:0.17429;stroke-dasharray:none;stroke-opacity:1"
       id="path41-8"
       cx="81.850899"
       cy="126.46102"
       rx="1.5465472"
       ry="1.4660243" />
    <ellipse
       style="fill:none;stroke:#000000;stroke-width:0.17429;stroke-dasharray:none;stroke-opacity:1"
       id="path41-612"
       cx="85.744347"
       cy="130.71571"
       rx="1.5465472"
       ry="1.4660243" />
    <ellipse
       style="fill:none;stroke:#000000;stroke-width:0.17429;stroke-dasharray:none;stroke-opacity:1"
       id="path41-9"
       cx="82.851418"
       cy="136.91931"
       rx="1.5465472"
       ry="1.4660243" />
    <ellipse
       style="fill:none;stroke:#000000;stroke-width:0.17429;stroke-dasharray:none;stroke-opacity:1"
       id="path41-4"
       cx="87.874275"
       cy="135.33356"
       rx="1.5465472"
       ry="1.4660243" />
    <ellipse
       style="fill:none;stroke:#000000;stroke-width:0.17429;stroke-dasharray:none;stroke-opacity:1"
       id="path41-610"
       cx="74.672562"
       cy="138.82976"
       rx="1.5465472"
       ry="1.4660243" />
    <ellipse
       style="fill:none;stroke:#000000;stroke-width:0.17429;stroke-dasharray:none;stroke-opacity:1"
       id="path41-0"
       cx="79.482811"
       cy="138.90839"
       rx="1.5465472"
       ry="1.4660243" />
    <ellipse
       style="fill:none;stroke:#000000;stroke-width:0.17429;stroke-dasharray:none;stroke-opacity:1"
       id="path41-54"
       cx="86.710091"
       cy="139.91345"
       rx="1.5465472"
       ry="1.4660243" />
    <ellipse
       style="fill:none;stroke:#000000;stroke-width:0.17429;stroke-dasharray:none;stroke-opacity:1"
       id="path41-69"
       cx="92.291809"
       cy="140.13466"
       rx="1.5465472"
       ry="1.4660243" />
    <ellipse
       style="fill:none;stroke:#000000;stroke-width:0.17429;stroke-dasharray:none;stroke-opacity:1"
       id="path41-52"
       cx="92.231216"
       cy="136.35626"
       rx="1.5465472"
       ry="1.4660243" />
    <ellipse
       style="fill:none;stroke:#000000;stroke-width:0.17429;stroke-dasharray:none;stroke-opacity:1"
       id="path41-44"
       cx="95.415092"
       cy="138.20549"
       rx="1.5465472"
       ry="1.4660243" />
    <ellipse
       style="fill:none;stroke:#000000;stroke-width:0.17429;stroke-dasharray:none;stroke-opacity:1"
       id="path41-86"
       cx="90.716476"
       cy="132.36143"
       rx="1.5465472"
       ry="1.4660243" />
    <ellipse
       style="fill:none;stroke:#000000;stroke-width:0.17429;stroke-dasharray:none;stroke-opacity:1"
       id="path41-3"
       cx="94.977661"
       cy="133.91454"
       rx="1.5465472"
       ry="1.4660243" />
    <ellipse
       style="fill:none;stroke:#000000;stroke-width:0.17429;stroke-dasharray:none;stroke-opacity:1"
       id="path41-206"
       cx="88.532532"
       cy="127.65156"
       rx="1.5465472"
       ry="1.4660243" />
    <ellipse
       style="fill:none;stroke:#000000;stroke-width:0.17429;stroke-dasharray:none;stroke-opacity:1"
       id="path41-66"
       cx="93.14901"
       cy="129.57664"
       rx="1.5465472"
       ry="1.4660243" />
    <ellipse
       style="fill:none;stroke:#000000;stroke-width:0.17429;stroke-dasharray:none;stroke-opacity:1"
       id="path41-04"
       cx="85.333893"
       cy="127.41344"
       rx="1.5465472"
       ry="1.4660243" />
    <ellipse
       style="fill:none;stroke:#000000;stroke-width:0.17429;stroke-dasharray:none;stroke-opacity:1"
       id="path41-72"
       cx="78.830399"
       cy="125.09138"
       rx="1.5465472"
       ry="1.4660243" />
    <ellipse
       style="fill:none;stroke:#000000;stroke-width:0.17429;stroke-dasharray:none;stroke-opacity:1"
       id="path41-6106"
       cx="69.440079"
       cy="129.82497"
       rx="1.5465472"
       ry="1.4660243" />
    <ellipse
       style="fill:none;stroke:#000000;stroke-width:0.17429;stroke-dasharray:none;stroke-opacity:1"
       id="path41-49"
       cx="73.254021"
       cy="134.8757"
       rx="1.5465472"
       ry="1.4660243" />
    <ellipse
       style="fill:none;stroke:#000000;stroke-width:0.17429;stroke-dasharray:none;stroke-opacity:1"
       id="path41-77"
       cx="71.917412"
       cy="122.52899"
       rx="1.5465472"
       ry="1.4660243" />
    <ellipse
       style="fill:none;stroke:#000000;stroke-width:0.17429;stroke-dasharray:none;stroke-opacity:1"
       id="path41-97"
       cx="84.675339"
       cy="123.66898"
       rx="1.5465472"
       ry="1.4660243" />
    <ellipse
       style="fill:none;stroke:#000000;stroke-width:0.17429;stroke-dasharray:none;stroke-opacity:1"
       id="path41-36"
       cx="88.701927"
       cy="123.77885"
       rx="1.5465472"
       ry="1.4660243" />
    <ellipse
       style="fill:none;stroke:#000000;stroke-width:0.17429;stroke-dasharray:none;stroke-opacity:1"
       id="path41-94"
       cx="91.884888"
       cy="125.68915"
       rx="1.5465472"
       ry="1.4660243" />
    <ellipse
       style="fill:none;stroke:#000000;stroke-width:0.17429;stroke-dasharray:none;stroke-opacity:1"
       id="path41-93"
       cx="80.3806"
       cy="121.21298"
       rx="1.5465472"
       ry="1.4660243" />
    <ellipse
       style="fill:none;stroke:#000000;stroke-width:0.17429;stroke-dasharray:none;stroke-opacity:1"
       id="path41-85"
       cx="76.712708"
       cy="121.15781"
       rx="1.5465472"
       ry="1.4660243" />
    <ellipse
       style="fill:none;stroke:#000000;stroke-width:0.17429;stroke-dasharray:none;stroke-opacity:1"
       id="path41-38"
       cx="92.675575"
       cy="122.14891"
       rx="1.5465472"
       ry="1.4660243" />
    <ellipse
       style="fill:none;stroke:#000000;stroke-width:0.17429;stroke-dasharray:none;stroke-opacity:1"
       id="path41-1"
       cx="95.505211"
       cy="126.57518"
       rx="1.5465472"
       ry="1.4660243" />
    <ellipse
       style="fill:none;stroke:#000000;stroke-width:0.17429;stroke-dasharray:none;stroke-opacity:1"
       id="path41-48"
       cx="72.927635"
       cy="118.43306"
       rx="1.5465472"
       ry="1.4660243" />
    <ellipse
       style="fill:none;stroke:#000000;stroke-width:0.17429;stroke-dasharray:none;stroke-opacity:1"
       id="path41-044"
       cx="69.441902"
       cy="119.716"
       rx="1.5465472"
       ry="1.4660243" />
    <ellipse
       style="fill:none;stroke:#000000;stroke-width:0.17429;stroke-dasharray:none;stroke-opacity:1"
       id="path41-63"
       cx="76.955101"
       cy="116.65062"
       rx="1.5465472"
       ry="1.4660243" />
    <ellipse
       style="fill:none;stroke:#000000;stroke-width:0.17429;stroke-dasharray:none;stroke-opacity:1"
       id="path41-96"
       cx="81.896584"
       cy="117.82664"
       rx="1.5465472"
       ry="1.4660243" />
    <ellipse
       style="fill:none;stroke:#000000;stroke-width:0.17429;stroke-dasharray:none;stroke-opacity:1"
       id="path41-857"
       cx="79.929909"
       cy="115.0002"
       rx="1.5465472"
       ry="1.4660243" />
    <ellipse
       style="fill:none;stroke:#000000;stroke-width:0.17429;stroke-dasharray:none;stroke-opacity:1"
       id="path41-59"
       cx="76.087776"
       cy="113.02731"
       rx="1.5465472"
       ry="1.4660243" />
    <ellipse
       style="fill:none;stroke:#000000;stroke-width:0.17429;stroke-dasharray:none;stroke-opacity:1"
       id="path41-88"
       cx="72.779137"
       cy="114.78803"
       rx="1.5465472"
       ry="1.4660243" />
    <ellipse
       style="fill:none;stroke:#000000;stroke-width:0.17429;stroke-dasharray:none;stroke-opacity:1"
       id="path41-964"
       cx="78.977806"
       cy="111.34968"
       rx="1.5465472"
       ry="1.4660243" />
    <ellipse
       style="fill:none;stroke:#000000;stroke-width:0.17429;stroke-dasharray:none;stroke-opacity:1"
       id="path41-860"
       cx="86.796585"
       cy="118.67886"
       rx="1.5465472"
       ry="1.4660243" />
    <ellipse
       style="fill:none;stroke:#000000;stroke-width:0.17429;stroke-dasharray:none;stroke-opacity:1"
       id="path41-89"
       cx="90.191887"
       cy="118.86095"
       rx="1.5465472"
       ry="1.4660243" />
    <ellipse
       style="fill:none;stroke:#000000;stroke-width:0.17429;stroke-dasharray:none;stroke-opacity:1"
       id="path41-43"
       cx="94.399246"
       cy="118.4376"
       rx="1.5465472"
       ry="1.4660243" />
    <ellipse
       style="fill:none;stroke:#000000;stroke-width:0.17429;stroke-dasharray:none;stroke-opacity:1"
       id="path41-92"
       cx="95.331177"
       cy="114.28152"
       rx="1.5465472"
       ry="1.4660243" />
    <ellipse
       style="fill:none;stroke:#000000;stroke-width:0.17429;stroke-dasharray:none;stroke-opacity:1"
       id="path41-594"
       cx="91.188332"
       cy="114.64404"
       rx="1.5465472"
       ry="1.4660243" />
    <ellipse
       style="fill:none;stroke:#000000;stroke-width:0.17429;stroke-dasharray:none;stroke-opacity:1"
       id="path41-24"
       cx="86.74073"
       cy="115.3036"
       rx="1.5465472"
       ry="1.4660243" />
    <ellipse
       style="fill:none;stroke:#000000;stroke-width:0.17429;stroke-dasharray:none;stroke-opacity:1"
       id="path41-481"
       cx="83.450005"
       cy="113.21746"
       rx="1.5465472"
       ry="1.4660243" />
    <ellipse
       style="fill:none;stroke:#000000;stroke-width:0.17429;stroke-dasharray:none;stroke-opacity:1"
       id="path41-368"
       cx="87.743546"
       cy="111.49224"
       rx="1.5465472"
       ry="1.4660243" />
    <ellipse
       style="fill:none;stroke:#000000;stroke-width:0.17429;stroke-dasharray:none;stroke-opacity:1"
       id="path41-05"
       cx="92.226288"
       cy="110.80303"
       rx="1.5465472"
       ry="1.4660243" />
    <ellipse
       style="fill:none;stroke:#000000;stroke-width:0.17429;stroke-dasharray:none;stroke-opacity:1"
       id="path41-850"
       cx="84.500633"
       cy="109.43163"
       rx="1.5465472"
       ry="1.4660243" />
    <ellipse
       style="fill:none;stroke:#000000;stroke-width:0.17429;stroke-dasharray:none;stroke-opacity:1"
       id="path41-25"
       cx="79.918175"
       cy="107.7181"
       rx="1.5465472"
       ry="1.4660243" />
    <ellipse
       style="fill:none;stroke:#000000;stroke-width:0.17429;stroke-dasharray:none;stroke-opacity:1"
       id="path41-84"
       cx="75.457802"
       cy="108.08228"
       rx="1.5465472"
       ry="1.4660243" />
    <ellipse
       style="fill:none;stroke:#000000;stroke-width:0.17429;stroke-dasharray:none;stroke-opacity:1"
       id="path41-06"
       cx="72.233444"
       cy="110.54161"
       rx="1.5465472"
       ry="1.4660243" />
    <ellipse
       style="fill:none;stroke:#000000;stroke-width:0.17429;stroke-dasharray:none;stroke-opacity:1"
       id="path41-08"
       cx="68.396805"
       cy="113.50326"
       rx="1.5465472"
       ry="1.4660243" />
    <ellipse
       style="fill:none;stroke:#000000;stroke-width:0.17429;stroke-dasharray:none;stroke-opacity:1"
       id="path41-10"
       cx="68.112579"
       cy="109.59591"
       rx="1.5465472"
       ry="1.4660243" />
    <ellipse
       style="fill:none;stroke:#000000;stroke-width:0.17429;stroke-dasharray:none;stroke-opacity:1"
       id="path41-39"
       cx="66.760948"
       cy="105.73642"
       rx="1.5465472"
       ry="1.4660243" />
    <ellipse
       style="fill:none;stroke:#000000;stroke-width:0.17429;stroke-dasharray:none;stroke-opacity:1"
       id="path41-933"
       cx="69.972366"
       cy="106.57513"
       rx="1.5465472"
       ry="1.4660243" />
    <ellipse
       style="fill:none;stroke:#000000;stroke-width:0.17429;stroke-dasharray:none;stroke-opacity:1"
       id="path41-664"
       cx="73.356018"
       cy="104.83862"
       rx="1.5465472"
       ry="1.4660243" />
    <ellipse
       style="fill:none;stroke:#000000;stroke-width:0.17429;stroke-dasharray:none;stroke-opacity:1"
       id="path41-62"
       cx="76.691475"
       cy="104.98112"
       rx="1.5465472"
       ry="1.4660243" />
    <ellipse
       style="fill:none;stroke:#000000;stroke-width:0.17429;stroke-dasharray:none;stroke-opacity:1"
       id="path41-698"
       cx="70.001915"
       cy="102.92204"
       rx="1.5465472"
       ry="1.4660243" />
    <ellipse
       style="fill:none;stroke:#000000;stroke-width:0.17429;stroke-dasharray:none;stroke-opacity:1"
       id="path41-29"
       cx="66.044258"
       cy="102.28829"
       rx="1.5465472"
       ry="1.4660243" />
    <ellipse
       style="fill:none;stroke:#000000;stroke-width:0.17429;stroke-dasharray:none;stroke-opacity:1"
       id="path41-27"
       cx="67.473541"
       cy="99.286736"
       rx="1.5465472"
       ry="1.4660243" />
    <ellipse
       style="fill:none;stroke:#000000;stroke-width:0.17429;stroke-dasharray:none;stroke-opacity:1"
       id="path41-21"
       cx="71.263649"
       cy="99.559677"
       rx="1.5465472"
       ry="1.4660243" />
    <ellipse
       style="fill:none;stroke:#000000;stroke-width:0.17429;stroke-dasharray:none;stroke-opacity:1"
       id="path41-14"
       cx="74.155846"
       cy="101.01073"
       rx="1.5465472"
       ry="1.4660243" />
    <ellipse
       style="fill:none;stroke:#000000;stroke-width:0.17429;stroke-dasharray:none;stroke-opacity:1"
       id="path41-75"
       cx="77.823112"
       cy="100.25279"
       rx="1.5465472"
       ry="1.4660243" />
    <ellipse
       style="fill:none;stroke:#000000;stroke-width:0.17429;stroke-dasharray:none;stroke-opacity:1"
       id="path41-480"
       cx="79.636261"
       cy="103.04836"
       rx="1.5465472"
       ry="1.4660243" />
    <ellipse
       style="fill:none;stroke:#000000;stroke-width:0.17429;stroke-dasharray:none;stroke-opacity:1"
       id="path41-6104"
       cx="82.311363"
       cy="105.10737"
       rx="1.5465472"
       ry="1.4660243" />
    <ellipse
       style="fill:none;stroke:#000000;stroke-width:0.17429;stroke-dasharray:none;stroke-opacity:1"
       id="path41-055"
       cx="83.042854"
       cy="101.69434"
       rx="1.5465472"
       ry="1.4660243" />
    <ellipse
       style="fill:none;stroke:#000000;stroke-width:0.17429;stroke-dasharray:none;stroke-opacity:1"
       id="path41-28"
       cx="85.590347"
       cy="105.728"
       rx="1.5465472"
       ry="1.4660243" />
    <ellipse
       style="fill:none;stroke:#000000;stroke-width:0.17429;stroke-dasharray:none;stroke-opacity:1"
       id="path41-40"
       cx="87.992668"
       cy="107.79886"
       rx="1.5465472"
       ry="1.4660243" />
    <ellipse
       style="fill:none;stroke:#000000;stroke-width:0.17429;stroke-dasharray:none;stroke-opacity:1"
       id="path41-625"
       cx="91.771965"
       cy="107.04542"
       rx="1.5465472"
       ry="1.4660243" />
    <ellipse
       style="fill:none;stroke:#000000;stroke-width:0.17429;stroke-dasharray:none;stroke-opacity:1"
       id="path41-936"
       cx="94.945358"
       cy="108.26248"
       rx="1.5465472"
       ry="1.4660243" />
    <ellipse
       style="fill:none;stroke:#000000;stroke-width:0.17429;stroke-dasharray:none;stroke-opacity:1"
       id="path41-294"
       cx="95.239479"
       cy="104.48098"
       rx="1.5465472"
       ry="1.4660243" />
    <ellipse
       style="fill:none;stroke:#000000;stroke-width:0.17429;stroke-dasharray:none;stroke-opacity:1"
       id="path41-74"
       cx="94.976761"
       cy="100.69336"
       rx="1.5465472"
       ry="1.4660243" />
    <ellipse
       style="fill:none;stroke:#000000;stroke-width:0.17429;stroke-dasharray:none;stroke-opacity:1"
       id="path41-694"
       cx="92.15863"
       cy="102.60075"
       rx="1.5465472"
       ry="1.4660243" />
    <ellipse
       style="fill:none;stroke:#000000;stroke-width:0.17429;stroke-dasharray:none;stroke-opacity:1"
       id="path41-41"
       cx="89.351471"
       cy="104.45451"
       rx="1.5465472"
       ry="1.4660243" />
    <ellipse
       style="fill:none;stroke:#000000;stroke-width:0.17429;stroke-dasharray:none;stroke-opacity:1"
       id="path41-928"
       cx="86.783829"
       cy="102.08374"
       rx="1.5465472"
       ry="1.4660243" />
    <ellipse
       style="fill:none;stroke:#000000;stroke-width:0.17429;stroke-dasharray:none;stroke-opacity:1"
       id="path41-83"
       cx="89.716026"
       cy="99.93277"
       rx="1.5465472"
       ry="1.4660243" />
    <ellipse
       style="fill:none;stroke:#000000;stroke-width:0.17429;stroke-dasharray:none;stroke-opacity:1"
       id="path41-380"
       cx="84.606087"
       cy="133.84038"
       rx="1.5465472"
       ry="1.4660243" />
    <ellipse
       style="fill:none;stroke:#000000;stroke-width:0.17429;stroke-dasharray:none;stroke-opacity:1"
       id="path41-6"
       cx="77.24968"
       cy="134.69576"
       rx="1.5465472"
       ry="1.4660243" />
    <ellipse
       style="fill:none;stroke:#000000;stroke-width:0.17429;stroke-dasharray:none;stroke-opacity:1"
       id="path41-890"
       cx="70.981735"
       cy="139.16765"
       rx="1.5465472"
       ry="1.4660243" />
    <ellipse
       style="fill:none;stroke:#000000;stroke-width:0.17429;stroke-dasharray:none;stroke-opacity:1"
       id="path41-90"
       cx="78.503128"
       cy="131.89935"
       rx="1.5465472"
       ry="1.4660243" />
    <ellipse
       style="fill:none;stroke:#000000;stroke-width:0.17429;stroke-dasharray:none;stroke-opacity:1"
       id="path41-73"
       cx="82.95446"
       cy="140.62689"
       rx="1.5465472"
       ry="1.4660243" />
    <ellipse
       style="fill:none;stroke:#000000;stroke-width:0.17429;stroke-dasharray:none;stroke-opacity:1"
       id="path41-26"
       cx="76.942528"
       cy="142.08369"
       rx="1.5465472"
       ry="1.4660243" />
    <ellipse
       style="fill:none;stroke:#000000;stroke-width:0.17429;stroke-dasharray:none;stroke-opacity:1"
       id="path41-960"
       cx="89.967407"
       cy="142.70828"
       rx="1.5465472"
       ry="1.4660243" />
    <ellipse
       style="fill:none;stroke:#000000;stroke-width:0.17429;stroke-dasharray:none;stroke-opacity:1"
       id="path41-487"
       cx="72.941071"
       cy="141.85248"
       rx="1.5465472"
       ry="1.4660243" />
    <ellipse
       style="fill:none;stroke:#000000;stroke-width:0.17429;stroke-dasharray:none;stroke-opacity:1"
       id="path41-247"
       cx="95.556854"
       cy="141.88872"
       rx="1.5465472"
       ry="1.4660243" />
    <ellipse
       style="fill:none;stroke:#000000;stroke-width:0.17429;stroke-dasharray:none;stroke-opacity:1"
       id="path41-283"
       cx="96.260902"
       cy="121.59409"
       rx="1.5465472"
       ry="1.4660243" />
    <ellipse
       style="fill:none;stroke:#000000;stroke-width:0.17429;stroke-dasharray:none;stroke-opacity:1"
       id="path41-891"
       cx="69.422508"
       cy="116.41501"
       rx="1.5465472"
       ry="1.4660243" />
    <ellipse
       style="fill:none;stroke:#000000;stroke-width:0.17429;stroke-dasharray:none;stroke-opacity:1"
       id="path41-257"
       cx="68.293732"
       cy="122.9258"
       rx="1.5465472"
       ry="1.4660243" />
  </g>
</svg>
