<?xml version="1.0" encoding="UTF-8"?>
<svg xmlns="http://www.w3.org/2000/svg" viewBox="0 0 465.7561 475.2615">
  <defs>
    <style>
      .cls-1 {
        fill: #fff;
      }

      .cls-1, .cls-2, .cls-3 {
        stroke-width: 0px;
      }

      .cls-2 {
        fill: #231f20;
      }

      .cls-3 {
        fill: #00bbd6;
      }
    </style>
  </defs>
  <g id="x-y_axes" data-name="x-y axes">
    <path class="cls-1" d="m47.1741,43.0717c.1257,0,.1259-.1953,0-.1953-.1257,0-.1259.1953,0,.1953h0Z"/>
    <path class="cls-2" d="m43.6024,42.0112c4.2241,25.5375-2.7657,50.9803-4.0044,76.4721-.6351,13.0687.939,25.9659,1.966,38.9675,1.0437,13.2136.9168,26.4679.2498,39.6975-1.3306,26.3934-4.3193,52.7121-3.8789,79.1727.4393,26.3968,3.4687,52.6619,4.3712,79.0381.4533,13.2485.107,26.4359-.6431,39.6659-.7447,13.1357-1.5476,26.3343-.3378,39.468.288,3.1264.7089,6.2235,1.2775,9.311.3641,1.977,3.2535,1.1024,2.9757-.8204-3.7867-26.2071.5166-52.6519.0656-78.9712-.4546-26.5302-3.5577-52.9225-4.5429-79.4282-.4885-13.1435-.3002-26.2652.5243-39.3912.8336-13.2711,2.0789-26.5119,2.9812-39.778.8994-13.223,1.384-26.5062.8019-39.7544-.5695-12.9615-2.5524-25.8407-2.6078-38.8274-.1088-25.53,6.4484-50.8512,3.6593-76.4325-.3221-2.9542-.7742-5.8897-1.351-8.8048-.1969-.9948-1.6684-.562-1.5067.4154h0Z"/>
    <path class="cls-2" d="m44.636,438.9424c-1.506.3012-2.0881,1.9958-1.5466,3.3541.7929,1.9892,3.0674,2.0031,4.8658,1.8756,6.8775-.4875,13.7478-1.0512,20.6361-1.3718,13.5382-.6301,26.9224.091,40.3833,1.5662,13.611,1.4916,27.1471,3.0415,40.8501,3.3625,13.8191.3237,27.6644.1591,41.4859.0505,27.704-.2177,55.4079-.4354,83.1119-.6531,27.7116-.2177,55.4232-.4355,83.1348-.6532s55.4232-.4355,83.1348-.6532c3.5267-.0277,7.0296-.273,10.5439-.5516,1.9237-.1525,1.9456-2.8841,0-3.0078-13.4708-.8562-27.0607-.2561-40.5536-.1501-13.2475.1041-26.495.2082-39.7425.3123-26.7654.2103-53.5307.4206-80.2961.6309-26.495.2082-52.99.4164-79.485.6246-13.4929.106-26.9846.2347-40.4768.4039-13.084.164-26.1824.2858-39.2396-.7129-14.4782-1.1074-28.8608-3.3745-43.3851-3.8825-7.4159-.2593-14.845.0258-22.2462.5054-3.7076.2403-7.4115.5344-11.1138.8442-1.8512.1549-3.702.3143-5.5528.4729-.7018.0601-1.4183.1663-2.1232.1748-.2851.0034-2.9095-.3766-1.7081-.9352.9512-.4423.2436-1.7906-.6772-1.6064h0Z"/>
    <path class="cls-2" d="m33.7383,54.8826c1.3847-.5084,1.936-2.326,2.6701-3.512.845-1.3652,1.7624-2.6908,2.7616-3.948,1.9217-2.4181,4.1272-4.8112,6.6088-6.6684.1425-.1225.2969-.2283.4632-.3174-.202-.1558-.2503-.1618-.1449-.0179.249.2166.3535.8054.4679,1.0956.319.8095.6313,1.622.9613,2.4271.7167,1.7485,1.4631,3.4855,2.1945,5.228s1.463,3.4853,2.1945,5.228c.7127,1.6978,1.3453,3.4794,2.519,4.9113.6834.8337,2.3718.1813,2.2339-.9253-.2636-2.1164-1.3091-4.0819-2.1595-6.0261-.874-1.9981-1.748-3.9963-2.622-5.9944-.8735-1.9971-1.7507-3.99-2.6681-5.9674-.6761-1.4573-1.6164-3.1546-3.5427-2.6659-1.6037.4069-3.0193,2.0491-4.1861,3.1668-1.3308,1.2749-2.5838,2.6327-3.7467,4.0624-1.1569,1.4224-2.2399,2.9063-3.2222,4.4547-.4607.7262-.9,1.4661-1.3169,2.2183-.4569.8244-.9685,1.5891-.6903,2.5551.1396.4851.7132.8831,1.2247.6953h0Z"/>
    <path class="cls-2" d="m437.6055,433.7153c2.4382,1.9215,5.2131,3.4375,7.7146,5.2918,1.1976.8877,2.3887,1.789,3.5494,2.7245.6137.4946,2.3218,1.6786,2.0598,2.6445-.2064.7608-2.2031,1.237-2.8406,1.5331-1.285.5967-2.5319,1.2667-3.7193,2.0402-2.4172,1.5745-4.5861,3.3786-6.4396,5.5912-1.2647,1.5097.6927,3.536,2.1821,2.1821,2.355-2.1407,4.8532-4.1,7.5769-5.7493,2.3472-1.4213,6.5349-2.4293,6.477-5.8258-.0546-3.2029-3.7673-5.463-6.0323-7.1408-2.8169-2.0867-5.8578-4.3806-9.1027-5.7398-1.3266-.5557-2.5455,1.5654-1.4252,2.4483h0Z"/>
  </g>
  <g id="notation">
    <path class="cls-2" d="m459.318,451.3863c-1.5468,2.569-2.4276,5.6423-3.5264,8.4286-1.075,2.726-2.2931,5.5879-2.0973,8.5833.1508,2.3076,1.1864,4.3547,3.0875,5.7077,1.3766.9798,4.4386,1.9369,5.598.1688.3702-.5646-.1385-1.1335-.6915-1.205-.8016-.1035-1.5035.3419-2.3515.1526-.8946-.1997-1.6829-.7408-2.3068-1.3971-1.5742-1.656-1.6764-3.9814-1.2561-6.1201.4477-2.2783,1.3677-4.4479,2.1787-6.6137.8824-2.3564,2.0258-4.7515,2.5076-7.2237.1317-.6756-.7612-1.1146-1.1423-.4816h0Z"/>
    <path class="cls-2" d="m450.4656,460.1717c.256.227.3271.5048.5401.7622.228.2755.5716.4588.9091.5631.61.1885,1.3159.2189,1.9456.3011,1.317.172,2.6427.2667,3.9709.2774,1.3531.011,2.6501-.1975,3.9766-.4456,1.318-.2465,2.5748-.6052,3.73-1.2948.4006-.2391.205-.8056-.2267-.8371-1.2665-.0924-2.5134.0149-3.7819.0738-1.2325.0572-2.4636.01-3.6981.0217s-2.4703-.0471-3.6983-.1774c-.6276-.0666-1.2739-.2387-1.9014-.2597-.2931-.0098-.5734.0544-.8372.1727-.3218.1444-.486.3827-.834.4835-.1476.0428-.2191.2489-.0948.3591h0Z"/>
    <path class="cls-2" d="m16.4046,13.0184c.0747,1.3798.398,2.7382.5114,4.1189.1101,1.3408.1202,2.685.1025,4.0294-.0176,1.3392-.1107,2.6814-.3023,4.0073-.1.6921-.213,1.3828-.3178,2.0742-.1004.662-.3412,1.3325-.1191,1.9843.2179.6396.9626.846,1.469.3878.5702-.5159.6882-1.3483.8808-2.0667.1812-.6758.292-1.3599.3894-2.0526.2021-1.4373.3247-2.8827.3438-4.3344.019-1.4445-.1246-2.8872-.3277-4.3161-.2056-1.4464-.4338-2.9255-1.0285-4.2659-.3484-.7853-1.6456-.3832-1.6014.4337h0Z"/>
    <path class="cls-2" d="m7.087,12.3596c3.5379,1.2049,7.1613,1.7504,10.8989,1.6314,1.8179-.0579,3.6246-.2821,5.406-.6482,1.6455-.3381,3.7323-.8036,5.0085-1.9615.5471-.4964.0982-1.3809-.58-1.4004-1.5916-.0456-3.3388.6598-4.8895,1.0013-1.6864.3713-3.4053.6107-5.1282.7258-3.4341.2293-6.961-.0417-10.3211-.7797-.9363-.2056-1.2987,1.1234-.3946,1.4314h0Z"/>
    <path class="cls-2" d="m37.703,3.6525c-.8415,1.2253-1.251,2.8368-1.7717,4.2222-.5661,1.5064-1.0803,3.0336-1.6148,4.5516-1.0071,2.8602-2.2005,5.7332-2.6006,8.7577-.3223,2.4367-.0298,4.9473,1.3449,7.0362.9106,1.3838,3.2413,3.4514,5.0799,2.7065.3136-.127.5173-.5461.2155-.8161-.6794-.6078-1.5756-.7678-2.2219-1.4746-.6339-.6932-1.2299-1.4038-1.6375-2.2584-1.0985-2.3033-.787-4.8935-.1394-7.2783.6869-2.5299,1.6535-4.9939,2.5182-7.4667.4249-1.215.8586-2.4266,1.2513-3.6525.4088-1.2759.9699-2.5797,1.0685-3.9236.0627-.855-1.0811-1.0029-1.4922-.4042h0Z"/>
    <path class="cls-2" d="m46.9305,9.5956c-.8707,2.1933-1.6203,4.4323-2.2305,6.7122-.3047,1.1385-.5757,2.286-.8124,3.4406-.2282,1.1135-.5752,2.3401-.4591,3.4829.1794,1.7658,1.5808,2.7736,3.2698,2.8923.7873.0553,1.6082-.0606,2.3644-.2787.7541-.2174,1.808-.4666,2.0713-1.2943.093-.2923-.0558-.7265-.3501-.8602-.6861-.3118-1.2895.0464-1.9735.2067-.6071.1422-1.2366.2455-1.8623.2086-.4202-.0248-.9327-.1087-1.2117-.4586-.4174-.5235-.1436-1.4071-.048-1.9964.6391-3.9419,1.6829-7.8089,3.0877-11.5462.4365-1.1613-1.3982-1.636-1.8457-.5088h0Z"/>
    <path class="cls-2" d="m40.7837,18.1894c2.5663-1.1319,5.4788-.8836,8.17-.4302.4369.0736.6744-.4522.301-.714-2.6869-1.8833-6.3157-1.3477-9.0231.1998-.6256.3576-.0767,1.2218.552.9444h0Z"/>
    <path class="cls-2" d="m51.818,1.7213c.9856.9425,2.0747,1.7373,2.9196,2.8257.8402,1.0823,1.4938,2.332,1.9711,3.6134.9589,2.5742,1.2593,5.371.9397,8.0964-.3733,3.1828-1.6275,6.3006-3.1288,9.1077-.7991,1.4943-1.8646,2.88-2.6183,4.3867-.7529,1.505-1.7028,2.9496-2.3852,4.4981-.1754.3979.2402,1.0444.6948.6948,2.8985-2.2296,5.1921-5.3468,6.9349-8.5352,1.7784-3.2536,3.0361-6.7843,3.3147-10.501.2353-3.1387-.2815-6.3554-1.543-9.2404-1.1657-2.6658-3.3132-5.5797-6.1302-6.6112-.9521-.3486-1.6587,1.0054-.9691,1.6649h0Z"/>
    <path class="cls-2" d="m8.7206,279.4889c.0662,3.3309.2172,6.6601.2342,9.9922.0083,1.6356-.0078,3.2714-.0483,4.9065-.0203.8192-.037,1.6332-.0265,2.4525.0104.815-.1094,1.6332.3355,2.349.3923.6312,1.1774.5469,1.5853,0,.4904-.6576.4216-1.5575.4856-2.349.061-.755.09-1.5064.101-2.2638.0246-1.6983.0228-3.397-.0053-5.0952-.0553-3.3425-.1875-6.6727-.5911-9.9922-.156-1.2829-2.0975-1.3691-2.0703,0h0Z"/>
    <path class="cls-2" d="m3.0438,278.7206c.3613.3245.6042.4064,1.0623.5235-.1473-.29-.0704-.2763.2305.0411l.3574.1508c.7362.238,1.6022.145,2.3682.1806,1.5864.0736,3.17.207,4.7465.3991,1.4917.1818,2.9761.4324,4.4491.7291.7516.1513,1.5004.3163,2.246.4948.839.2009,1.6796.559,2.5301.2572,1.008-.3576,1.2964-1.4761.6033-2.2851-.5525-.6448-1.3568-.7567-2.1429-.9472-.7451-.1806-1.4936-.3473-2.2447-.5006-1.464-.2987-2.9378-.5413-4.4184-.7408s-2.9659-.3568-4.4568-.4569c-1.4506-.0974-3.3406-.5144-4.5127.5214l.9016-.3735c-.7216.0923-1.1392.0115-1.7194.5391-.3991.3629-.4029,1.1055,0,1.4674h0Z"/>
    <path class="cls-2" d="m24.8149,294.1166c-.648.7265-1.0302,1.5813-1.4078,2.4704-.3545.8348-.6663,1.6839-.9131,2.5571-.4627,1.6369-.9382,3.5488-.5594,5.2457.4248,1.9028,2.3884,2.9418,4.2011,2.2271.8271-.3261,1.7781-.9184,2.243-1.7128.176-.3008.3315-.5912.5702-.9459.0923-.1372.1838-.2767.2816-.4099.1869-.2547.2444-.4766.3602-.7546l-.2468.4234c.1626-.2057.3341-.3934.529-.5687.5841-.5254-.0289-1.6761-.7981-1.3711-.2944.1167-.5811.2694-.8635.3926-.4222.1842-.6987.4066-1.0284.7265-.4962.4815-.8586.8582-1.3996,1.2859.1045-.0826-.2002.1271-.232.1457.0124-.0073-.4118.1947-.2295.1243-.1361.0525-.2908.0978-.4369.1145.1303-.0212.1097-.0259-.0616-.0141.111.0259.1172.0271.0184.0036-.0225-.0046-.1053-.0324-.1048-.0323.0654.0536.0441.0301-.0639-.0703.076.1064.07.0914-.0183-.045-.1149-.2333-.0124.108-.0667-.1777-.0082-.0433-.0843-.4247-.0547-.1982-.1721-1.3159.2153-2.7955.5553-4.0547.1914-.7088.4221-1.4069.6902-2.0904.2899-.739.6754-1.4236.8969-2.1882.3001-1.036-1.109-1.9259-1.8607-1.0832h0Z"/>
    <path class="cls-2" d="m24.6464,284.7784c1.6589,0,1.6616-2.5781,0-2.5781-1.6589,0-1.6616,2.5781,0,2.5781h0Z"/>
    <path class="cls-2" d="m116.4583,80.1571c1.6793,7.0635,1.8722,14.5758.2688,21.6675-.2596,1.1483,1.4533,1.6324,1.7704.4881.6495-2.3438,1.3807-5.3095,3.6947-6.5657,2.0741-1.126,4.8233-.3767,4.683,2.3352-.1238,2.3919-2.0894,3.8513-4.1101,4.7473-1.216.5392-2.511.9004-3.7797,1.2912-1.5191.468-2.9811,1.0722-4.4746,1.6142-1.0739.3897-.6607,2.0162.4777,1.7327,3.6187-.9011,7.871-1.5354,10.9524-3.8033,2.2537-1.6588,3.7389-4.6041,2.7702-7.4011-.9732-2.8102-4.116-3.6005-6.6745-2.5132-3.2744,1.3916-4.4335,4.9137-5.3094,8.0747l1.7704.4881c1.6939-7.492,1.3698-15.1398-1.2858-22.3632-.1715-.4664-.8713-.2887-.7533.2077h0Z"/>
    <path class="cls-2" d="m135.9659,98.9926c.6838-.5052,1.9034-.6176,2.4327.1903.5804.886-.3939,2.1085-1.3328,2.1113v2.0701c.7775-.028,1.1894.7394,1.3001,1.4337.1691,1.0609-.4923,1.9036-1.2908,2.5275-2.2765,1.7787-5.4132,2.147-7.447,4.2821-.2934.308-.1037.9375.3729.9002,2.0242-.1582,3.8211-1.2263,5.6065-2.1092,1.4445-.7143,2.889-1.5359,3.8423-2.8753,1.5703-2.2062.7417-6.1207-2.384-6.2292-1.3404-.0465-1.3185,1.9807,0,2.0701,2.6062.1766,4.6342-2.8098,3.4631-5.1511-1.0273-2.0539-4.303-2.689-5.7938-.8157-.3189.4008-.4121.9024-.0794,1.3335.2817.365.902.5632,1.3102.2616h0Z"/>
    <path class="cls-2" d="m109.782,111.2162c-.2133,5.2775.5597,10.4912,2.2155,15.5066.7929,2.4017,1.8124,4.7289,3.0036,6.9595,1.2382,2.3185,2.6153,4.7245,4.4859,6.5885.5941.592,1.5974-.1661,1.1657-.8994-1.2437-2.1126-2.7316-4.06-3.9175-6.2157-1.2482-2.2692-2.2961-4.6454-3.1685-7.0833-1.7023-4.7566-2.6199-9.8109-2.8081-14.8562-.0234-.6284-.9511-.6288-.9766,0h0Z"/>
    <path class="cls-2" d="m113.0014,136.7848c-.4331.6457-.4263,1.265-.1495,1.9853.2449.6372.6231,1.229,1.1286,1.692,1.0549.9661,2.5535,1.5092,3.9826,1.3596,3.2036-.3353,5.3996-3.3617,5.9699-6.334.4165-2.1709.3179-4.5535-.1499-6.7118-.3026-1.3961-2.5458-1.0914-2.4937.3375.0708,1.9428.4992,3.865.212,5.817-.2108,1.4327-.8094,2.8092-1.8885,3.7983-.9253.8482-2.1986,1.2018-3.3851.7159-.518-.2122-1.0188-.5731-1.3663-1.0155-.1651-.2102-.2932-.4531-.3713-.7078-.1077-.351-.2749-.6132-.4432-.9365-.2224-.4274-.8067-.3562-1.0456,0h0Z"/>
    <path class="cls-2" d="m179.9535,52.1956c.2446,3.1469.6837,6.2616.7577,9.4236.0743,3.1728.0296,6.3241-.2709,9.4857-.0998,1.0503,1.5237,1.4529,1.9841.5374,1.2197-2.4253,2.4393-4.8506,3.6591-7.2758l-1.4697.3854c1.7997,1.1223,3.6874,2.383,5.1251,3.9619,1.3679,1.5022,1.4711,3.3428.3774,5.0453-1.0797,1.6809-2.951,2.5783-4.7859,3.1977-2.1189.7153-4.2866,1.2022-6.3895,1.9455-.5786.2045-.645,1.0657,0,1.243,2.6044.7161,5.5101-.4137,7.9515-1.3828,2.2646-.8989,4.3951-2.2825,5.4926-4.5375,1.0061-2.067.9425-4.3853-.4434-6.26-1.5587-2.1083-4.0419-3.7088-6.2435-5.0683-.4703-.2904-1.2143-.1255-1.4697.3854-1.2142,2.4285-2.4285,4.8569-3.6428,7.2854l1.9841.5374c.5799-6.255.5583-13.0282-1.2736-19.091-.2139-.7079-1.4048-.6159-1.3428.1817h0Z"/>
    <path class="cls-2" d="m199.5482,71.7683c.6338-.3539,1.3357-.6316,2.0593-.7298.0764-.0104.27-.0226.3887-.0239.0815-.0009.4101.0245.3397.0122.1024.0179.3562.0976.3622.1005.0923.045.1175.0573.2256.1939-.1162-.1468.098.2444.0457.1041.0777.2082.0718.1875.0609.3982.007-.1353-.0445.1855-.0717.2523.0503-.1236-.0495.0854-.0647.1101-.0466.0758-.1109.1855-.1492.2378-.4396.6001-1.1235,1.1062-1.6943,1.611-1.3446,1.1888-2.2488,2.8297-2.1472,4.6732.0982,1.7811,1.1536,3.3162,2.8836,3.85.465.1435.8817.0837,1.3107.0013.4484-.0861.8513-.1565,1.2718-.3496.7216-.3314,1.3721-.9165,1.5248-1.7194.0674-.3544-.3397-.6309-.6202-.3611-.7058.6789-1.425.9352-2.4002.8103l.414.112c-.5615-.2865-1.1379-.3397-1.6196-.6506-.4017-.2592-.7228-.7706-.858-1.2983-.3351-1.3076.2666-2.5728,1.2399-3.4297,1.048-.9226,2.3775-1.7291,2.8609-3.1146.4919-1.4097-.3772-2.9702-1.8147-3.33-1.4924-.3735-3.1644.267-4.4153,1.056-.9336.5889-.1029,2.0259.8675,1.4841h0Z"/>
    <path class="cls-2" d="m181.4977,87.0913c-3.1321,7.7762-2.6648,16.4356-.5488,24.4231,1.1101,4.1906,2.6407,8.2544,4.3167,12.248.8307,1.9795,1.6961,3.9441,2.572,5.904.5736,1.2836,1.2565,3.6445,2.9772,3.6761.296.0054.648-.2837.6055-.6055-.0978-.7404-.48-1.4052-.7598-2.0963-.3434-.848-.7567-1.6732-1.1308-2.5085-.865-1.9313-1.7221-3.8667-2.5335-5.8213-1.5396-3.709-2.9356-7.4855-3.971-11.3688-2.049-7.6847-2.6577-15.829-.5103-23.5703.1861-.6708-.77-.8938-1.017-.2804h0Z"/>
    <path class="cls-2" d="m183.2764,127.5419c-1.172,2.3897.5103,5.3097,3.0298,5.897,2.9341.6839,5.7933-1.3414,6.988-3.9311.7208-1.5625,1.1742-3.4534,1.0215-5.1787-.0493-.5569-.4405-1.0352-1.0352-1.0352-.6178,0-.9647.4779-1.0352,1.0352-.1875,1.4829-.1973,2.9566-.8303,4.348-.5463,1.2009-1.4662,2.2528-2.7154,2.7457-1.0789.4258-2.3218.378-3.2019-.4369-.7923-.7336-1.2264-1.815-.8292-2.8571.3059-.8025-1.0132-1.3598-1.3922-.5869h0Z"/>
    <path class="cls-2" d="m243.7741,184.7673c.1119,5.9342.5075,11.8246,1.1771,17.722.1114.981,1.4118,1.5317,1.982.5368,1.3282-2.3178,2.6582-4.6346,3.976-6.9584l-1.2369.5034c1.8816.2643,3.2269,1.636,3.7515,3.437.589,2.0222-.1617,4.098-1.4954,5.6536-1.4374,1.6766-3.3952,2.7436-5.4811,3.3957-1.1262.3521-2.2818.5991-3.4442.7969-1.1583.1972-2.3929.2391-3.4549.7663-.6784.3368-.5259,1.4871.2146,1.6421,1.4333.3001,3.0655-.1103,4.4871-.3804,1.4947-.2839,2.963-.6772,4.3692-1.2626,2.4353-1.0138,4.658-2.6652,6.0178-4.9632,2.389-4.0372.8361-10.4723-4.3822-11.1978-.4842-.0673-.9769.0433-1.2369.5034-1.3147,2.3259-2.617,4.6587-3.9212,6.9905l1.982.5368c-.73-5.8852-1.2944-11.8058-1.7027-17.722-.0702-1.0172-1.6212-1.0412-1.6016,0h0Z"/>
    <path class="cls-2" d="m259.9055,207.5874c-1.2375,1.9377-1.8698,4.0483-1.9478,6.3443-.037,1.089.0062,2.2713.3168,3.3206.2816.9514.721,2.3448,1.7293,2.7387.3533.138.6699-.1575.7928-.4502.169-.4022.0418-.9833-.0019-1.4128-.0438-.4303-.1574-.8526-.2149-1.2818-.1304-.9732-.2683-1.929-.2554-2.9145.0238-1.8119.4121-3.7722,1.1326-5.4374.4494-1.0386-.9128-1.9071-1.5515-.9069h0Z"/>
    <path class="cls-2" d="m229.039,185.1022c-3.2742-.748-6.3756-1.759-9.2744-3.4825-2.8897-1.7181-5.436-3.9793-7.5383-6.6008-2.2756-2.8376-4.0904-6.0947-5.4932-9.4437-.7166-1.7107-1.3298-3.4657-1.8661-5.2408-.4929-1.6315-.6823-3.5385-1.6208-4.9631-.1414-.2146-.5564-.2231-.6069.0793-.2892,1.7343.4012,3.584.8489,5.2639.5134,1.926,1.1195,3.829,1.8424,5.687,1.389,3.57,3.1842,6.9358,5.5725,9.9405,4.2231,5.313,10.9127,10.1403,17.9801,9.9111.6386-.0207.8227-.9986.1558-1.1509h0Z"/>
    <path class="cls-2" d="m198.9575,161.1181c.7401-2.9126,1.1143-5.8419,1.5197-8.816l-1.3754.5596c2.3846,1.7562,4.7771,3.502,7.1658,5.2527,1.1744.8607,2.3507,1.7177,3.5352,2.5643.9692.6927,2.3452,2.1103,3.6517,1.7334.2293-.0662.4285-.2976.4158-.5462-.071-1.3984-1.8622-2.2412-2.8648-2.9578-1.1831-.8456-2.3723-1.6814-3.5654-2.5127-2.4643-1.7171-4.9249-3.4394-7.3932-5.1507-.6323-.4384-1.3564.1623-1.4089.8085-.2435,3.0018-.5065,5.9526-.4095,8.9663.0131.4085.6229.516.7289.0987h0Z"/>
    <path class="cls-2" d="m181.2169,69.1926c-.2853.3895-.4396.7192-.5406,1.193-.0795.3728-.1512.7472-.215,1.123-.1357.8002-.2403,1.6071-.3108,2.4156-.0687.7877-.1034,1.5784-.1031,2.3691.0003.817.0441,1.6612.7492,2.1844.1579.1172.4142.0592.5444-.0702.5764-.5732.5134-1.3608.4956-2.1142-.0187-.7899-.0031-1.5805.0469-2.3691.0469-.74.1216-1.4788.235-2.2117.0584-.3775.1247-.7537.199-1.1283.0881-.4446.0401-.8095-.0296-1.2516-.0874-.5545-.8101-.496-1.0709-.14h0Z"/>
    <path class="cls-2" d="m6.5772,95.9373c-.156,1.3211.0489,2.6638.1077,3.9867.0616,1.3848.0722,2.7718.0327,4.1575-.0382,1.337-.1353,2.6678-.2533,3.9998-.1185,1.3381-.3896,2.6599-.1587,3.99.0914.5265.9085.6083,1.1423.1493.6233-1.2235.6821-2.6299.7977-3.9858.1176-1.3791.1516-2.7697.1502-4.1533-.0014-1.3871-.0532-2.7741-.1556-4.1575-.102-1.3772-.1587-2.8226-.6656-4.1217-.2134-.5467-.9294-.4416-.9975.135h0Z"/>
    <path class="cls-2" d="m.5643,94.8178c2.5706.97,5.197,1.6541,7.904,2.1227,1.3179.2281,2.6456.4089,3.9764.543.6704.0675,1.3341.0883,2.0078.0886.6852.0002,1.3588.0763,1.9748-.2585.5272-.2866.4864-1.0527,0-1.3492-.5526-.3368-1.2018-.2975-1.8312-.361-.6702-.0677-1.3365-.1493-2.0082-.2017-1.2945-.1009-2.5849-.2491-3.8674-.4521-2.599-.4114-5.1836-1.0165-7.7201-1.7138-1.036-.2848-1.4071,1.2156-.4361,1.582h0Z"/>
    <path class="cls-2" d="m21.5293,105.7833c-2.3502-.5148-4.579-.1663-6.4984,1.3464-1.7081,1.3461-2.6683,3.4331-2.1291,5.5979.4919,1.9747,2.1909,3.879,4.3187,4.0065,2.2288.1336,3.7276-1.6638,4.5537-3.5177.9783-2.1956,1.6492-4.2797,4.0114-5.3602,2.071-.9473,4.5042-.6606,6.1653.9348,1.3909,1.3359,2.7356,4.3352,1.2011,6.0652-1.3773,1.5528-4.7058-2.707-5.5297-3.6444-1.8944-2.1553-3.7061-4.5037-6.3585-5.7706-2.7612-1.3189-6.0818-1.7442-8.479.4915-.5987.5583-.6087,1.5316-.1283,2.1542.536.6946,1.3537.7551,2.1164.4226,4.7851-2.0864,8.4093,3.3194,11.382,6.0462,1.6822,1.5431,4.408,3.7716,6.8792,3.1626,2.2306-.5497,3.2541-3.0029,3.1643-5.1129-.2035-4.7799-4.6838-8.3907-9.3762-7.5461-2.2299.4014-4.2673,1.7437-5.5267,3.6233-1.0747,1.6039-1.2848,4.3657-2.9859,5.4637-2.0461,1.3206-3.7652-2.0314-3.0469-3.6937.9519-2.203,4.1242-3.0383,6.2666-3.3885.6517-.1065.615-1.146,0-1.2807h0Z"/>
  </g>
  <g id="lines">
    <path class="cls-3" d="m41.2109,295.4658c.0643,0,.0645-.1,0-.1-.0643,0-.0645.1,0,.1h0Z"/>
    <path class="cls-3" d="m41.6937,292.7825c15.5166-30.0541,36.8512-56.6365,62.1314-79.0455,25.3623-22.4817,54.3169-40.7883,84.982-55.1354,32.0387-14.9898,65.6237-27.3888,99.9867-35.8516,34.7556-8.5596,70.2214-12.7771,105.726-16.8103,12.7513-1.4485,25.5036-2.6297,38.2751-3.8841,4.3311-.4254,8.6348-.985,12.9413-1.6102.5684-.0825.4301-1.018-.135-.9975-14.6856.532-29.4194,1.7176-44.0264,3.3838-34.3039,3.9129-68.5897,7.7168-102.3072,15.3809-34.5285,7.8485-67.876,19.6177-100.2977,33.7777-31.255,13.6505-60.8814,30.9974-87.2569,52.691-25.8672,21.2755-48.9565,46.8888-65.3819,76.2023-2.0577,3.6722-4.0168,7.3976-5.8853,11.1695-.4104.8284.8192,1.5601,1.248.7295h0Z"/>
    <path class="cls-3" d="m39.9961,288.8269c4.7987-14.3199,9.7314-28.4215,16.6744-41.8802,6.8278-13.2353,14.9738-25.8122,24.5018-37.267,9.5417-11.4712,20.4401-21.8564,32.6065-30.5135,5.91-4.2053,12.1053-8.0291,18.5741-11.3144,7.6721-3.8963,15.6576-7.217,23.493-10.7699,31.6633-14.3572,63.6818-28.4213,97.496-36.9383,17.1406-4.3173,34.5138-6.6403,52.0144-8.9137,13.8863-1.8038,27.766-3.6686,41.6704-5.3298,27.2628-3.2572,54.589-5.1185,82.0098-6.4022,4.5783-.2143,9.1326-.5397,13.6958-.968,1.379-.1294,1.4327-2.1582,0-2.1875-16.4361-.3357-32.9723.9028-49.3644,2.0524-12.737.8933-25.4517,2.0626-38.1395,3.4929-13.4558,1.5169-26.8864,3.2656-40.3061,5.0716-17.1323,2.3056-34.3647,4.1929-51.2746,7.8589-34.1024,7.3931-66.4076,20.7888-98.1068,35.0913-15.3971,6.9471-31.2736,13.4268-45.5654,22.5181-12.4584,7.925-23.7717,17.6171-33.7589,28.4793-20.1759,21.9435-35.2996,48.6933-44.1498,77.1355-1.0905,3.5045-2.0155,7.0012-2.7487,10.5974-.0903.443.5336.6179.678.1869h0Z"/>
    <path class="cls-3" d="m39.3515,288.6701c3.2387-32.4996,15.6053-63.7058,34.4941-90.2656,19.2551-27.0749,45.0152-49.0168,74.7084-63.8753,14.9409-7.4765,30.6012-13.3843,46.6691-17.9388,16.7492-4.7477,33.7983-7.622,50.9235-10.5998,9.5911-1.6677,19.1805-3.3641,28.8246-4.7023,9.7745-1.3563,19.5632-2.0787,29.4088-2.6549,9.7313-.5695,19.4625-1.139,29.1938-1.7086,15.1002-.8837,30.2007-1.9693,45.3282-2.2203,16.5751-.2751,33.1494.2779,49.725.1848,4.7105-.0265,9.4032-.1492,14.1053-.4355,1.6682-.1016,1.6993-2.6007,0-2.6172-17.4955-.1692-35.0084-.2349-52.506-.2686-16.8341-.0324-33.5967.9397-50.3949,1.9182-9.159.5335-18.3181,1.067-27.4771,1.6005-8.5636.4988-17.1482.8545-25.6855,1.7076-9.8155.9808-19.5707,2.4896-29.2947,4.1308-17.9036,3.0219-35.9156,5.7422-53.544,10.1504-16.3804,4.0961-32.4517,9.4815-47.8346,16.4624-30.5487,13.8633-57.4824,34.7512-78.0581,61.2772-19.7839,25.5053-34.1294,55.9359-38.6869,88.048-.5565,3.9207-.9761,7.8576-1.2661,11.8069-.0649.8843,1.2812.8633,1.3672,0h0Z"/>
  </g>
  <g id="lines2">
    <path class="cls-2" d="m44.5331,104.6981l3.4952.3729c.5614.0599,1.1189.1122,1.6829.1402l.9062.0449c.3417.0169.5833.0268.8631-.2046.1523-.1259.1931-.4296.0763-.5917-.2146-.298-.4368-.3437-.7756-.4144l-.8871-.1853c-.5525-.1154-1.1046-.2055-1.6627-.2894l-3.4749-.5222c-.4967-.0747-.9743.1526-1.0481.6982-.0725.5364.3226.8979.8248.9515h0Z"/>
    <path class="cls-2" d="m62.4133,104.828l2.319.0318c.7692.0106,1.5538.0682,2.319-.0123.326-.0343.3266-.4734,0-.5078-.7652-.0806-1.5498-.0229-2.319-.0123l-2.319.0318c-.3016.0041-.3021.4646,0,.4688h0Z"/>
    <path class="cls-2" d="m76.0903,104.8087l2.016.3846c.3359.0641.6713.1322,1.008.1923.3875.0692.7797.0574,1.1721.0629.3796.0053.6989-.294.7481-.6605.0523-.3895-.1834-.7084-.5456-.8358-.3197-.1124-.6408-.2544-.9756-.3098l-.9757-.1615-1.9904-.3295c-.4418-.0731-.9467.1153-1.0571.6002-.0965.4238.128.9671.6002,1.0571h0Z"/>
    <path class="cls-2" d="m90.9041,105.3554l3.3778.1328c.5619.0221,1.1266.0622,1.6889.0603.6067-.002,1.1733-.0828,1.7667-.2015.7452-.149.7457-1.3576,0-1.5067-.5937-.1187-1.16-.1974-1.7667-.2015-.5621-.0038-1.1272.0383-1.6889.0603l-3.3778.1328c-.9798.0385-.9815,1.4849,0,1.5234h0Z"/>
    <path class="cls-2" d="m105.4808,105.3163l2.0267.063c.3373.0105.676.0313,1.0134.0315.3697.0003.7553-.0876,1.1223-.1392.2896-.0407.5287-.3999.5162-.678-.0126-.2816-.2063-.6344-.5162-.678-.3669-.0516-.7527-.1419-1.1223-.1392-.3376.0025-.6759.021-1.0134.0315l-2.0267.063c-.3775.0117-.7405.324-.7227.7227.018.4016.3175.7101.7227.7227h0Z"/>
    <path class="cls-2" d="m145.9052,105.9608l4.3842.456c.7327.0762,1.4552.1521,2.1921.1623.7354.0102,1.3976-.1094,2.1169-.2522.3773-.0749.2871-.5626,0-.678-.3594-.1445-.7215-.3196-1.0901-.4384-.317-.1022-.6561-.1378-.9841-.1952-.7414-.1298-1.4854-.1859-2.2348-.2488l-4.3842-.3682c-.421-.0354-.7812.3844-.7812.7812,0,.4588.3598.7374.7812.7812h0Z"/>
    <path class="cls-2" d="m164.4501,104.6928l2.7563.1693c.4614.0283.9159.0432,1.3782.0369l.6361-.0087c.3548-.0048.6188-.1221.9342-.2678.5238-.2419.5238-1.141,0-1.3829-.3125-.1443-.5798-.2629-.9342-.2678l-.6361-.0087c-.4623-.0063-.9167.0086-1.3782.0369l-2.7563.1693c-.4107.0252-.7617.332-.7617.7617,0,.4334.3495.7364.7617.7617h0Z"/>
    <path class="cls-2" d="m187.6403,104.2451l3.4454.0499c.5816.0084,1.1447-.0484,1.7227-.1085.6222-.0647,1.2165-.0852,1.7928-.3446.4347-.1956.4347-.9511,0-1.1468-.5759-.2592-1.171-.2799-1.7928-.3446-.5777-.0601-1.1415-.117-1.7227-.1085l-3.4454.0499c-.5276.0076-.9766.4434-.9766.9766,0,.5358.447.9689.9766.9766h0Z"/>
    <path class="cls-2" d="m205.5299,103.3677c1.1268.1075,2.2483.2146,3.3791.2659,1.1546.0524,2.3501.074,3.4751-.199.8186-.1986.8193-1.4586,0-1.6574-1.1251-.273-2.3204-.2513-3.4751-.199-1.1308.0513-2.2524.1585-3.3791.2659-.9783.0933-.9802,1.43,0,1.5234h0Z"/>
    <path class="cls-2" d="m228.0575,100.1915c.5715.0606,1.1486.1514,1.7227.1775.5734.0261,1.1489.029,1.7227.0435.6326.016,1.104-.0687,1.7227-.1073l.7951-.0497c.3953-.0247.7172-.0604,1.0667-.2709.5184-.3122.5184-1.0707,0-1.3829-.3551-.2139-.6627-.2456-1.0667-.2709l-.7951-.0497c-.6186-.0387-1.0966-.1232-1.7227-.1073-.5738.0145-1.1493.0175-1.7227.0435-.5739.0261-1.1514.1168-1.7227.1775-.4825.0512-.8984.3763-.8984.8984,0,.5284.4138.847.8984.8984h0Z"/>
    <path class="cls-2" d="m248.5974,99.3531c1.6901.0805,3.3768.1578,5.0687.1844.8349.0131,1.6517-.1267,2.4847-.1922.8347-.0656,1.6917-.0693,2.4995-.3005.4085-.1169.4089-.7116,0-.8287-.8084-.2314-1.6642-.2348-2.4995-.3005-.8333-.0655-1.6492-.2053-2.4847-.1922-1.6919.0266-3.3786.1039-5.0687.1844-.9294.0443-.931,1.401,0,1.4453h0Z"/>
    <path class="cls-2" d="m267.1495,98.7296l3.3791.0664,1.6564.0326c.265.0052.5301.0104.7951.0156.3335.0066.6677-.0923.9924-.1606.7077-.149.7082-1.2823,0-1.4314-.3028-.0637-.6164-.1538-.9261-.1619-.2858-.0075-.5753.0113-.8613.0169l-1.6564.0326-3.3791.0664c-.9801.0193-.9817,1.5041,0,1.5234h0Z"/>
    <path class="cls-2" d="m287.6996,97.7259l3.7044-.4031c1.2545-.1365,2.598-.1935,3.7852-.6339.9197-.3413.717-1.5351-.2233-1.6497-1.1983-.146-2.4393.0894-3.6332.2391l-3.6332.4554c-.5337.0669-.9961.4099-.9961.9961,0,.4934.4579,1.0547.9961.9961h0Z"/>
    <path class="cls-2" d="m307.5667,96.7224c.9193.0695,1.8382.1394,2.7563.2227.4587.0416.9177.0372,1.3782.0419.5359.0055,1.0142.0529,1.5068-.1972l-.4732.128c1.2017-.0727,2.4029-.1707,3.5596-.5232.4081-.1244.4086-.7042,0-.8287-1.1569-.3525-2.3578-.4505-3.5596-.5232l.4732.128c-.4926-.2502-.9709-.2028-1.5068-.1972-.4605.0047-.9194.0003-1.3782.0419-.9182.0833-1.837.1532-2.7563.2227-.9538.0721-.9556,1.4121,0,1.4844h0Z"/>
    <path class="cls-2" d="m328.7691,96.6638l5.0687.1449c1.6711.0478,3.4142.1547,5.062-.1316.6897-.1198.6901-1.2738,0-1.3937-1.6476-.2863-3.3911-.1794-5.062-.1316l-5.0687.1449c-.8794.0251-.8809,1.342,0,1.3672h0Z"/>
    <path class="cls-2" d="m352.6219,96.3137l4.1314.0468c.6789.0077,1.3487-.005,2.0267-.0414.679-.0365,1.6098.0752,2.1872-.3269.5007-.3487.5007-1.0005,0-1.3492-.5657-.3939-1.4458-.2871-2.1092-.3227-.7041-.0378-1.3995-.0536-2.1047-.0456l-4.1314.0468c-1.2818.0145-1.2839,1.9776,0,1.9922h0Z"/>
    <path class="cls-2" d="m371.8366,94.8518l4.1345.1523c.6893.0254,1.3782.0237,2.0672-.0131.6663-.0356,1.5766.0707,2.1435-.3241.5007-.3487.5007-1.0005,0-1.3492-.5711-.3977-1.4733-.2883-2.1435-.3241-.689-.0368-1.378-.0385-2.0672-.0131l-4.1345.1523c-1.1054.0407-1.1073,1.6779,0,1.7188h0Z"/>
    <path class="cls-2" d="m392.3765,94.1502l4.055.0816c1.3678.0275,2.7442.0481,4.0933-.1863.7083-.1231.7088-1.3082,0-1.4314-1.3491-.2344-2.7254-.2138-4.0933-.1863l-4.055.0816c-1.0555.0213-1.0572,1.6193,0,1.6406h0Z"/>
    <path class="cls-2" d="m412.0346,93.5086c.348.0749.6798.1576,1.038.1467.3184-.0098.6357-.0225.9544-.0207.6154.0033,1.2305.039,1.8422.106.6007.0659,1.1321.1153,1.6645.2042.3152.0526.6262.1213.9395.1831.3634.0717.7134.0687,1.0822.0751.9322.0162,1.2202-1.2431.4633-1.7106-.3308-.2044-.6483-.3968-1.0281-.4983-.3295-.0881-.6614-.1667-.9955-.2354-.6776-.1392-1.3665-.2535-2.0579-.2861-.6364-.03-1.2744-.0256-1.9103.0131-.3188.0194-.6371.0472-.9544.084-.4641.054-.8255.1982-1.2386.4038-.6361.3165-.4897,1.3865.2006,1.535h0Z"/>
    <path class="cls-2" d="m430.8098,93.3717c1.7729.0189,3.5585.0198,5.3269.1597.4064.0322.8206.1088,1.2279.1053.4771-.004.9477-.0743,1.428-.0688.8728.0101,1.762.1304,2.6321.0841.372-.0198.6019-.579.207-.7643-.8241-.3867-1.7572-.5806-2.6399-.7913-.456-.1088-.9121-.2671-1.3704-.3572-.4509-.0887-.9248-.0803-1.3823-.0915-1.8935-.0466-3.7464.0515-5.6058.4196-.7492.1483-.5553,1.2966.1765,1.3044h0Z"/>
    <path class="cls-2" d="m197.7619,270.3654c-.3539,1.2382-.2856,2.6451-.3987,3.9265-.1279,1.4498-.2429,2.901-.38,4.35-.2724,2.8774-.6226,5.7462-1.0466,8.6051l1.9713.2668c-.0149-1.6843.3091-3.6747,1.533-4.9329,1.5314-1.5743,3.8112-.6199,4.5732,1.2426.8397,2.0524-.5828,4.2722-2.2923,5.3607-1.0062.6406-2.1578.9998-3.3298,1.1884-1.0857.1747-2.4966.0198-3.4436.6217-.4421.2809-.412.86,0,1.1468,1.2341.8588,3.4943.3815,4.8589.0341,1.4699-.3742,2.8642-1.0463,4.0025-2.057,2.1803-1.9359,3.2666-5.2176,1.6571-7.8463-1.4322-2.339-4.462-3.3511-6.7957-1.6784-2.1258,1.5236-2.8197,4.4426-2.7705,6.9203.0214,1.0794,1.8121,1.4276,1.9713.2668.3978-2.9004.7335-5.808.9848-8.7249.1247-1.4477.2419-2.8971.2993-4.3491.0556-1.4062.2738-2.9567-.0005-4.3412-.1435-.7244-1.2076-.651-1.3937,0h0Z"/>
    <path class="cls-2" d="m211.8385,288.1513c1.3651-.1301,2.7057-.3131,4.058-.5399l-1.2434-1.6174c-1.0632,1.5346-1.9527,3.2006-2.8825,4.8193-.3824.6658.4084,1.5537,1.0956,1.0956.7843-.5227,1.7372-.0734,2.2645.6203.6668.8772.4107,1.9973-.2426,2.8081-.808,1.0026-2.0362,1.5176-3.2839,1.6972-.7541.1086-1.5292.098-2.2884.0651-.7802-.0338-1.718-.2258-2.4348.1438-.4636.239-.369.8528,0,1.1131.4424.312,1.0636.3198,1.5894.3715.4892.0481.987.064,1.4784.0697,1.0419.012,2.1189-.0679,3.1219-.3676,1.5558-.4648,3.0417-1.5418,3.7166-3.0517.6576-1.4712.4383-3.1162-.7404-4.255-1.0527-1.0171-2.7067-1.4643-3.9891-.5974l.9704,1.2577c1.1979-1.5343,2.4611-3.0489,3.5262-4.6783.5654-.8651-.3648-1.7892-1.2434-1.6174-1.2549.2453-2.4824.5257-3.7167.8601-.967.262-.8135,1.9039.244,1.8031h0Z"/>
    <path class="cls-2" d="m229.4814,275.2238c.6995.1926,1.3909.4146,2.0929.5976.6765.1763,1.368.2983,2.0464.4704,1.3899.3525,2.756.7893,4.0961,1.2988l-.7691-1.8905c-1.5812,3.5132-4.6791,5.9784-8.5009,6.6085-.6562.1082-1.0222.9213-.8594,1.5136.1949.7092.8528.9517,1.5136.8594,4.5368-.6334,8.4606-3.7804,10.1988-7.9899.2762-.6688-.3066-1.3824-.8988-1.583-1.3858-.4696-2.7961-.8616-4.2276-1.1657-1.4963-.3179-2.9347-.4667-4.4636-.4073-.9517.037-1.1875,1.424-.2285,1.6881h0Z"/>
    <path class="cls-2" d="m247.8223,268.2838c-.3673,1.2442-.1533,2.7695-.1159,4.0563.0391,1.3471.0126,2.6961-.0767,4.0408-.183,2.7576-.6519,5.4965-1.3367,8.1728-.3202,1.2515,1.434,2.5353,2.3504,1.3682,1.4525-1.8498,2.7965-3.7813,4.2478-5.6295l-1.5385.1985c1.0388.567,2.2273,1.1511,2.9392,2.1371.5792.8021.8167,2.0925-.1614,2.679-1.0818.6487-2.6.8304-3.8014,1.1666-1.515.424-3.0002.8504-4.4699,1.4133-1.3364.5118-.8295,2.4056.5919,2.147,2.1447-.3902,4.22-1.0188,6.3183-1.6061,1.5606-.4368,3.2706-.851,4.0992-2.3974.7378-1.377.543-3.1198-.2287-4.4408-.8956-1.5331-2.4941-2.4661-4.0057-3.2912-.4459-.2434-1.1901-.2451-1.5385.1985-1.4449,1.8401-2.9953,3.5948-4.4411,5.4361l2.3504,1.3682c.7323-2.8616,1.1663-5.776,1.2849-8.7282.0566-1.4103.0426-2.8242-.0421-4.2331-.0817-1.3587-.166-3.072-.8905-4.2569-.3791-.6199-1.329-.4973-1.535.2006h0Z"/>
    <path class="cls-2" d="m261.2695,287.9991c1.2275.3468,2.4543.6966,3.6828,1.0399l-.5952-1.463c-1.8275,2.8551-3.2749,5.8821-4.5768,9.007-.213.5114.3099.932.7452.9782,1.2035.1276,2.407.2552,3.6104.3828.4097.0434.7617-.3812.7617-.7617,0-.45-.3511-.7157-.7617-.7617-1.2035-.135-2.407-.2699-3.6104-.4049l.6673,1.1628c1.2857-3.0346,2.9934-5.9,4.8843-8.5972.3512-.501.0068-1.3495-.5952-1.463-1.2581-.2372-2.5174-.4677-3.7761-.7012-1.0242-.19-1.4671,1.2907-.4361,1.582h0Z"/>
    <path class="cls-2" d="m278.3113,273.2525c.7924.4015,1.5847.7316,2.4449.9494.8328.2109,1.6588.4484,2.4763.712,1.5897.5126,3.1415,1.125,4.651,1.8397l-.263-2.0411c-1.1818,1.2265-2.4227,2.3989-3.6836,3.5437-.6189.562-1.251,1.1095-1.8955,1.6419-.6829.5641-1.6614,1.0995-1.9723,1.9478-.2448.668.3923,1.4374,1.0732,1.4088.9253-.0389,1.7756-.8995,2.487-1.4451.703-.5391,1.3972-1.0891,2.076-1.6584,1.332-1.1172,2.5673-2.3301,3.7531-3.6008.5188-.5559.5329-1.6796-.263-2.0411-1.6656-.7564-3.3709-1.4238-5.1187-1.9654-.8205-.2542-1.6491-.4823-2.4841-.6836-.9661-.2329-1.8572-.3111-2.8476-.2092-.7682.079-1.269,1.1782-.4337,1.6014h0Z"/>
    <path class="cls-2" d="m301.2617,265.8254c-.1469.0916-.2616.0779-.3441-.0412-.1224-.1474-.1399-.0962-.0526.1538-.055.1755-.0444.4246-.07.6086-.0905.6498-.1972,1.2979-.2958,1.9465-.1882,1.2387-.3765,2.4774-.5647,3.7161-.3753,2.4693-.7791,4.9361-1.1008,7.4131h2.4787c.1259-1.3588,1.5055-2.4313,2.8191-2.4801,1.3881-.0515,2.3739,1.1568,2.5509,2.4532.5444,3.9893-4.944,3.209-7.2895,3.0689-1.0389-.0621-1.1811,1.4768-.2388,1.7648,2.2784.6963,5.1441.912,7.2939-.3122,2.0428-1.1633,2.902-3.5643,2.212-5.7889-.6906-2.2265-2.7387-3.771-5.1043-3.4807-2.5136.3084-4.4327,2.2856-4.7219,4.775-.1596,1.3743,2.2224,1.7102,2.4344.3295.56-3.6466.9827-7.3181,1.4635-10.976.1704-1.2965.9122-3.4871-.1919-4.5655-.9391-.9172-2.4692-.4301-2.6117.8627-.0714.6476.9243,1.0676,1.3337.5524h0Z"/>
    <path class="cls-2" d="m313.6745,283.5707l-1.0842,5.1496c-.1778.8445-.3505,1.6859-.4907,2.5376-.1375.8355-.4805,1.8486-.2502,2.6797.1313.4739.8624.7654,1.2078.3189.5284-.683.6114-1.5847.8041-2.4101.2037-.8723.3744-1.7466.5391-2.627l.969-5.1813c.2058-1.1006-1.4604-1.5816-1.695-.4673h0Z"/>
  </g>
</svg>