<?xml version="1.0" encoding="utf-8"?>
<!-- Generator: Adobe Illustrator 27.9.0, SVG Export Plug-In . SVG Version: 6.00 Build 0)  -->
<svg version="1.1" id="Layer_1" xmlns="http://www.w3.org/2000/svg" xmlns:xlink="http://www.w3.org/1999/xlink" x="0px" y="0px"
	 width="1120.5px" height="926.4px" viewBox="0 0 1120.5 926.4" style="enable-background:new 0 0 1120.5 926.4;"
	 xml:space="preserve">
<style type="text/css">
	.st0{fill:#FFFFFF;}
	.st1{fill:none;stroke:#262626;stroke-linejoin:round;stroke-miterlimit:10;stroke-opacity:0.149;}
	.st2{fill:none;stroke:#262626;stroke-linecap:square;stroke-linejoin:round;stroke-miterlimit:10;}
	.st3{fill:#262626;}
	.st4{fill:none;stroke:#0072BD;stroke-linejoin:round;stroke-miterlimit:10;}
	.st5{fill:none;stroke:#808080;stroke-linejoin:bevel;stroke-miterlimit:1;stroke-dasharray:10,6;}
</style>
<g>
	<g>
		<path class="st0" d="M63.8,856.4h1047V6.4H63.8V856.4z"/>
	</g>
	<g>
		<line class="st1" x1="63.8" y1="856.4" x2="63.8" y2="6.4"/>
		<line class="st1" x1="168.5" y1="856.4" x2="168.5" y2="6.4"/>
		<line class="st1" x1="273.1" y1="856.4" x2="273.1" y2="6.4"/>
		<line class="st1" x1="377.9" y1="856.4" x2="377.9" y2="6.4"/>
		<line class="st1" x1="482.5" y1="856.4" x2="482.5" y2="6.4"/>
		<line class="st1" x1="587.2" y1="856.4" x2="587.2" y2="6.4"/>
		<line class="st1" x1="692" y1="856.4" x2="692" y2="6.4"/>
		<line class="st1" x1="796.7" y1="856.4" x2="796.7" y2="6.4"/>
		<line class="st1" x1="901.3" y1="856.4" x2="901.3" y2="6.4"/>
		<line class="st1" x1="1006.1" y1="856.4" x2="1006.1" y2="6.4"/>
		<line class="st1" x1="1110.8" y1="856.4" x2="1110.8" y2="6.4"/>
		<line class="st1" x1="1110.8" y1="856.4" x2="63.8" y2="856.4"/>
		<line class="st1" x1="1110.8" y1="771.4" x2="63.8" y2="771.4"/>
		<line class="st1" x1="1110.8" y1="686.4" x2="63.8" y2="686.4"/>
		<line class="st1" x1="1110.8" y1="601.4" x2="63.8" y2="601.4"/>
		<line class="st1" x1="1110.8" y1="516.4" x2="63.8" y2="516.4"/>
		<line class="st1" x1="1110.8" y1="431.4" x2="63.8" y2="431.4"/>
		<line class="st1" x1="1110.8" y1="346.4" x2="63.8" y2="346.4"/>
		<line class="st1" x1="1110.8" y1="261.4" x2="63.8" y2="261.4"/>
		<line class="st1" x1="1110.8" y1="176.4" x2="63.8" y2="176.4"/>
		<line class="st1" x1="1110.8" y1="91.4" x2="63.8" y2="91.4"/>
		<line class="st1" x1="1110.8" y1="6.4" x2="63.8" y2="6.4"/>
		<line class="st2" x1="63.8" y1="856.4" x2="1110.8" y2="856.4"/>
		<line class="st2" x1="63.8" y1="6.4" x2="1110.8" y2="6.4"/>
		<line class="st2" x1="63.8" y1="856.4" x2="63.8" y2="845.9"/>
		<line class="st2" x1="168.5" y1="856.4" x2="168.5" y2="845.9"/>
		<line class="st2" x1="273.1" y1="856.4" x2="273.1" y2="845.9"/>
		<line class="st2" x1="377.9" y1="856.4" x2="377.9" y2="845.9"/>
		<line class="st2" x1="482.5" y1="856.4" x2="482.5" y2="845.9"/>
		<line class="st2" x1="587.2" y1="856.4" x2="587.2" y2="845.9"/>
		<line class="st2" x1="692" y1="856.4" x2="692" y2="845.9"/>
		<line class="st2" x1="796.7" y1="856.4" x2="796.7" y2="845.9"/>
		<line class="st2" x1="901.3" y1="856.4" x2="901.3" y2="845.9"/>
		<line class="st2" x1="1006.1" y1="856.4" x2="1006.1" y2="845.9"/>
		<line class="st2" x1="1110.8" y1="856.4" x2="1110.8" y2="845.9"/>
		<line class="st2" x1="63.8" y1="6.4" x2="63.8" y2="16.8"/>
		<line class="st2" x1="168.5" y1="6.4" x2="168.5" y2="16.8"/>
		<line class="st2" x1="273.1" y1="6.4" x2="273.1" y2="16.8"/>
		<line class="st2" x1="377.9" y1="6.4" x2="377.9" y2="16.8"/>
		<line class="st2" x1="482.5" y1="6.4" x2="482.5" y2="16.8"/>
		<line class="st2" x1="587.2" y1="6.4" x2="587.2" y2="16.8"/>
		<line class="st2" x1="692" y1="6.4" x2="692" y2="16.8"/>
		<line class="st2" x1="796.7" y1="6.4" x2="796.7" y2="16.8"/>
		<line class="st2" x1="901.3" y1="6.4" x2="901.3" y2="16.8"/>
		<line class="st2" x1="1006.1" y1="6.4" x2="1006.1" y2="16.8"/>
		<line class="st2" x1="1110.8" y1="6.4" x2="1110.8" y2="16.8"/>
	</g>
	<g transform="translate(176,936)">
		<path class="st3" d="M-117.4-57.7c0-1.7,0.2-3,0.5-4.1c0.3-1,0.9-1.8,1.6-2.4c0.7-0.6,1.6-0.8,2.6-0.8c0.8,0,1.4,0.2,2,0.5
			c0.6,0.3,1.1,0.8,1.4,1.3c0.4,0.6,0.7,1.3,0.9,2.1c0.2,0.8,0.3,2,0.3,3.4c0,1.7-0.2,3-0.5,4.1c-0.3,1-0.9,1.8-1.5,2.4
			c-0.7,0.6-1.5,0.9-2.6,0.9c-1.4,0-2.5-0.5-3.2-1.5C-116.9-53.1-117.4-55-117.4-57.7z M-115.6-57.7c0,2.4,0.3,3.9,0.8,4.7
			c0.5,0.8,1.2,1.2,2,1.2c0.8,0,1.5-0.4,2-1.2c0.6-0.8,0.8-2.3,0.8-4.7c0-2.4-0.3-3.9-0.8-4.7c-0.6-0.8-1.2-1.2-2-1.2
			c-0.8,0-1.5,0.3-1.9,1C-115.3-61.7-115.6-60-115.6-57.7z"/>
	</g>
	<g transform="translate(280.7,936)">
		<path class="st3" d="M-110.8-50.6h-1.8v-11.2c-0.4,0.4-1,0.8-1.7,1.2c-0.7,0.4-1.3,0.7-1.9,0.9v-1.7c1-0.5,1.9-1,2.6-1.7
			c0.7-0.7,1.3-1.3,1.6-1.9h1.1V-50.6z"/>
	</g>
	<g transform="translate(385.4,936)">
		<path class="st3" d="M-108.2-52.3v1.7h-9.5c0-0.4,0.1-0.8,0.2-1.2c0.2-0.6,0.6-1.3,1.2-1.9c0.5-0.6,1.3-1.3,2.3-2.2
			c1.6-1.3,2.6-2.3,3.2-3s0.8-1.5,0.8-2.1c0-0.7-0.2-1.3-0.8-1.8c-0.5-0.5-1.2-0.7-2-0.7c-0.8,0-1.5,0.3-2,0.8
			c-0.5,0.5-0.8,1.2-0.8,2.1l-1.8-0.2c0.1-1.3,0.6-2.4,1.4-3.1c0.8-0.7,1.9-1.1,3.3-1.1c1.4,0,2.4,0.4,3.2,1.1
			c0.8,0.8,1.2,1.7,1.2,2.8c0,0.6-0.1,1.1-0.4,1.7c-0.2,0.6-0.6,1.1-1.2,1.8c-0.5,0.6-1.4,1.5-2.7,2.5c-1.1,0.9-1.7,1.5-2,1.8
			c-0.3,0.3-0.5,0.6-0.7,1H-108.2z"/>
	</g>
	<g transform="translate(490.1,936)">
		<path class="st3" d="M-117.4-54.4l1.8-0.2c0.2,1,0.6,1.7,1,2.2c0.5,0.4,1.1,0.7,1.8,0.7c0.8,0,1.5-0.3,2.1-0.9s0.9-1.3,0.9-2.1
			c0-0.8-0.3-1.5-0.8-2c-0.5-0.5-1.2-0.8-2-0.8c-0.3,0-0.7,0.1-1.2,0.2l0.2-1.5c0.1,0,0.2,0,0.3,0c0.8,0,1.4-0.2,2-0.6
			c0.6-0.4,0.9-1,0.9-1.8c0-0.6-0.2-1.2-0.7-1.6c-0.4-0.4-1-0.6-1.7-0.6c-0.7,0-1.2,0.2-1.7,0.6c-0.5,0.4-0.7,1.1-0.9,1.9l-1.8-0.3
			c0.2-1.2,0.7-2.1,1.5-2.7c0.8-0.6,1.7-1,2.8-1c0.8,0,1.5,0.2,2.2,0.5s1.2,0.8,1.5,1.4c0.3,0.6,0.5,1.2,0.5,1.8
			c0,0.6-0.2,1.2-0.5,1.7c-0.3,0.5-0.8,0.9-1.5,1.2c0.8,0.2,1.5,0.6,2,1.2c0.5,0.6,0.7,1.4,0.7,2.3c0,1.2-0.5,2.3-1.4,3.2
			c-0.9,0.9-2.1,1.3-3.5,1.3c-1.3,0-2.3-0.4-3.1-1.1S-117.3-53.2-117.4-54.4z"/>
	</g>
	<g transform="translate(594.8,936)">
		<path class="st3" d="M-111.8-50.6V-54h-6.2v-1.6l6.5-9.3h1.4v9.3h1.9v1.6h-1.9v3.4H-111.8z M-111.8-55.7v-6.5l-4.5,6.5H-111.8z"/>
	</g>
	<g transform="translate(699.5,936)">
		<path class="st3" d="M-117.4-54.4l1.8-0.2c0.1,0.9,0.5,1.6,1,2s1.1,0.7,1.8,0.7c0.8,0,1.6-0.3,2.1-1c0.6-0.6,0.9-1.5,0.9-2.5
			c0-1-0.3-1.8-0.8-2.4c-0.6-0.6-1.3-0.9-2.2-0.9c-0.6,0-1.1,0.1-1.5,0.4s-0.8,0.6-1.1,1l-1.7-0.2l1.4-7.4h7.1v1.7h-5.7l-0.8,3.8
			c0.9-0.6,1.8-0.9,2.7-0.9c1.2,0,2.3,0.4,3.2,1.3c0.9,0.9,1.3,2,1.3,3.3c0,1.3-0.4,2.4-1.1,3.4c-0.9,1.2-2.2,1.8-3.8,1.8
			c-1.3,0-2.4-0.4-3.2-1.1C-116.8-52.2-117.3-53.2-117.4-54.4z"/>
	</g>
	<g transform="translate(804.2,936)">
		<path class="st3" d="M-108.3-61.4l-1.8,0.1c-0.2-0.7-0.4-1.2-0.7-1.5c-0.5-0.5-1.1-0.8-1.8-0.8c-0.6,0-1.1,0.2-1.5,0.5
			c-0.6,0.4-1,1-1.3,1.8c-0.3,0.8-0.5,1.9-0.5,3.3c0.4-0.6,0.9-1.1,1.6-1.4c0.6-0.3,1.3-0.5,1.9-0.5c1.2,0,2.2,0.4,3,1.3
			c0.8,0.9,1.2,2,1.2,3.3c0,0.9-0.2,1.7-0.6,2.5c-0.4,0.8-0.9,1.4-1.6,1.8c-0.7,0.4-1.4,0.6-2.3,0.6c-1.5,0-2.7-0.5-3.6-1.6
			c-0.9-1.1-1.4-2.9-1.4-5.3c0-2.8,0.5-4.8,1.5-6c0.9-1.1,2.1-1.6,3.6-1.6c1.1,0,2,0.3,2.8,0.9C-108.9-63.4-108.4-62.6-108.3-61.4z
			 M-115.5-55.3c0,0.6,0.1,1.2,0.4,1.7c0.3,0.6,0.6,1,1.1,1.3c0.5,0.3,0.9,0.4,1.4,0.4c0.8,0,1.4-0.3,1.9-0.9
			c0.5-0.6,0.8-1.4,0.8-2.4c0-1-0.3-1.8-0.8-2.3c-0.5-0.6-1.2-0.9-2-0.9c-0.8,0-1.5,0.3-2,0.9C-115.2-56.9-115.5-56.2-115.5-55.3z"
			/>
	</g>
	<g transform="translate(908.9,936)">
		<path class="st3" d="M-117.3-63.1v-1.7h9.3v1.4c-0.9,1-1.8,2.3-2.7,3.9c-0.9,1.6-1.6,3.3-2.1,5c-0.4,1.2-0.6,2.5-0.7,3.9h-1.8
			c0-1.1,0.2-2.5,0.7-4.1c0.4-1.6,1-3.1,1.8-4.6c0.8-1.5,1.6-2.7,2.5-3.7H-117.3z"/>
	</g>
	<g transform="translate(1013.6,936)">
		<path class="st3" d="M-114.7-58.4c-0.7-0.3-1.3-0.7-1.6-1.1c-0.3-0.5-0.5-1.1-0.5-1.8c0-1,0.4-1.9,1.1-2.6c0.8-0.7,1.7-1.1,3-1.1
			c1.2,0,2.3,0.4,3,1.1c0.8,0.7,1.1,1.6,1.1,2.6c0,0.7-0.2,1.2-0.5,1.7c-0.3,0.5-0.9,0.9-1.6,1.1c0.9,0.3,1.6,0.8,2,1.4
			s0.7,1.4,0.7,2.3c0,1.2-0.4,2.3-1.3,3.1c-0.9,0.8-2,1.2-3.4,1.2c-1.4,0-2.6-0.4-3.4-1.3c-0.9-0.8-1.3-1.9-1.3-3.1
			c0-0.9,0.2-1.7,0.7-2.3C-116.3-57.7-115.6-58.2-114.7-58.4z M-115.1-61.4c0,0.7,0.2,1.2,0.7,1.7c0.4,0.4,1,0.6,1.7,0.6
			c0.7,0,1.2-0.2,1.7-0.6c0.4-0.4,0.7-0.9,0.7-1.6c0-0.6-0.2-1.2-0.7-1.6c-0.4-0.4-1-0.7-1.7-0.7c-0.7,0-1.2,0.2-1.7,0.6
			C-114.8-62.5-115.1-62-115.1-61.4z M-115.6-54.8c0,0.5,0.1,1,0.4,1.5c0.2,0.5,0.6,0.8,1.1,1.1c0.5,0.3,1,0.4,1.5,0.4
			c0.8,0,1.5-0.3,2.1-0.8c0.5-0.5,0.8-1.2,0.8-2.1c0-0.8-0.3-1.5-0.8-2.1c-0.6-0.6-1.3-0.8-2.1-0.8c-0.8,0-1.5,0.3-2,0.8
			S-115.6-55.6-115.6-54.8z"/>
	</g>
	<g transform="translate(1118.3,936)">
		<path class="st3" d="M-117.2-53.9l1.7-0.2c0.1,0.8,0.4,1.4,0.8,1.7c0.4,0.4,0.9,0.5,1.6,0.5c0.5,0,1-0.1,1.4-0.4
			c0.4-0.2,0.7-0.6,1-1c0.3-0.4,0.5-1,0.7-1.7c0.2-0.7,0.3-1.4,0.3-2.1c0-0.1,0-0.2,0-0.3c-0.4,0.6-0.8,1-1.4,1.4
			c-0.6,0.3-1.3,0.5-2,0.5c-1.2,0-2.2-0.4-3-1.3c-0.8-0.9-1.2-2-1.2-3.4c0-1.4,0.4-2.6,1.3-3.5c0.9-0.9,1.9-1.3,3.2-1.3
			c0.9,0,1.8,0.2,2.6,0.8c0.8,0.5,1.4,1.2,1.8,2.1c0.4,0.9,0.6,2.3,0.6,4c0,1.8-0.2,3.3-0.6,4.4c-0.4,1.1-1,1.9-1.8,2.5
			c-0.8,0.6-1.7,0.9-2.8,0.9c-1.1,0-2-0.3-2.8-0.9S-117-52.8-117.2-53.9z M-110-60.2c0-1-0.3-1.8-0.8-2.4c-0.5-0.6-1.2-0.9-1.9-0.9
			c-0.8,0-1.5,0.3-2,1c-0.6,0.6-0.9,1.5-0.9,2.5c0,0.9,0.3,1.7,0.8,2.2s1.2,0.9,2,0.9s1.5-0.3,2-0.9C-110.2-58.5-110-59.2-110-60.2z
			"/>
	</g>
	<g transform="translate(1223,936)">
		<path class="st3" d="M-116.3-50.6h-1.8v-11.2c-0.4,0.4-1,0.8-1.7,1.2c-0.7,0.4-1.3,0.7-1.9,0.9v-1.7c1-0.5,1.9-1,2.6-1.7
			c0.7-0.7,1.3-1.3,1.6-1.9h1.1V-50.6z M-111.8-57.7c0-1.7,0.2-3,0.5-4.1c0.3-1,0.9-1.8,1.6-2.4c0.7-0.6,1.6-0.8,2.6-0.8
			c0.8,0,1.4,0.2,2,0.5c0.6,0.3,1.1,0.8,1.4,1.3c0.4,0.6,0.7,1.3,0.9,2.1c0.2,0.8,0.3,2,0.3,3.4c0,1.7-0.2,3-0.5,4.1
			c-0.3,1-0.9,1.8-1.5,2.4c-0.7,0.6-1.5,0.9-2.6,0.9c-1.4,0-2.5-0.5-3.2-1.5C-111.3-53.1-111.8-55-111.8-57.7z M-110-57.7
			c0,2.4,0.3,3.9,0.8,4.7c0.5,0.8,1.2,1.2,2,1.2c0.8,0,1.5-0.4,2-1.2c0.6-0.8,0.8-2.3,0.8-4.7c0-2.4-0.3-3.9-0.8-4.7
			c-0.6-0.8-1.2-1.2-2-1.2c-0.8,0-1.5,0.3-1.9,1C-109.7-61.7-110-60-110-57.7z"/>
	</g>
	<g transform="translate(688,987)">
		<path class="st3" d="M-111.1-72c0-0.2,0.1-0.4,0.3-0.6l6.2-6.1l-2.2-6.1c-0.2-0.5-0.4-0.8-0.5-1.1c-0.2-0.3-0.5-0.4-0.8-0.4
			c-0.2,0-0.2-0.1-0.2-0.3c0-0.1,0.1-0.2,0.1-0.2c0.1-0.1,0.1-0.1,0.2-0.1c1.5,0,2.5,0.5,2.8,1.4l4.5,12.5c0.2,0.6,0.4,1,0.6,1.2
			c0.1,0.1,0.1,0.2,0.1,0.2c0,0.1-0.1,0.2-0.2,0.2h-1.2c-0.4-0.1-0.7-0.4-0.9-1l-2-5.6l-5.3,6.2c-0.3,0.3-0.5,0.4-0.7,0.4
			c-0.2,0-0.4-0.1-0.5-0.2C-111.1-71.7-111.1-71.8-111.1-72z"/>
	</g>
	<g transform="translate(701,998)">
		<path class="st3" d="M-111.1-71.6V-81h1.4v1.3c0.7-1,1.7-1.5,3-1.5c0.6,0,1.1,0.1,1.6,0.3c0.5,0.2,0.8,0.5,1.1,0.8
			c0.2,0.3,0.4,0.7,0.5,1.2c0.1,0.3,0.1,0.8,0.1,1.5v5.7h-1.6v-5.7c0-0.6-0.1-1.1-0.2-1.5c-0.1-0.3-0.3-0.6-0.7-0.8
			c-0.3-0.2-0.7-0.3-1.1-0.3c-0.7,0-1.3,0.2-1.8,0.6c-0.5,0.4-0.7,1.2-0.7,2.4v5.1H-111.1z"/>
	</g>
	<g>
		<line class="st2" x1="63.8" y1="856.4" x2="63.8" y2="6.4"/>
		<line class="st2" x1="1110.8" y1="856.4" x2="1110.8" y2="6.4"/>
		<line class="st2" x1="63.8" y1="856.4" x2="74.2" y2="856.4"/>
		<line class="st2" x1="63.8" y1="771.4" x2="74.2" y2="771.4"/>
		<line class="st2" x1="63.8" y1="686.4" x2="74.2" y2="686.4"/>
		<line class="st2" x1="63.8" y1="601.4" x2="74.2" y2="601.4"/>
		<line class="st2" x1="63.8" y1="516.4" x2="74.2" y2="516.4"/>
		<line class="st2" x1="63.8" y1="431.4" x2="74.2" y2="431.4"/>
		<line class="st2" x1="63.8" y1="346.4" x2="74.2" y2="346.4"/>
		<line class="st2" x1="63.8" y1="261.4" x2="74.2" y2="261.4"/>
		<line class="st2" x1="63.8" y1="176.4" x2="74.2" y2="176.4"/>
		<line class="st2" x1="63.8" y1="91.4" x2="74.2" y2="91.4"/>
		<line class="st2" x1="63.8" y1="6.4" x2="74.2" y2="6.4"/>
		<line class="st2" x1="1110.8" y1="856.4" x2="1100.3" y2="856.4"/>
		<line class="st2" x1="1110.8" y1="771.4" x2="1100.3" y2="771.4"/>
		<line class="st2" x1="1110.8" y1="686.4" x2="1100.3" y2="686.4"/>
		<line class="st2" x1="1110.8" y1="601.4" x2="1100.3" y2="601.4"/>
		<line class="st2" x1="1110.8" y1="516.4" x2="1100.3" y2="516.4"/>
		<line class="st2" x1="1110.8" y1="431.4" x2="1100.3" y2="431.4"/>
		<line class="st2" x1="1110.8" y1="346.4" x2="1100.3" y2="346.4"/>
		<line class="st2" x1="1110.8" y1="261.4" x2="1100.3" y2="261.4"/>
		<line class="st2" x1="1110.8" y1="176.4" x2="1100.3" y2="176.4"/>
		<line class="st2" x1="1110.8" y1="91.4" x2="1100.3" y2="91.4"/>
		<line class="st2" x1="1110.8" y1="6.4" x2="1100.3" y2="6.4"/>
	</g>
	<g transform="translate(168,928)">
		<path class="st3" d="M-140.6-67.9v-1.8h5.4v1.8H-140.6z M-133.8-67.4l1.8-0.2c0.1,0.9,0.5,1.6,1,2c0.5,0.5,1.1,0.7,1.8,0.7
			c0.8,0,1.6-0.3,2.1-1c0.6-0.6,0.9-1.5,0.9-2.5c0-1-0.3-1.8-0.8-2.4c-0.6-0.6-1.3-0.9-2.2-0.9c-0.6,0-1.1,0.1-1.5,0.4
			c-0.5,0.3-0.8,0.6-1.1,1l-1.7-0.2l1.4-7.4h7.1v1.7h-5.7l-0.8,3.8c0.9-0.6,1.8-0.9,2.7-0.9c1.2,0,2.3,0.4,3.2,1.3
			c0.9,0.9,1.3,2,1.3,3.3c0,1.3-0.4,2.4-1.1,3.4c-0.9,1.2-2.2,1.8-3.8,1.8c-1.3,0-2.4-0.4-3.2-1.1
			C-133.2-65.2-133.6-66.2-133.8-67.4z M-122.6-70.7c0-1.7,0.2-3,0.5-4.1c0.3-1,0.9-1.8,1.6-2.4c0.7-0.6,1.6-0.8,2.6-0.8
			c0.8,0,1.4,0.2,2,0.5c0.6,0.3,1.1,0.8,1.4,1.3c0.4,0.6,0.7,1.3,0.9,2.1c0.2,0.8,0.3,2,0.3,3.4c0,1.7-0.2,3-0.5,4.1
			c-0.3,1-0.9,1.8-1.5,2.4c-0.7,0.6-1.5,0.9-2.6,0.9c-1.4,0-2.5-0.5-3.2-1.5C-122.2-66.1-122.6-68-122.6-70.7z M-120.8-70.7
			c0,2.4,0.3,3.9,0.8,4.7c0.5,0.8,1.2,1.2,2,1.2c0.8,0,1.5-0.4,2-1.2c0.6-0.8,0.8-2.3,0.8-4.7c0-2.4-0.3-3.9-0.8-4.7
			c-0.6-0.8-1.2-1.2-2-1.2c-0.8,0-1.5,0.3-1.9,1C-120.5-74.7-120.8-73-120.8-70.7z"/>
	</g>
	<g transform="translate(168,843)">
		<path class="st3" d="M-140.6-67.9v-1.8h5.4v1.8H-140.6z M-128.1-63.6V-67h-6.2v-1.6l6.5-9.3h1.4v9.3h1.9v1.6h-1.9v3.4H-128.1z
			 M-128.1-68.7v-6.5l-4.5,6.5H-128.1z M-122.6-70.7c0-1.7,0.2-3,0.5-4.1c0.3-1,0.9-1.8,1.6-2.4c0.7-0.6,1.6-0.8,2.6-0.8
			c0.8,0,1.4,0.2,2,0.5c0.6,0.3,1.1,0.8,1.4,1.3c0.4,0.6,0.7,1.3,0.9,2.1c0.2,0.8,0.3,2,0.3,3.4c0,1.7-0.2,3-0.5,4.1
			c-0.3,1-0.9,1.8-1.5,2.4c-0.7,0.6-1.5,0.9-2.6,0.9c-1.4,0-2.5-0.5-3.2-1.5C-122.2-66.1-122.6-68-122.6-70.7z M-120.8-70.7
			c0,2.4,0.3,3.9,0.8,4.7c0.5,0.8,1.2,1.2,2,1.2c0.8,0,1.5-0.4,2-1.2c0.6-0.8,0.8-2.3,0.8-4.7c0-2.4-0.3-3.9-0.8-4.7
			c-0.6-0.8-1.2-1.2-2-1.2c-0.8,0-1.5,0.3-1.9,1C-120.5-74.7-120.8-73-120.8-70.7z"/>
	</g>
	<g transform="translate(168,758)">
		<path class="st3" d="M-140.6-67.9v-1.8h5.4v1.8H-140.6z M-133.7-67.4l1.8-0.2c0.2,1,0.6,1.7,1,2.2c0.5,0.4,1.1,0.7,1.8,0.7
			c0.8,0,1.5-0.3,2.1-0.9c0.6-0.6,0.9-1.3,0.9-2.1c0-0.8-0.3-1.5-0.8-2c-0.5-0.5-1.2-0.8-2-0.8c-0.3,0-0.7,0.1-1.2,0.2l0.2-1.5
			c0.1,0,0.2,0,0.3,0c0.8,0,1.4-0.2,2-0.6c0.6-0.4,0.9-1,0.9-1.8c0-0.6-0.2-1.2-0.7-1.6c-0.4-0.4-1-0.6-1.7-0.6
			c-0.7,0-1.2,0.2-1.7,0.6c-0.5,0.4-0.8,1.1-0.9,1.9l-1.8-0.3c0.2-1.2,0.7-2.1,1.5-2.7c0.8-0.6,1.7-1,2.8-1c0.8,0,1.5,0.2,2.2,0.5
			c0.7,0.3,1.2,0.8,1.5,1.4c0.3,0.6,0.5,1.2,0.5,1.8c0,0.6-0.2,1.2-0.5,1.7c-0.3,0.5-0.8,0.9-1.5,1.2c0.8,0.2,1.5,0.6,2,1.2
			c0.5,0.6,0.7,1.4,0.7,2.3c0,1.2-0.5,2.3-1.4,3.2c-0.9,0.9-2.1,1.3-3.5,1.3c-1.3,0-2.3-0.4-3.1-1.1
			C-133.2-65.2-133.6-66.2-133.7-67.4z M-122.6-70.7c0-1.7,0.2-3,0.5-4.1c0.3-1,0.9-1.8,1.6-2.4c0.7-0.6,1.6-0.8,2.6-0.8
			c0.8,0,1.4,0.2,2,0.5c0.6,0.3,1.1,0.8,1.4,1.3c0.4,0.6,0.7,1.3,0.9,2.1c0.2,0.8,0.3,2,0.3,3.4c0,1.7-0.2,3-0.5,4.1
			c-0.3,1-0.9,1.8-1.5,2.4c-0.7,0.6-1.5,0.9-2.6,0.9c-1.4,0-2.5-0.5-3.2-1.5C-122.2-66.1-122.6-68-122.6-70.7z M-120.8-70.7
			c0,2.4,0.3,3.9,0.8,4.7c0.5,0.8,1.2,1.2,2,1.2c0.8,0,1.5-0.4,2-1.2c0.6-0.8,0.8-2.3,0.8-4.7c0-2.4-0.3-3.9-0.8-4.7
			c-0.6-0.8-1.2-1.2-2-1.2c-0.8,0-1.5,0.3-1.9,1C-120.5-74.7-120.8-73-120.8-70.7z"/>
	</g>
	<g transform="translate(168,673)">
		<path class="st3" d="M-140.6-67.9v-1.8h5.4v1.8H-140.6z M-124.5-65.3v1.7h-9.5c0-0.4,0.1-0.8,0.2-1.2c0.2-0.6,0.6-1.3,1.2-1.9
			c0.5-0.6,1.3-1.3,2.3-2.2c1.6-1.3,2.6-2.3,3.2-3c0.5-0.7,0.8-1.5,0.8-2.1c0-0.7-0.2-1.3-0.8-1.8c-0.5-0.5-1.2-0.7-2-0.7
			c-0.8,0-1.5,0.3-2,0.8c-0.5,0.5-0.8,1.2-0.8,2.1l-1.8-0.2c0.1-1.3,0.6-2.4,1.4-3.1c0.8-0.7,1.9-1.1,3.3-1.1c1.4,0,2.4,0.4,3.2,1.1
			c0.8,0.8,1.2,1.7,1.2,2.8c0,0.6-0.1,1.1-0.4,1.7c-0.2,0.6-0.6,1.1-1.2,1.8c-0.5,0.6-1.4,1.5-2.7,2.5c-1.1,0.9-1.7,1.5-2,1.8
			c-0.3,0.3-0.5,0.6-0.7,1H-124.5z M-122.6-70.7c0-1.7,0.2-3,0.5-4.1c0.3-1,0.9-1.8,1.6-2.4c0.7-0.6,1.6-0.8,2.6-0.8
			c0.8,0,1.4,0.2,2,0.5c0.6,0.3,1.1,0.8,1.4,1.3c0.4,0.6,0.7,1.3,0.9,2.1c0.2,0.8,0.3,2,0.3,3.4c0,1.7-0.2,3-0.5,4.1
			c-0.3,1-0.9,1.8-1.5,2.4c-0.7,0.6-1.5,0.9-2.6,0.9c-1.4,0-2.5-0.5-3.2-1.5C-122.2-66.1-122.6-68-122.6-70.7z M-120.8-70.7
			c0,2.4,0.3,3.9,0.8,4.7c0.5,0.8,1.2,1.2,2,1.2c0.8,0,1.5-0.4,2-1.2c0.6-0.8,0.8-2.3,0.8-4.7c0-2.4-0.3-3.9-0.8-4.7
			c-0.6-0.8-1.2-1.2-2-1.2c-0.8,0-1.5,0.3-1.9,1C-120.5-74.7-120.8-73-120.8-70.7z"/>
	</g>
	<g transform="translate(168,588)">
		<path class="st3" d="M-140.6-67.9v-1.8h5.4v1.8H-140.6z M-127.1-63.6h-1.8v-11.2c-0.4,0.4-1,0.8-1.7,1.2c-0.7,0.4-1.3,0.7-1.9,0.9
			v-1.7c1-0.5,1.9-1,2.6-1.7c0.7-0.7,1.3-1.3,1.6-1.9h1.1V-63.6z M-122.6-70.7c0-1.7,0.2-3,0.5-4.1c0.3-1,0.9-1.8,1.6-2.4
			c0.7-0.6,1.6-0.8,2.6-0.8c0.8,0,1.4,0.2,2,0.5c0.6,0.3,1.1,0.8,1.4,1.3c0.4,0.6,0.7,1.3,0.9,2.1c0.2,0.8,0.3,2,0.3,3.4
			c0,1.7-0.2,3-0.5,4.1c-0.3,1-0.9,1.8-1.5,2.4c-0.7,0.6-1.5,0.9-2.6,0.9c-1.4,0-2.5-0.5-3.2-1.5C-122.2-66.1-122.6-68-122.6-70.7z
			 M-120.8-70.7c0,2.4,0.3,3.9,0.8,4.7c0.5,0.8,1.2,1.2,2,1.2c0.8,0,1.5-0.4,2-1.2c0.6-0.8,0.8-2.3,0.8-4.7c0-2.4-0.3-3.9-0.8-4.7
			c-0.6-0.8-1.2-1.2-2-1.2c-0.8,0-1.5,0.3-1.9,1C-120.5-74.7-120.8-73-120.8-70.7z"/>
	</g>
	<g transform="translate(168,503)">
		<path class="st3" d="M-123.4-70.7c0-1.7,0.2-3,0.5-4.1c0.3-1,0.9-1.8,1.6-2.4c0.7-0.6,1.6-0.8,2.6-0.8c0.8,0,1.4,0.2,2,0.5
			c0.6,0.3,1.1,0.8,1.4,1.3c0.4,0.6,0.7,1.3,0.9,2.1c0.2,0.8,0.3,2,0.3,3.4c0,1.7-0.2,3-0.5,4.1c-0.3,1-0.9,1.8-1.5,2.4
			c-0.7,0.6-1.5,0.9-2.6,0.9c-1.4,0-2.5-0.5-3.2-1.5C-122.9-66.1-123.4-68-123.4-70.7z M-121.6-70.7c0,2.4,0.3,3.9,0.8,4.7
			c0.5,0.8,1.2,1.2,2,1.2c0.8,0,1.5-0.4,2-1.2c0.6-0.8,0.8-2.3,0.8-4.7c0-2.4-0.3-3.9-0.8-4.7c-0.6-0.8-1.2-1.2-2-1.2
			c-0.8,0-1.5,0.3-1.9,1C-121.3-74.7-121.6-73-121.6-70.7z"/>
	</g>
	<g transform="translate(168,418)">
		<path class="st3" d="M-127.8-63.6h-1.8v-11.2c-0.4,0.4-1,0.8-1.7,1.2c-0.7,0.4-1.3,0.7-1.9,0.9v-1.7c1-0.5,1.9-1,2.6-1.7
			c0.7-0.7,1.3-1.3,1.6-1.9h1.1V-63.6z M-123.3-70.7c0-1.7,0.2-3,0.5-4.1c0.3-1,0.9-1.8,1.6-2.4c0.7-0.6,1.6-0.8,2.6-0.8
			c0.8,0,1.4,0.2,2,0.5c0.6,0.3,1.1,0.8,1.4,1.3c0.4,0.6,0.7,1.3,0.9,2.1c0.2,0.8,0.3,2,0.3,3.4c0,1.7-0.2,3-0.5,4.1
			c-0.3,1-0.9,1.8-1.5,2.4c-0.7,0.6-1.5,0.9-2.6,0.9c-1.4,0-2.5-0.5-3.2-1.5C-122.8-66.1-123.3-68-123.3-70.7z M-121.5-70.7
			c0,2.4,0.3,3.9,0.8,4.7c0.5,0.8,1.2,1.2,2,1.2c0.8,0,1.5-0.4,2-1.2c0.6-0.8,0.8-2.3,0.8-4.7c0-2.4-0.3-3.9-0.8-4.7
			c-0.6-0.8-1.2-1.2-2-1.2c-0.8,0-1.5,0.3-1.9,1C-121.2-74.7-121.5-73-121.5-70.7z"/>
	</g>
	<g transform="translate(168,333)">
		<path class="st3" d="M-125.2-65.3v1.7h-9.5c0-0.4,0.1-0.8,0.2-1.2c0.2-0.6,0.6-1.3,1.2-1.9c0.5-0.6,1.3-1.3,2.3-2.2
			c1.6-1.3,2.6-2.3,3.2-3c0.5-0.7,0.8-1.5,0.8-2.1c0-0.7-0.2-1.3-0.8-1.8c-0.5-0.5-1.2-0.7-2-0.7c-0.8,0-1.5,0.3-2,0.8
			c-0.5,0.5-0.8,1.2-0.8,2.1l-1.8-0.2c0.1-1.3,0.6-2.4,1.4-3.1c0.8-0.7,1.9-1.1,3.3-1.1c1.4,0,2.4,0.4,3.2,1.1
			c0.8,0.8,1.2,1.7,1.2,2.8c0,0.6-0.1,1.1-0.4,1.7c-0.2,0.6-0.6,1.1-1.2,1.8c-0.5,0.6-1.4,1.5-2.7,2.5c-1.1,0.9-1.7,1.5-2,1.8
			c-0.3,0.3-0.5,0.6-0.7,1H-125.2z M-123.3-70.7c0-1.7,0.2-3,0.5-4.1c0.3-1,0.9-1.8,1.6-2.4c0.7-0.6,1.6-0.8,2.6-0.8
			c0.8,0,1.4,0.2,2,0.5c0.6,0.3,1.1,0.8,1.4,1.3c0.4,0.6,0.7,1.3,0.9,2.1c0.2,0.8,0.3,2,0.3,3.4c0,1.7-0.2,3-0.5,4.1
			c-0.3,1-0.9,1.8-1.5,2.4c-0.7,0.6-1.5,0.9-2.6,0.9c-1.4,0-2.5-0.5-3.2-1.5C-122.8-66.1-123.3-68-123.3-70.7z M-121.5-70.7
			c0,2.4,0.3,3.9,0.8,4.7c0.5,0.8,1.2,1.2,2,1.2c0.8,0,1.5-0.4,2-1.2c0.6-0.8,0.8-2.3,0.8-4.7c0-2.4-0.3-3.9-0.8-4.7
			c-0.6-0.8-1.2-1.2-2-1.2c-0.8,0-1.5,0.3-1.9,1C-121.2-74.7-121.5-73-121.5-70.7z"/>
	</g>
	<g transform="translate(168,248)">
		<path class="st3" d="M-134.4-67.4l1.8-0.2c0.2,1,0.6,1.7,1,2.2c0.5,0.4,1.1,0.7,1.8,0.7c0.8,0,1.5-0.3,2.1-0.9s0.9-1.3,0.9-2.1
			c0-0.8-0.3-1.5-0.8-2c-0.5-0.5-1.2-0.8-2-0.8c-0.3,0-0.7,0.1-1.2,0.2l0.2-1.5c0.1,0,0.2,0,0.3,0c0.8,0,1.4-0.2,2-0.6
			c0.6-0.4,0.9-1,0.9-1.8c0-0.6-0.2-1.2-0.7-1.6c-0.4-0.4-1-0.6-1.7-0.6c-0.7,0-1.2,0.2-1.7,0.6c-0.5,0.4-0.7,1.1-0.9,1.9l-1.8-0.3
			c0.2-1.2,0.7-2.1,1.5-2.7c0.8-0.6,1.7-1,2.8-1c0.8,0,1.5,0.2,2.2,0.5c0.7,0.3,1.2,0.8,1.5,1.4c0.3,0.6,0.5,1.2,0.5,1.8
			c0,0.6-0.2,1.2-0.5,1.7c-0.3,0.5-0.8,0.9-1.5,1.2c0.8,0.2,1.5,0.6,2,1.2c0.5,0.6,0.7,1.4,0.7,2.3c0,1.2-0.5,2.3-1.4,3.2
			c-0.9,0.9-2.1,1.3-3.5,1.3c-1.3,0-2.3-0.4-3.1-1.1C-133.8-65.2-134.3-66.2-134.4-67.4z M-123.3-70.7c0-1.7,0.2-3,0.5-4.1
			c0.3-1,0.9-1.8,1.6-2.4c0.7-0.6,1.6-0.8,2.6-0.8c0.8,0,1.4,0.2,2,0.5c0.6,0.3,1.1,0.8,1.4,1.3c0.4,0.6,0.7,1.3,0.9,2.1
			c0.2,0.8,0.3,2,0.3,3.4c0,1.7-0.2,3-0.5,4.1c-0.3,1-0.9,1.8-1.5,2.4c-0.7,0.6-1.5,0.9-2.6,0.9c-1.4,0-2.5-0.5-3.2-1.5
			C-122.8-66.1-123.3-68-123.3-70.7z M-121.5-70.7c0,2.4,0.3,3.9,0.8,4.7c0.5,0.8,1.2,1.2,2,1.2c0.8,0,1.5-0.4,2-1.2
			c0.6-0.8,0.8-2.3,0.8-4.7c0-2.4-0.3-3.9-0.8-4.7c-0.6-0.8-1.2-1.2-2-1.2c-0.8,0-1.5,0.3-1.9,1C-121.2-74.7-121.5-73-121.5-70.7z"
			/>
	</g>
	<g transform="translate(168,163)">
		<path class="st3" d="M-128.8-63.6V-67h-6.2v-1.6l6.5-9.3h1.4v9.3h1.9v1.6h-1.9v3.4H-128.8z M-128.8-68.7v-6.5l-4.5,6.5H-128.8z
			 M-123.3-70.7c0-1.7,0.2-3,0.5-4.1c0.3-1,0.9-1.8,1.6-2.4c0.7-0.6,1.6-0.8,2.6-0.8c0.8,0,1.4,0.2,2,0.5c0.6,0.3,1.1,0.8,1.4,1.3
			c0.4,0.6,0.7,1.3,0.9,2.1c0.2,0.8,0.3,2,0.3,3.4c0,1.7-0.2,3-0.5,4.1c-0.3,1-0.9,1.8-1.5,2.4c-0.7,0.6-1.5,0.9-2.6,0.9
			c-1.4,0-2.5-0.5-3.2-1.5C-122.8-66.1-123.3-68-123.3-70.7z M-121.5-70.7c0,2.4,0.3,3.9,0.8,4.7c0.5,0.8,1.2,1.2,2,1.2
			c0.8,0,1.5-0.4,2-1.2c0.6-0.8,0.8-2.3,0.8-4.7c0-2.4-0.3-3.9-0.8-4.7c-0.6-0.8-1.2-1.2-2-1.2c-0.8,0-1.5,0.3-1.9,1
			C-121.2-74.7-121.5-73-121.5-70.7z"/>
	</g>
	<g transform="translate(168,78)">
		<path class="st3" d="M-134.4-67.4l1.8-0.2c0.1,0.9,0.5,1.6,1,2c0.5,0.5,1.1,0.7,1.8,0.7c0.8,0,1.6-0.3,2.1-1
			c0.6-0.6,0.9-1.5,0.9-2.5c0-1-0.3-1.8-0.8-2.4c-0.6-0.6-1.3-0.9-2.2-0.9c-0.6,0-1.1,0.1-1.5,0.4c-0.5,0.3-0.8,0.6-1.1,1l-1.7-0.2
			l1.4-7.4h7.1v1.7h-5.7l-0.8,3.8c0.9-0.6,1.8-0.9,2.7-0.9c1.2,0,2.3,0.4,3.2,1.3c0.9,0.9,1.3,2,1.3,3.3c0,1.3-0.4,2.4-1.1,3.4
			c-0.9,1.2-2.2,1.8-3.8,1.8c-1.3,0-2.4-0.4-3.2-1.1C-133.8-65.2-134.3-66.2-134.4-67.4z M-123.3-70.7c0-1.7,0.2-3,0.5-4.1
			c0.3-1,0.9-1.8,1.6-2.4c0.7-0.6,1.6-0.8,2.6-0.8c0.8,0,1.4,0.2,2,0.5c0.6,0.3,1.1,0.8,1.4,1.3c0.4,0.6,0.7,1.3,0.9,2.1
			c0.2,0.8,0.3,2,0.3,3.4c0,1.7-0.2,3-0.5,4.1c-0.3,1-0.9,1.8-1.5,2.4c-0.7,0.6-1.5,0.9-2.6,0.9c-1.4,0-2.5-0.5-3.2-1.5
			C-122.8-66.1-123.3-68-123.3-70.7z M-121.5-70.7c0,2.4,0.3,3.9,0.8,4.7c0.5,0.8,1.2,1.2,2,1.2c0.8,0,1.5-0.4,2-1.2
			c0.6-0.8,0.8-2.3,0.8-4.7c0-2.4-0.3-3.9-0.8-4.7c-0.6-0.8-1.2-1.2-2-1.2c-0.8,0-1.5,0.3-1.9,1C-121.2-74.7-121.5-73-121.5-70.7z"
			/>
	</g>
	<g transform="translate(133,502.9996) rotate(-90)">
		<path class="st3" d="M-2.3-117.2V-133h5.9c1.2,0,2.2,0.2,2.9,0.5c0.7,0.3,1.3,0.8,1.7,1.5c0.4,0.7,0.6,1.4,0.6,2.1
			c0,0.7-0.2,1.3-0.5,1.9c-0.4,0.6-0.9,1.1-1.7,1.4c1,0.3,1.7,0.8,2.2,1.4c0.5,0.7,0.8,1.5,0.8,2.4c0,0.7-0.2,1.4-0.5,2.1
			c-0.3,0.6-0.7,1.1-1.2,1.5c-0.5,0.3-1,0.6-1.7,0.8c-0.7,0.2-1.5,0.3-2.5,0.3H-2.3z M-0.2-126.4h3.4c0.9,0,1.6-0.1,2-0.2
			c0.5-0.2,0.9-0.4,1.2-0.8c0.3-0.4,0.4-0.8,0.4-1.4c0-0.5-0.1-1-0.4-1.4c-0.2-0.4-0.6-0.7-1.1-0.8c-0.5-0.1-1.3-0.2-2.4-0.2h-3.1
			V-126.4z M-0.2-119.1h3.9c0.7,0,1.2,0,1.4-0.1c0.5-0.1,0.9-0.2,1.2-0.4c0.3-0.2,0.6-0.5,0.8-0.9c0.2-0.4,0.3-0.8,0.3-1.3
			c0-0.6-0.2-1.1-0.5-1.5c-0.3-0.4-0.7-0.7-1.2-0.9c-0.5-0.2-1.3-0.3-2.3-0.3h-3.6V-119.1z M12.3-130.8v-2.2h1.9v2.2H12.3z
			 M12.3-117.2v-11.4h1.9v11.4H12.3z M16.4-123c0-2.1,0.6-3.7,1.8-4.7c1-0.8,2.2-1.3,3.6-1.3c1.6,0,2.9,0.5,3.9,1.5
			c1,1,1.5,2.5,1.5,4.3c0,1.5-0.2,2.6-0.7,3.5c-0.4,0.8-1.1,1.5-1.9,2c-0.8,0.5-1.8,0.7-2.8,0.7c-1.6,0-2.9-0.5-3.9-1.5
			C16.9-119.5,16.4-121,16.4-123z M18.4-123c0,1.5,0.3,2.6,1,3.3c0.6,0.7,1.4,1.1,2.4,1.1c1,0,1.8-0.4,2.4-1.1c0.6-0.7,1-1.8,1-3.3
			c0-1.4-0.3-2.5-1-3.2c-0.6-0.7-1.4-1.1-2.4-1.1c-1,0-1.8,0.4-2.4,1.1C18.7-125.5,18.4-124.4,18.4-123z M33.6-119l0.3,1.7
			c-0.5,0.1-1,0.2-1.5,0.2c-0.7,0-1.2-0.1-1.6-0.3c-0.4-0.2-0.7-0.5-0.8-0.9c-0.2-0.4-0.2-1.1-0.2-2.3v-6.6h-1.4v-1.5h1.4v-2.8
			l1.9-1.2v4h1.9v1.5h-1.9v6.7c0,0.6,0,0.9,0.1,1.1c0.1,0.2,0.2,0.3,0.3,0.4c0.2,0.1,0.4,0.1,0.7,0.1C33-118.9,33.2-118.9,33.6-119z
			 M41.6-117.2v-11.4h1.7v1.6c0.8-1.3,2.1-1.9,3.6-1.9c0.7,0,1.3,0.1,1.9,0.4c0.6,0.2,1,0.6,1.3,1c0.3,0.4,0.5,0.9,0.6,1.4
			c0.1,0.4,0.1,1,0.1,1.9v7h-1.9v-6.9c0-0.8-0.1-1.4-0.2-1.8c-0.1-0.4-0.4-0.7-0.8-0.9c-0.4-0.2-0.8-0.3-1.4-0.3
			c-0.8,0-1.5,0.3-2.1,0.8c-0.6,0.5-0.9,1.5-0.9,3v6.2H41.6z M61.3-117.2v-1.7c-0.9,1.3-2.1,1.9-3.6,1.9c-0.7,0-1.3-0.1-1.9-0.4
			s-1-0.6-1.3-1c-0.3-0.4-0.5-0.9-0.6-1.4c-0.1-0.4-0.1-1-0.1-1.8v-7.1h1.9v6.3c0,1,0,1.7,0.1,2c0.1,0.5,0.4,0.9,0.8,1.2
			c0.4,0.3,0.9,0.4,1.5,0.4c0.6,0,1.1-0.1,1.6-0.4c0.5-0.3,0.9-0.7,1.1-1.2c0.2-0.5,0.3-1.3,0.3-2.2v-6.1H63v11.4H61.3z M66.1-117.2
			v-11.4h1.7v1.6c0.4-0.6,0.8-1,1.4-1.3c0.6-0.3,1.3-0.5,2-0.5c0.8,0,1.5,0.2,2.1,0.5c0.5,0.4,0.9,0.8,1.1,1.5c0.9-1.3,2.1-2,3.5-2
			c1.1,0,2,0.3,2.6,0.9c0.6,0.6,0.9,1.6,0.9,2.9v7.8h-1.9v-7.2c0-0.8-0.1-1.3-0.2-1.7s-0.4-0.6-0.7-0.8c-0.3-0.2-0.7-0.3-1.2-0.3
			c-0.8,0-1.5,0.3-2,0.8c-0.5,0.5-0.8,1.4-0.8,2.6v6.6h-1.9v-7.4c0-0.9-0.2-1.5-0.5-1.9c-0.3-0.4-0.8-0.6-1.6-0.6
			c-0.5,0-1,0.1-1.5,0.4c-0.5,0.3-0.8,0.7-1,1.2c-0.2,0.5-0.3,1.3-0.3,2.4v5.9H66.1z M86.2-117.2h-1.8V-133h1.9v5.6
			c0.8-1,1.9-1.5,3.1-1.5c0.7,0,1.4,0.1,2,0.4c0.6,0.3,1.1,0.7,1.5,1.2c0.4,0.5,0.7,1.1,0.9,1.9c0.2,0.7,0.3,1.5,0.3,2.3
			c0,2-0.5,3.5-1.4,4.5c-1,1.1-2.1,1.6-3.5,1.6c-1.3,0-2.4-0.6-3.2-1.7V-117.2z M86.2-123c0,1.4,0.2,2.4,0.5,3
			c0.6,1,1.4,1.5,2.5,1.5c0.9,0,1.6-0.4,2.2-1.1c0.6-0.7,0.9-1.8,0.9-3.3c0-1.5-0.3-2.6-0.9-3.3c-0.6-0.7-1.3-1.1-2.1-1.1
			c-0.8,0-1.6,0.4-2.2,1.1C86.5-125.5,86.2-124.4,86.2-123z M104.4-120.9l2,0.2c-0.3,1.2-0.9,2.1-1.8,2.7c-0.8,0.6-1.9,1-3.3,1
			c-1.7,0-3-0.5-4-1.5c-1-1-1.5-2.5-1.5-4.3c0-1.9,0.5-3.4,1.5-4.5c1-1.1,2.3-1.6,3.9-1.6c1.5,0,2.8,0.5,3.7,1.6s1.5,2.5,1.5,4.4
			c0,0.1,0,0.3,0,0.5H98c0.1,1.2,0.4,2.2,1.1,2.9c0.6,0.7,1.4,1,2.4,1c0.7,0,1.3-0.2,1.8-0.6C103.7-119.5,104.1-120.1,104.4-120.9z
			 M98.1-124h6.4c-0.1-1-0.3-1.7-0.7-2.2c-0.6-0.8-1.4-1.1-2.4-1.1c-0.9,0-1.6,0.3-2.2,0.9C98.5-125.8,98.2-125,98.1-124z
			 M108.8-117.2v-11.4h1.8v1.7c0.4-0.8,0.8-1.3,1.2-1.6c0.4-0.3,0.8-0.4,1.2-0.4c0.7,0,1.3,0.2,2,0.6l-0.7,1.8
			c-0.5-0.3-1-0.4-1.4-0.4c-0.4,0-0.8,0.1-1.1,0.4c-0.3,0.3-0.6,0.6-0.7,1.1c-0.2,0.7-0.3,1.4-0.3,2.3v6H108.8z M116.7-117.2v-2.2
			h2.2v2.2c0,0.8-0.1,1.5-0.4,2c-0.3,0.5-0.7,0.9-1.4,1.1l-0.5-0.8c0.4-0.2,0.7-0.4,0.9-0.8s0.3-0.8,0.3-1.5H116.7z M128.6-117.2
			V-133h5.9c1.2,0,2.2,0.2,2.9,0.5c0.7,0.3,1.3,0.8,1.7,1.5s0.6,1.4,0.6,2.1c0,0.7-0.2,1.3-0.5,1.9c-0.4,0.6-0.9,1.1-1.7,1.4
			c1,0.3,1.7,0.8,2.2,1.4c0.5,0.7,0.8,1.5,0.8,2.4c0,0.7-0.2,1.4-0.5,2.1c-0.3,0.6-0.7,1.1-1.2,1.5c-0.5,0.3-1,0.6-1.7,0.8
			c-0.7,0.2-1.5,0.3-2.5,0.3H128.6z M130.7-126.4h3.4c0.9,0,1.6-0.1,2-0.2c0.5-0.2,0.9-0.4,1.2-0.8c0.3-0.4,0.4-0.8,0.4-1.4
			c0-0.5-0.1-1-0.4-1.4c-0.2-0.4-0.6-0.7-1.1-0.8c-0.5-0.1-1.3-0.2-2.4-0.2h-3.1V-126.4z M130.7-119.1h3.9c0.7,0,1.2,0,1.4-0.1
			c0.5-0.1,0.9-0.2,1.2-0.4c0.3-0.2,0.6-0.5,0.8-0.9c0.2-0.4,0.3-0.8,0.3-1.3c0-0.6-0.2-1.1-0.5-1.5c-0.3-0.4-0.7-0.7-1.2-0.9
			c-0.5-0.2-1.3-0.3-2.3-0.3h-3.6V-119.1z M143.1-130.8v-2.2h1.9v2.2H143.1z M143.1-117.2v-11.4h1.9v11.4H143.1z"/>
	</g>
	<g>
		<path class="st4" d="M63.8,601.4l21.8-0.4l25.8-1.5l12.5-1.3l12.5-1.7l11.3-2.1l5.7-1.3l5.7-1.6l5.8-1.9l5.8-2.3l2.9-1.3l2.9-1.5
			l2.9-1.7l2.9-1.9l3-2.2l3-2.5l3-3l3-3.5l1.5-2l1.5-2.2l1.5-2.4l1.5-2.7l1.5-3l1.5-3.3l1.5-3.7l1.5-4.3l1.6-5.3l1.6-6.3l1.6-7.5
			l0.8-4.3l0.8-4.8l0.8-5.3l0.8-6l0.4-3.3l0.4-3.5l0.4-3.7l0.4-4l0.4-4.3l0.4-4.6l0.4-4.9l0.2-2.6l0.2-2.7l0.2-2.8l0.2-2.9l0.2-3.1
			l0.2-3.2l0.2-3.3l0.2-3.5l0.2-3.7l0.2-3.8l0.2-4l0.1-2.1l0.1-2.1l0.1-2.2l0.1-2.2l0.1-2.3l0.1-2.4l0.1-2.4l0.1-2.5l0.1-2.6
			l0.1-2.6l0.1-2.7l0.1-2.8l0.1-2.9l0.1-3l0.1-3l0.1-3.1l0.1-3.2l0.1-1.7l0.1-1.7l0.1-1.7l0.1-1.7l0.1-1.8l0.1-1.8l0.1-1.8l0.1-1.8
			l0.1-1.9l0.1-1.9l0.1-1.9l0.1-2l0.1-2l0.1-2l0.1-2.1l0.1-2.1l0.1-2.2l0.1-2.2l0.1-2.2l0.1-2.3l0.1-2.3l0.1-2.4l0.1-2.4l0.1-2.5
			l0.1-2.5l0.1-2.5l0.1-2.6l0.1-2.7l0.1-2.7l0.1-2.8l0.1-2.8l0.1-2.9l0.1-2.9l0.1-3l0.1-3.1l0.1-3.1l0.1-3.2l0.1-3.3l0.1-3.3
			l0.1-3.4l0.1-3.5l0.1-3.6l0.1-3.6l0.1-3.7l0.1-3.8l0.1-3.9l0.1-4l0.1-4.1l0.1-4.2l0.1-4.3l0.1-4.4l0.1-4.5l0.1-4.7l0.1-4.8
			l0.1-4.9l0.1-5.1l0.1-5.2l0.1-5.3l0.1-5.5l0.1-5.7l0.1-5.8l0.1-6l0.1-6.2l0.1-6.4l0.1-6.6l0.1-6.8l0.1-7l0.1-7.2l0.1-7.5l0.1-7.7
			l0.1-8l0.1-8.3l0.1-8.6l0.1-8.9l0.1-9.2l0.1-9.5l0.1-9.9l0.1-10.3l0.1-10.7l0.1-11.1l0.1-11.6l0.1-12.1l0.1-12.6l0-10.6"/>
		<path class="st4" d="M233.9,856.5l0-1.2l0-1.8l0-1.8l0-1.7l0-1.7l0-1.7l0-1.7l0-1.6l0-1.6l0-1.6l0-1.6l0-1.6l0-1.5l0-1.5l0.1-3
			l0.1-2.9l0.1-2.8l0.1-2.7l0.1-2.7l0.1-2.6l0.1-2.5l0.1-2.5l0.1-2.4l0.1-2.4l0.1-2.3l0.1-2.3l0.1-2.2l0.1-2.2l0.1-2.1l0.1-2.1
			l0.1-2l0.1-2l0.1-1.9l0.1-1.9l0.2-3.7l0.2-3.5l0.2-3.4l0.2-3.2l0.2-3.1l0.2-3l0.2-2.9l0.2-2.8l0.2-2.7l0.2-2.6l0.2-2.5l0.2-2.4
			l0.3-4.6l0.3-4.3l0.3-4.1l0.3-3.8l0.3-3.6l0.3-3.4l0.3-3.2l0.3-3l0.7-5.6l0.7-5.1l0.7-4.6l0.7-4.2l0.7-3.9l0.7-3.6l1.3-6.4
			l1.3-5.5l1.3-4.8l2.7-7.9l2.7-6.3l1.7-3.3l1.7-3l1.7-2.7l1.7-2.4l1.7-2.2l1.7-2l3.3-3.5l3.3-3l3.3-2.6l3.3-2.3l3.3-2l5.3-2.8
			l5.3-2.4l5.3-2.1l5.3-1.9l11.5-3.6l11.5-3.1l24.6-5.9l22.9-5.2l24.7-6.1l26.5-7.7l10.5-3.7l10.5-4.2l12.8-6l6.4-3.5l6.4-3.9
			l5.5-3.8l5.5-4.3l5.5-4.9l5.5-5.6l3.1-3.6l3.1-3.9l3.1-4.3l3.1-4.8l3.1-5.4l3.1-6.1l3.1-6.9l3.1-7.9l2.8-8.2l2.8-9.6l2.8-11.2
			l1.4-6.4l1.4-7l1.4-7.7l1.4-8.5l1.4-9.5l1.4-10.6l0.7-5.8l0.7-6.2l0.7-6.6l0.7-7l0.7-7.5l0.7-8.1l0.7-8.7l0.4-4.6l0.4-4.8l0.4-5.2
			l0.4-5.4l0.4-5.7l0.4-5.9l0.4-6.2l0.4-6.5l0.4-6.8l0.2-3.5l0.2-3.6l0.2-3.7l0.2-3.8l0.2-3.9l0.2-4l0.2-4.1l0.2-4.2l0.2-4.4
			l0.2-4.5l0.2-4.6l0.2-4.8l0.2-4.9l0.2-5l0.2-5.2l0.2-5.3l0.2-5.5l0.2-5.7l0.1-2.9l0.1-3l0.1-3l0.1-3.1l0.1-3.1l0.1-3.2l0.1-3.2
			l0.1-3.3l0.1-3.3l0.1-3.4l0.1-3.4l0.1-3.5l0.1-3.6l0.1-3.6l0.1-3.7l0.1-3.8l0.1-3.8l0.1-3.9l0.1-4l0.1-4l0.1-4.1l0.1-4.2l0.1-4.3
			l0.1-4.4l0.1-4.4l0.1-4.5l0-2.3l0-2.3l0-2.4l0-2.4l0-2.4l0-2.4l0-2.4l0-2.5l0-2.5l0-2.5l0-2.6l0-2.6l0-2.6l0-2.6l0-2.7l0-2.7
			l0-2.7l0-2.8l0-2.8l0-2.8l0-2.8l0-2.9l0-2.9l0-2.9l0-3l0-3l0-3l0-3.1l0-3.1l0-3.2l0-3.2l0-3.2l0-3.3l0-3.3l0-3.3l0-3.4l0-3.4
			l0-3.5l0-3.5l0-3.6l0-3.6l0-3.7l0-3.7l0-3.7l0-3.8l0-3.8l0-3.9l0-3.9l0-3.6"/>
		<path class="st4" d="M574,856.5l0.1-1.8l0.4-5.4l0.4-5.2l0.4-5l0.4-4.8l0.4-4.6l0.8-8.6l0.8-8l0.8-7.4l0.8-6.9l0.8-6.5l0.8-6.1
			l0.8-5.7l1.5-10.4l1.5-9.3l1.5-8.3l1.5-7.5l3-13l3-10.9l3-9.3l3-8.1l3-7.1l3-6.3l3-5.6l3-5l3-4.6l3-4.2l5.9-7.4l5.9-6.3l5.9-5.6
			l6.2-5.2l6.2-4.7l12.4-8.2l11.4-6.7l11.4-6.1l25.7-13L730,597l11.7-6.3l11.7-6.8l12.1-7.8l12.1-8.9l6-5l6-5.4l6-6l6-6.6l5.9-7.4
			l5.9-8.4l5.9-9.7l5.9-11.3l6-13.6l6-16.6l3-9.8l3-11.1l3-12.7l3-14.6l1.5-8.2l1.5-8.9l1.5-9.7l1.5-10.5l1.5-11.6l1.5-12.8l0.7-6.9
			l0.7-7.3l0.7-7.7l0.7-8.1l0.7-8.6l0.7-9.1l0.7-9.7l0.7-10.4l0.4-5.4l0.4-5.6l0.4-5.8l0.4-6l0.4-6.2l0.4-6.5l0.4-6.7l0.4-7l0.4-7.3
			l0.4-7.5l0.4-7.8l0.4-8.2l0.4-8.5l0.2-4.4l0.2-4.5l0.2-4.6l0.2-4.7l0.2-4.8l0.2-4.9l0.2-5l0.2-5.1l0.2-5.3l0.2-5.4l0.2-5.5
			l0.2-5.6l0.2-5.8l0.2-5.9l0.2-6.1l0.2-6.2l0.2-6.4l0.2-6.6l0.2-6.7l0.1-3.4l0.1-3.5l0.1-3.5l0.1-3.6l0.1-3.6l0.1-3.7l0.1-4
			l0.1-4.1l0.1-4.1l0.1-4.2l0.1-4.3l0.1-4.3l0.1-4.4l0.1-4.5l0.1-4.5l0.1-4.6l0.1-4.7l0.1-4.8l0.1-4.8l0.1-4.9l0.1-5l0.1-5.1
			l0.1-5.2l0-2"/>
		<path class="st4" d="M913.7,856.5l1.1-10.4l1.4-11.4l1.4-10.4l1.4-9.6l1.4-8.8l2.8-16.2l2.8-14l2.8-12.2l2.8-10.8l5.7-18.3l5.7-15
			l6.2-13.7l6.2-11.6l6.2-10l6.2-8.8l6.2-7.9l6.2-7.1l12.5-12.6l11.3-10.1l11.3-9.3l18-13.9l29.6-22.7l11.7-9.6l11.7-10.3l12.1-11.9
			l12.1-13.5"/>
	</g>
	<g>
		<line class="st5" x1="228.2" y1="856.4" x2="228.2" y2="6.4"/>
		<line class="st5" x1="557.2" y1="856.4" x2="557.2" y2="6.4"/>
		<line class="st5" x1="886.1" y1="856.4" x2="886.1" y2="6.4"/>
	</g>
</g>
</svg>
