<?xml version="1.0" encoding="UTF-8"?>
<svg xmlns="http://www.w3.org/2000/svg" xmlns:xlink="http://www.w3.org/1999/xlink" viewBox="0 0 477.0651 473.8903">
  <defs>
    <style>
      .cls-1 {
        fill: none;
      }

      .cls-1, .cls-2 {
        stroke: #231f20;
        stroke-miterlimit: 10;
      }

      .cls-3 {
        fill: #d6c2ad;
      }

      .cls-3, .cls-4, .cls-5, .cls-6, .cls-7 {
        stroke-width: 0px;
      }

      .cls-2 {
        fill: #231f20;
      }

      .cls-4 {
        fill: #ffc74e;
      }

      .cls-5 {
        fill: #abc178;
      }

      .cls-6 {
        fill: #d1d3d4;
      }

      .cls-7 {
        fill: #00bbd6;
      }
    </style>
    <symbol id="Deleted_Symbol" data-name="Deleted Symbol" viewBox="0 0 20 10">
      <path class="cls-7" d="m20,9c-4,0-8,0-12-3,0,1-1,3-1,4-1-2-3-5-7-5C3,3,6,1,10,0c-1,1-1,2-2,3,4,1,8,2,12-1v7h0Z"/>
    </symbol>
    <symbol id="Deleted_Symbol_2" data-name="Deleted Symbol 2" viewBox="0 0 20 9">
      <path class="cls-4" d="m20,9c-4,0-8,0-12-3,0,1-1,2-1,3C5,7,3,5,0,4,3,2,6,0,10,0l-2,2c3,3,8,3,12,0v7h0Z"/>
    </symbol>
    <symbol id="Deleted_Symbol_3" data-name="Deleted Symbol 3" viewBox="0 0 20 10">
      <path class="cls-5" d="m20,9c-4,0-8,0-12-3,0,1-1,3-1,4-1-2-3-5-7-5C3,3,6,1,10,0c-1,1-1,2-2,3,4,1,8,2,12-1v7h0Z"/>
    </symbol>
    <symbol id="Deleted_Symbol_4" data-name="Deleted Symbol 4" viewBox="0 0 20 9">
      <path class="cls-3" d="m20,9c-4,0-8,0-12-3,0,1-1,2-1,3C5,7,3,5,0,4,3,2,6,0,10,0l-2,2c3,3,8,3,12,0v7h0Z"/>
    </symbol>
  </defs>
  <g id="_0_fig" data-name="0_fig">
    <polyline class="cls-6" points="158.9691 0 159.1866 157.7896 0 157.7896 0 315.9188 159.1866 315.9188 158.9691 473.8903 318.8971 473.8903 318.8971 315.9188 477.0651 315.9188 475.5517 157.7896 318.8971 157.7896 318.8971 0"/>
    <rect class="cls-1" x="159.1866" y="157.7896" width="159.7105" height="158.1292"/>
  </g>
  <g id="_2_dots" data-name="2_dots">
    <circle class="cls-2" cx="238.5403" cy="389.976" r="4.8638"/>
    <circle class="cls-2" cx="81.231" cy="232.6835" r="4.8638"/>
    <circle class="cls-2" cx="239.2375" cy="232.6835" r="4.8638"/>
    <circle class="cls-2" cx="396.9801" cy="232.6835" r="4.8638"/>
    <circle class="cls-2" cx="238.9615" cy="74.115" r="4.8638"/>
  </g>
  <g id="Layer_7" data-name="Layer 7">
    <use width="20" height="10" transform="translate(201.3362 251.1703) rotate(-180) scale(3.8725)" xlink:href="#Deleted_Symbol"/>
    <use width="20" height="9" transform="translate(219.9977 200.0757) rotate(-90) scale(3.2513 4.0563)" xlink:href="#Deleted_Symbol_2"/>
    <use width="20" height="10" transform="translate(274.1069 212.4881) scale(3.864)" xlink:href="#Deleted_Symbol_3"/>
    <use width="20" height="9" transform="translate(257.375 283.8225) rotate(90) scale(3.7684 4.2598)" xlink:href="#Deleted_Symbol_4"/>
  </g>
</svg>