<?xml version="1.0" encoding="UTF-8"?>
<svg id="Layer_7" data-name="Layer 7" xmlns="http://www.w3.org/2000/svg" xmlns:xlink="http://www.w3.org/1999/xlink" viewBox="0 0 325.0526 475.4085">
  <defs>
    <style>
      .cls-1 {
        fill: #d6c2ad;
      }

      .cls-1, .cls-2, .cls-3, .cls-4 {
        stroke-width: 0px;
      }

      .cls-2 {
        fill: #ffc74e;
      }

      .cls-3 {
        fill: #abc178;
      }

      .cls-4 {
        fill: #00bbd6;
      }
    </style>
    <symbol id="Deleted_Symbol" data-name="Deleted Symbol" viewBox="0 0 20 10">
      <path class="cls-4" d="m20,9c-4,0-8,0-12-3,0,1-1,3-1,4-1-2-3-5-7-5C3,3,6,1,10,0c-1,1-1,2-2,3,4,1,8,2,12-1v7h0Z"/>
    </symbol>
    <symbol id="Deleted_Symbol_2" data-name="Deleted Symbol 2" viewBox="0 0 20 9">
      <path class="cls-2" d="m20,9c-4,0-8,0-12-3,0,1-1,2-1,3C5,7,3,5,0,4,3,2,6,0,10,0l-2,2c3,3,8,3,12,0v7h0Z"/>
    </symbol>
    <symbol id="Deleted_Symbol_3" data-name="Deleted Symbol 3" viewBox="0 0 20 10">
      <path class="cls-3" d="m20,9c-4,0-8,0-12-3,0,1-1,3-1,4-1-2-3-5-7-5C3,3,6,1,10,0c-1,1-1,2-2,3,4,1,8,2,12-1v7h0Z"/>
    </symbol>
    <symbol id="Deleted_Symbol_4" data-name="Deleted Symbol 4" viewBox="0 0 20 9">
      <path class="cls-1" d="m20,9c-4,0-8,0-12-3,0,1-1,2-1,3C5,7,3,5,0,4,3,2,6,0,10,0l-2,2c3,3,8,3,12,0v7h0Z"/>
    </symbol>
  </defs>
  <use width="20" height="10" transform="translate(89.0099 257.0969) rotate(-180) scale(3.8725)" xlink:href="#Deleted_Symbol"/>
  <use width="20" height="9" transform="translate(107.3768 194.5735) rotate(-90) scale(3.2513 4.0563)" xlink:href="#Deleted_Symbol_2"/>
  <use width="20" height="10" transform="translate(140.8091 219.2598) scale(3.864)" xlink:href="#Deleted_Symbol_3"/>
  <use width="20" height="9" transform="translate(144.5755 286.3979) rotate(90) scale(3.7684 4.2598)" xlink:href="#Deleted_Symbol_4"/>
</svg>