<?xml version="1.0" encoding="UTF-8"?>
<svg xmlns="http://www.w3.org/2000/svg" viewBox="0 0 458.6654 426.87">
  <defs>
    <style>
      .cls-1 {
        fill: none;
      }

      .cls-1, .cls-2 {
        stroke: #231f20;
        stroke-miterlimit: 10;
      }

      .cls-2 {
        fill: #231f20;
      }

      .cls-3 {
        fill: #d1d3d4;
      }
    </style>
  </defs>
  <g id="_0_fig" data-name="0_fig">
    <path class="cls-3" d="m82.9252,275.487s44.6667-122,156-126.6667,142-52.8333,142-52.8333c0,0,76-119.1667,62.6667,70.1667s-176,189.3333-176,189.3333c0,0-38.8889-1.7778-102.4444,30.6667-134.6974,68.7616-82.2222-110.6667-82.2222-110.6667Z"/>
  </g>
  <g id="_2_dots_fine" data-name="2_dots_fine">
    <circle class="cls-2" cx="250.1546" cy="424.3506" r="1.5393"/>
    <circle class="cls-2" cx="300.4" cy="424.3506" r="1.5393"/>
    <circle class="cls-2" cx="350.4051" cy="424.3506" r="1.5393"/>
    <circle class="cls-2" cx="400.3267" cy="424.3506" r="1.5393"/>
    <circle class="cls-2" cx="450.389" cy="424.3506" r="1.5393"/>
    <circle class="cls-2" cx="250.1546" cy="374.7895" r="1.5393"/>
    <circle class="cls-2" cx="300.4" cy="374.1677" r="1.5393"/>
    <circle class="cls-2" cx="350.3178" cy="374.1677" r="1.5393"/>
    <circle class="cls-2" cx="400.3267" cy="374.1677" r="1.5393"/>
    <circle class="cls-2" cx="450.389" cy="374.1677" r="1.5393"/>
    <circle class="cls-2" cx="450.481" cy="324.3885" r="1.5393"/>
    <circle class="cls-2" cx="250.2879" cy="324.3885" r="1.5393"/>
    <circle class="cls-2" cx="300.5333" cy="324.3885" r="1.5393"/>
    <circle class="cls-2" cx="350.5384" cy="324.3885" r="1.5393"/>
    <circle class="cls-2" cx="400.46" cy="324.3885" r="1.5393"/>
    <circle class="cls-2" cx="450.5223" cy="324.3885" r="1.5393"/>
    <circle class="cls-2" cx="250.2879" cy="274.8274" r="1.5393"/>
    <circle class="cls-2" cx="300.5333" cy="274.2056" r="1.5393"/>
    <circle class="cls-2" cx="350.4511" cy="274.2056" r="1.5393"/>
    <circle class="cls-2" cx="400.46" cy="274.2056" r="1.5393"/>
    <circle class="cls-2" cx="450.5223" cy="274.2056" r="1.5393"/>
    <circle class="cls-2" cx="250.109" cy="225.014" r="1.5393"/>
    <circle class="cls-2" cx="300.3545" cy="224.3922" r="1.5393"/>
    <circle class="cls-2" cx="350.2722" cy="224.3922" r="1.5393"/>
    <circle class="cls-2" cx="400.2812" cy="224.3922" r="1.5393"/>
    <circle class="cls-2" cx="450.3435" cy="224.3922" r="1.5393"/>
    <circle class="cls-2" cx="2.262" cy="424.3677" r="1.5393"/>
    <circle class="cls-2" cx="52.5074" cy="424.3677" r="1.5393"/>
    <circle class="cls-2" cx="102.5125" cy="424.3677" r="1.5393"/>
    <circle class="cls-2" cx="152.4341" cy="424.3677" r="1.5393"/>
    <circle class="cls-2" cx="202.4964" cy="424.3677" r="1.5393"/>
    <circle class="cls-2" cx="2.262" cy="374.8066" r="1.5393"/>
    <circle class="cls-2" cx="52.5074" cy="374.1848" r="1.5393"/>
    <circle class="cls-2" cx="102.4252" cy="374.1848" r="1.5393"/>
    <circle class="cls-2" cx="152.4341" cy="374.1848" r="1.5393"/>
    <circle class="cls-2" cx="202.4964" cy="374.1848" r="1.5393"/>
    <circle class="cls-2" cx="202.5884" cy="324.4056" r="1.5393"/>
    <circle class="cls-2" cx="2.3953" cy="324.4056" r="1.5393"/>
    <circle class="cls-2" cx="52.6407" cy="324.4056" r="1.5393"/>
    <circle class="cls-2" cx="102.6458" cy="324.4056" r="1.5393"/>
    <circle class="cls-2" cx="152.5674" cy="324.4056" r="1.5393"/>
    <circle class="cls-2" cx="202.6298" cy="324.4056" r="1.5393"/>
    <circle class="cls-2" cx="2.3953" cy="274.8445" r="1.5393"/>
    <circle class="cls-2" cx="52.6407" cy="274.2227" r="1.5393"/>
    <circle class="cls-2" cx="102.5585" cy="274.2227" r="1.5393"/>
    <circle class="cls-2" cx="152.5674" cy="274.2227" r="1.5393"/>
    <circle class="cls-2" cx="202.6298" cy="274.2227" r="1.5393"/>
    <circle class="cls-2" cx="2.2165" cy="225.0311" r="1.5393"/>
    <circle class="cls-2" cx="52.4619" cy="224.4093" r="1.5393"/>
    <circle class="cls-2" cx="102.3797" cy="224.4093" r="1.5393"/>
    <circle class="cls-2" cx="152.3886" cy="224.4093" r="1.5393"/>
    <circle class="cls-2" cx="202.4509" cy="224.4093" r="1.5393"/>
    <circle class="cls-2" cx="2.2185" cy="176.7485" r="1.5393"/>
    <circle class="cls-2" cx="52.464" cy="176.7485" r="1.5393"/>
    <circle class="cls-2" cx="102.4691" cy="176.7485" r="1.5393"/>
    <circle class="cls-2" cx="152.3907" cy="176.7485" r="1.5393"/>
    <circle class="cls-2" cx="202.453" cy="176.7485" r="1.5393"/>
    <circle class="cls-2" cx="2.2185" cy="127.1873" r="1.5393"/>
    <circle class="cls-2" cx="52.464" cy="126.5655" r="1.5393"/>
    <circle class="cls-2" cx="102.3817" cy="126.5655" r="1.5393"/>
    <circle class="cls-2" cx="152.3907" cy="126.5655" r="1.5393"/>
    <circle class="cls-2" cx="202.453" cy="126.5655" r="1.5393"/>
    <circle class="cls-2" cx="202.5449" cy="76.7864" r="1.5393"/>
    <circle class="cls-2" cx="2.3519" cy="76.7864" r="1.5393"/>
    <circle class="cls-2" cx="52.5973" cy="76.7864" r="1.5393"/>
    <circle class="cls-2" cx="102.6024" cy="76.7864" r="1.5393"/>
    <circle class="cls-2" cx="152.524" cy="76.7864" r="1.5393"/>
    <circle class="cls-2" cx="202.5863" cy="76.7864" r="1.5393"/>
    <circle class="cls-2" cx="2.3519" cy="27.2252" r="1.5393"/>
    <circle class="cls-2" cx="52.5973" cy="26.6034" r="1.5393"/>
    <circle class="cls-2" cx="102.5151" cy="26.6034" r="1.5393"/>
    <circle class="cls-2" cx="152.524" cy="26.6034" r="1.5393"/>
    <circle class="cls-2" cx="202.5863" cy="26.6034" r="1.5393"/>
    <circle class="cls-2" cx="250.3773" cy="176.7656" r="1.5393"/>
    <circle class="cls-2" cx="300.6227" cy="176.7656" r="1.5393"/>
    <circle class="cls-2" cx="350.6278" cy="176.7656" r="1.5393"/>
    <circle class="cls-2" cx="400.5494" cy="176.7656" r="1.5393"/>
    <circle class="cls-2" cx="450.6117" cy="176.7656" r="1.5393"/>
    <circle class="cls-2" cx="250.3773" cy="127.2044" r="1.5393"/>
    <circle class="cls-2" cx="300.6227" cy="126.5826" r="1.5393"/>
    <circle class="cls-2" cx="350.5405" cy="126.5826" r="1.5393"/>
    <circle class="cls-2" cx="400.5494" cy="126.5826" r="1.5393"/>
    <circle class="cls-2" cx="450.6117" cy="126.5826" r="1.5393"/>
    <circle class="cls-2" cx="450.7037" cy="76.8035" r="1.5393"/>
    <circle class="cls-2" cx="250.5106" cy="76.8035" r="1.5393"/>
    <circle class="cls-2" cx="300.756" cy="76.8035" r="1.5393"/>
    <circle class="cls-2" cx="350.7611" cy="76.8035" r="1.5393"/>
    <circle class="cls-2" cx="400.6827" cy="76.8035" r="1.5393"/>
    <circle class="cls-2" cx="450.745" cy="76.8035" r="1.5393"/>
    <circle class="cls-2" cx="250.5106" cy="27.2423" r="1.5393"/>
    <circle class="cls-2" cx="300.756" cy="26.6205" r="1.5393"/>
    <circle class="cls-2" cx="350.6738" cy="26.6205" r="1.5393"/>
    <circle class="cls-2" cx="400.6827" cy="26.6205" r="1.5393"/>
    <circle class="cls-2" cx="450.745" cy="26.6205" r="1.5393"/>
    <circle class="cls-2" cx="275.3676" cy="424.8137" r="1.5393"/>
    <circle class="cls-2" cx="325.6131" cy="424.8137" r="1.5393"/>
    <circle class="cls-2" cx="375.6182" cy="424.8137" r="1.5393"/>
    <circle class="cls-2" cx="425.5398" cy="424.8137" r="1.5393"/>
    <circle class="cls-2" cx="275.3676" cy="375.2525" r="1.5393"/>
    <circle class="cls-2" cx="325.6131" cy="374.6307" r="1.5393"/>
    <circle class="cls-2" cx="375.5308" cy="374.6307" r="1.5393"/>
    <circle class="cls-2" cx="425.5398" cy="374.6307" r="1.5393"/>
    <circle class="cls-2" cx="275.5009" cy="324.8515" r="1.5393"/>
    <circle class="cls-2" cx="325.7464" cy="324.8515" r="1.5393"/>
    <circle class="cls-2" cx="375.7515" cy="324.8515" r="1.5393"/>
    <circle class="cls-2" cx="425.6731" cy="324.8515" r="1.5393"/>
    <circle class="cls-2" cx="275.5009" cy="275.2904" r="1.5393"/>
    <circle class="cls-2" cx="325.7464" cy="274.6686" r="1.5393"/>
    <circle class="cls-2" cx="375.6641" cy="274.6686" r="1.5393"/>
    <circle class="cls-2" cx="425.6731" cy="274.6686" r="1.5393"/>
    <circle class="cls-2" cx="275.3221" cy="225.477" r="1.5393"/>
    <circle class="cls-2" cx="325.5675" cy="224.8552" r="1.5393"/>
    <circle class="cls-2" cx="375.4853" cy="224.8552" r="1.5393"/>
    <circle class="cls-2" cx="425.4942" cy="224.8552" r="1.5393"/>
    <circle class="cls-2" cx="27.4751" cy="424.8308" r="1.5393"/>
    <circle class="cls-2" cx="77.7205" cy="424.8308" r="1.5393"/>
    <circle class="cls-2" cx="127.7256" cy="424.8308" r="1.5393"/>
    <circle class="cls-2" cx="177.6472" cy="424.8308" r="1.5393"/>
    <circle class="cls-2" cx="227.7095" cy="424.8308" r="1.5393"/>
    <circle class="cls-2" cx="27.4751" cy="375.2696" r="1.5393"/>
    <circle class="cls-2" cx="77.7205" cy="374.6478" r="1.5393"/>
    <circle class="cls-2" cx="127.6383" cy="374.6478" r="1.5393"/>
    <circle class="cls-2" cx="177.6472" cy="374.6478" r="1.5393"/>
    <circle class="cls-2" cx="227.7095" cy="374.6478" r="1.5393"/>
    <circle class="cls-2" cx="227.8015" cy="324.8686" r="1.5393"/>
    <circle class="cls-2" cx="27.6084" cy="324.8686" r="1.5393"/>
    <circle class="cls-2" cx="77.8538" cy="324.8686" r="1.5393"/>
    <circle class="cls-2" cx="127.8589" cy="324.8686" r="1.5393"/>
    <circle class="cls-2" cx="177.7805" cy="324.8686" r="1.5393"/>
    <circle class="cls-2" cx="227.8428" cy="324.8686" r="1.5393"/>
    <circle class="cls-2" cx="27.6084" cy="275.3075" r="1.5393"/>
    <circle class="cls-2" cx="77.8538" cy="274.6857" r="1.5393"/>
    <circle class="cls-2" cx="127.7716" cy="274.6857" r="1.5393"/>
    <circle class="cls-2" cx="177.7805" cy="274.6857" r="1.5393"/>
    <circle class="cls-2" cx="227.8428" cy="274.6857" r="1.5393"/>
    <circle class="cls-2" cx="27.4295" cy="225.4941" r="1.5393"/>
    <circle class="cls-2" cx="77.675" cy="224.8723" r="1.5393"/>
    <circle class="cls-2" cx="127.5927" cy="224.8723" r="1.5393"/>
    <circle class="cls-2" cx="177.6017" cy="224.8723" r="1.5393"/>
    <circle class="cls-2" cx="227.664" cy="224.8723" r="1.5393"/>
    <circle class="cls-2" cx="27.4316" cy="177.2115" r="1.5393"/>
    <circle class="cls-2" cx="77.677" cy="177.2115" r="1.5393"/>
    <circle class="cls-2" cx="127.6822" cy="177.2115" r="1.5393"/>
    <circle class="cls-2" cx="177.6038" cy="177.2115" r="1.5393"/>
    <circle class="cls-2" cx="227.6661" cy="177.2115" r="1.5393"/>
    <circle class="cls-2" cx="27.4316" cy="127.6503" r="1.5393"/>
    <circle class="cls-2" cx="77.677" cy="127.0285" r="1.5393"/>
    <circle class="cls-2" cx="127.5948" cy="127.0285" r="1.5393"/>
    <circle class="cls-2" cx="177.6038" cy="127.0285" r="1.5393"/>
    <circle class="cls-2" cx="227.6661" cy="127.0285" r="1.5393"/>
    <circle class="cls-2" cx="227.758" cy="77.2494" r="1.5393"/>
    <circle class="cls-2" cx="27.5649" cy="77.2494" r="1.5393"/>
    <circle class="cls-2" cx="77.8103" cy="77.2494" r="1.5393"/>
    <circle class="cls-2" cx="127.8155" cy="77.2494" r="1.5393"/>
    <circle class="cls-2" cx="177.7371" cy="77.2494" r="1.5393"/>
    <circle class="cls-2" cx="227.7994" cy="77.2494" r="1.5393"/>
    <circle class="cls-2" cx="27.5649" cy="27.6882" r="1.5393"/>
    <circle class="cls-2" cx="77.8103" cy="27.0664" r="1.5393"/>
    <circle class="cls-2" cx="127.7281" cy="27.0664" r="1.5393"/>
    <circle class="cls-2" cx="177.7371" cy="27.0664" r="1.5393"/>
    <circle class="cls-2" cx="227.7994" cy="27.0664" r="1.5393"/>
    <circle class="cls-2" cx="275.5904" cy="177.2286" r="1.5393"/>
    <circle class="cls-2" cx="325.8358" cy="177.2286" r="1.5393"/>
    <circle class="cls-2" cx="375.8409" cy="177.2286" r="1.5393"/>
    <circle class="cls-2" cx="425.7625" cy="177.2286" r="1.5393"/>
    <circle class="cls-2" cx="275.5904" cy="127.6674" r="1.5393"/>
    <circle class="cls-2" cx="325.8358" cy="127.0456" r="1.5393"/>
    <circle class="cls-2" cx="375.7536" cy="127.0456" r="1.5393"/>
    <circle class="cls-2" cx="425.7625" cy="127.0456" r="1.5393"/>
    <circle class="cls-2" cx="275.7237" cy="77.2665" r="1.5393"/>
    <circle class="cls-2" cx="325.9691" cy="77.2665" r="1.5393"/>
    <circle class="cls-2" cx="375.9742" cy="77.2665" r="1.5393"/>
    <circle class="cls-2" cx="425.8958" cy="77.2665" r="1.5393"/>
    <circle class="cls-2" cx="275.7237" cy="27.7053" r="1.5393"/>
    <circle class="cls-2" cx="325.9691" cy="27.0835" r="1.5393"/>
    <circle class="cls-2" cx="375.8869" cy="27.0835" r="1.5393"/>
    <circle class="cls-2" cx="425.8958" cy="27.0835" r="1.5393"/>
    <circle class="cls-2" cx="249.9774" cy="400.241" r="1.5393"/>
    <circle class="cls-2" cx="300.2228" cy="400.241" r="1.5393"/>
    <circle class="cls-2" cx="350.2279" cy="400.241" r="1.5393"/>
    <circle class="cls-2" cx="400.1495" cy="400.241" r="1.5393"/>
    <circle class="cls-2" cx="450.2118" cy="400.241" r="1.5393"/>
    <circle class="cls-2" cx="249.9774" cy="350.6798" r="1.5393"/>
    <circle class="cls-2" cx="300.2228" cy="350.058" r="1.5393"/>
    <circle class="cls-2" cx="350.1406" cy="350.058" r="1.5393"/>
    <circle class="cls-2" cx="400.1495" cy="350.058" r="1.5393"/>
    <circle class="cls-2" cx="450.2118" cy="350.058" r="1.5393"/>
    <circle class="cls-2" cx="450.3038" cy="300.2788" r="1.5393"/>
    <circle class="cls-2" cx="250.1107" cy="300.2788" r="1.5393"/>
    <circle class="cls-2" cx="300.3561" cy="300.2788" r="1.5393"/>
    <circle class="cls-2" cx="350.3612" cy="300.2788" r="1.5393"/>
    <circle class="cls-2" cx="400.2828" cy="300.2788" r="1.5393"/>
    <circle class="cls-2" cx="450.3451" cy="300.2788" r="1.5393"/>
    <circle class="cls-2" cx="250.1107" cy="250.7177" r="1.5393"/>
    <circle class="cls-2" cx="300.3561" cy="250.0959" r="1.5393"/>
    <circle class="cls-2" cx="350.2739" cy="250.0959" r="1.5393"/>
    <circle class="cls-2" cx="400.2828" cy="250.0959" r="1.5393"/>
    <circle class="cls-2" cx="450.3451" cy="250.0959" r="1.5393"/>
    <circle class="cls-2" cx="249.9318" cy="200.9043" r="1.5393"/>
    <circle class="cls-2" cx="300.1773" cy="200.2825" r="1.5393"/>
    <circle class="cls-2" cx="350.095" cy="200.2825" r="1.5393"/>
    <circle class="cls-2" cx="400.104" cy="200.2825" r="1.5393"/>
    <circle class="cls-2" cx="450.1663" cy="200.2825" r="1.5393"/>
    <circle class="cls-2" cx="2.0848" cy="400.258" r="1.5393"/>
    <circle class="cls-2" cx="52.3302" cy="400.258" r="1.5393"/>
    <circle class="cls-2" cx="102.3353" cy="400.258" r="1.5393"/>
    <circle class="cls-2" cx="152.2569" cy="400.258" r="1.5393"/>
    <circle class="cls-2" cx="202.3192" cy="400.258" r="1.5393"/>
    <circle class="cls-2" cx="2.0848" cy="350.6969" r="1.5393"/>
    <circle class="cls-2" cx="52.3302" cy="350.0751" r="1.5393"/>
    <circle class="cls-2" cx="102.248" cy="350.0751" r="1.5393"/>
    <circle class="cls-2" cx="152.2569" cy="350.0751" r="1.5393"/>
    <circle class="cls-2" cx="202.3192" cy="350.0751" r="1.5393"/>
    <circle class="cls-2" cx="202.4112" cy="300.2959" r="1.5393"/>
    <circle class="cls-2" cx="2.2181" cy="300.2959" r="1.5393"/>
    <circle class="cls-2" cx="52.4635" cy="300.2959" r="1.5393"/>
    <circle class="cls-2" cx="102.4686" cy="300.2959" r="1.5393"/>
    <circle class="cls-2" cx="152.3902" cy="300.2959" r="1.5393"/>
    <circle class="cls-2" cx="202.4526" cy="300.2959" r="1.5393"/>
    <circle class="cls-2" cx="2.2181" cy="250.7348" r="1.5393"/>
    <circle class="cls-2" cx="52.4635" cy="250.113" r="1.5393"/>
    <circle class="cls-2" cx="102.3813" cy="250.113" r="1.5393"/>
    <circle class="cls-2" cx="152.3902" cy="250.113" r="1.5393"/>
    <circle class="cls-2" cx="202.4526" cy="250.113" r="1.5393"/>
    <circle class="cls-2" cx="2.0393" cy="200.9214" r="1.5393"/>
    <circle class="cls-2" cx="52.2847" cy="200.2996" r="1.5393"/>
    <circle class="cls-2" cx="102.2025" cy="200.2996" r="1.5393"/>
    <circle class="cls-2" cx="152.2114" cy="200.2996" r="1.5393"/>
    <circle class="cls-2" cx="202.2737" cy="200.2996" r="1.5393"/>
    <circle class="cls-2" cx="2.0413" cy="152.6388" r="1.5393"/>
    <circle class="cls-2" cx="52.2868" cy="152.6388" r="1.5393"/>
    <circle class="cls-2" cx="102.2919" cy="152.6388" r="1.5393"/>
    <circle class="cls-2" cx="152.2135" cy="152.6388" r="1.5393"/>
    <circle class="cls-2" cx="202.2758" cy="152.6388" r="1.5393"/>
    <circle class="cls-2" cx="2.0413" cy="103.0776" r="1.5393"/>
    <circle class="cls-2" cx="52.2868" cy="102.4558" r="1.5393"/>
    <circle class="cls-2" cx="102.2045" cy="102.4558" r="1.5393"/>
    <circle class="cls-2" cx="152.2135" cy="102.4558" r="1.5393"/>
    <circle class="cls-2" cx="202.2758" cy="102.4558" r="1.5393"/>
    <circle class="cls-2" cx="202.3677" cy="52.6767" r="1.5393"/>
    <circle class="cls-2" cx="2.1747" cy="52.6767" r="1.5393"/>
    <circle class="cls-2" cx="52.4201" cy="52.6767" r="1.5393"/>
    <circle class="cls-2" cx="102.4252" cy="52.6767" r="1.5393"/>
    <circle class="cls-2" cx="152.3468" cy="52.6767" r="1.5393"/>
    <circle class="cls-2" cx="202.4091" cy="52.6767" r="1.5393"/>
    <circle class="cls-2" cx="2.1747" cy="3.1155" r="1.5393"/>
    <circle class="cls-2" cx="52.4201" cy="2.4937" r="1.5393"/>
    <circle class="cls-2" cx="102.3379" cy="2.4937" r="1.5393"/>
    <circle class="cls-2" cx="152.3468" cy="2.4937" r="1.5393"/>
    <circle class="cls-2" cx="202.4091" cy="2.4937" r="1.5393"/>
    <circle class="cls-2" cx="250.2001" cy="152.6559" r="1.5393"/>
    <circle class="cls-2" cx="300.4455" cy="152.6559" r="1.5393"/>
    <circle class="cls-2" cx="350.4506" cy="152.6559" r="1.5393"/>
    <circle class="cls-2" cx="400.3722" cy="152.6559" r="1.5393"/>
    <circle class="cls-2" cx="450.4345" cy="152.6559" r="1.5393"/>
    <circle class="cls-2" cx="250.2001" cy="103.0947" r="1.5393"/>
    <circle class="cls-2" cx="300.4455" cy="102.4729" r="1.5393"/>
    <circle class="cls-2" cx="350.3633" cy="102.4729" r="1.5393"/>
    <circle class="cls-2" cx="400.3722" cy="102.4729" r="1.5393"/>
    <circle class="cls-2" cx="450.4345" cy="102.4729" r="1.5393"/>
    <circle class="cls-2" cx="450.5265" cy="52.6938" r="1.5393"/>
    <circle class="cls-2" cx="250.3334" cy="52.6938" r="1.5393"/>
    <circle class="cls-2" cx="300.5788" cy="52.6938" r="1.5393"/>
    <circle class="cls-2" cx="350.5839" cy="52.6938" r="1.5393"/>
    <circle class="cls-2" cx="400.5055" cy="52.6938" r="1.5393"/>
    <circle class="cls-2" cx="450.5678" cy="52.6938" r="1.5393"/>
    <circle class="cls-2" cx="250.3334" cy="3.1326" r="1.5393"/>
    <circle class="cls-2" cx="300.5788" cy="2.5108" r="1.5393"/>
    <circle class="cls-2" cx="350.4966" cy="2.5108" r="1.5393"/>
    <circle class="cls-2" cx="400.5055" cy="2.5108" r="1.5393"/>
    <circle class="cls-2" cx="450.5678" cy="2.5108" r="1.5393"/>
    <circle class="cls-2" cx="275.3676" cy="399.7865" r="1.5393"/>
    <circle class="cls-2" cx="325.6131" cy="399.7865" r="1.5393"/>
    <circle class="cls-2" cx="375.6182" cy="399.7865" r="1.5393"/>
    <circle class="cls-2" cx="425.5398" cy="399.7865" r="1.5393"/>
    <circle class="cls-2" cx="275.3676" cy="350.2253" r="1.5393"/>
    <circle class="cls-2" cx="325.6131" cy="349.6035" r="1.5393"/>
    <circle class="cls-2" cx="375.5308" cy="349.6035" r="1.5393"/>
    <circle class="cls-2" cx="425.5398" cy="349.6035" r="1.5393"/>
    <circle class="cls-2" cx="275.5009" cy="299.8244" r="1.5393"/>
    <circle class="cls-2" cx="325.7464" cy="299.8244" r="1.5393"/>
    <circle class="cls-2" cx="375.7515" cy="299.8244" r="1.5393"/>
    <circle class="cls-2" cx="425.6731" cy="299.8244" r="1.5393"/>
    <circle class="cls-2" cx="275.5009" cy="250.2632" r="1.5393"/>
    <circle class="cls-2" cx="325.7464" cy="249.6414" r="1.5393"/>
    <circle class="cls-2" cx="375.6641" cy="249.6414" r="1.5393"/>
    <circle class="cls-2" cx="425.6731" cy="249.6414" r="1.5393"/>
    <circle class="cls-2" cx="275.3221" cy="200.4499" r="1.5393"/>
    <circle class="cls-2" cx="325.5675" cy="199.8281" r="1.5393"/>
    <circle class="cls-2" cx="375.4853" cy="199.8281" r="1.5393"/>
    <circle class="cls-2" cx="425.4942" cy="199.8281" r="1.5393"/>
    <circle class="cls-2" cx="27.4751" cy="399.8036" r="1.5393"/>
    <circle class="cls-2" cx="77.7205" cy="399.8036" r="1.5393"/>
    <circle class="cls-2" cx="127.7256" cy="399.8036" r="1.5393"/>
    <circle class="cls-2" cx="177.6472" cy="399.8036" r="1.5393"/>
    <circle class="cls-2" cx="227.7095" cy="399.8036" r="1.5393"/>
    <circle class="cls-2" cx="27.4751" cy="350.2424" r="1.5393"/>
    <circle class="cls-2" cx="77.7205" cy="349.6206" r="1.5393"/>
    <circle class="cls-2" cx="127.6383" cy="349.6206" r="1.5393"/>
    <circle class="cls-2" cx="177.6472" cy="349.6206" r="1.5393"/>
    <circle class="cls-2" cx="227.7095" cy="349.6206" r="1.5393"/>
    <circle class="cls-2" cx="227.8015" cy="299.8415" r="1.5393"/>
    <circle class="cls-2" cx="27.6084" cy="299.8415" r="1.5393"/>
    <circle class="cls-2" cx="77.8538" cy="299.8415" r="1.5393"/>
    <circle class="cls-2" cx="127.8589" cy="299.8415" r="1.5393"/>
    <circle class="cls-2" cx="177.7805" cy="299.8415" r="1.5393"/>
    <circle class="cls-2" cx="227.8428" cy="299.8415" r="1.5393"/>
    <circle class="cls-2" cx="27.6084" cy="250.2803" r="1.5393"/>
    <circle class="cls-2" cx="77.8538" cy="249.6585" r="1.5393"/>
    <circle class="cls-2" cx="127.7716" cy="249.6585" r="1.5393"/>
    <circle class="cls-2" cx="177.7805" cy="249.6585" r="1.5393"/>
    <circle class="cls-2" cx="227.8428" cy="249.6585" r="1.5393"/>
    <circle class="cls-2" cx="27.4295" cy="200.467" r="1.5393"/>
    <circle class="cls-2" cx="77.675" cy="199.8452" r="1.5393"/>
    <circle class="cls-2" cx="127.5927" cy="199.8452" r="1.5393"/>
    <circle class="cls-2" cx="177.6017" cy="199.8452" r="1.5393"/>
    <circle class="cls-2" cx="227.664" cy="199.8452" r="1.5393"/>
    <circle class="cls-2" cx="27.4316" cy="152.1843" r="1.5393"/>
    <circle class="cls-2" cx="77.677" cy="152.1843" r="1.5393"/>
    <circle class="cls-2" cx="127.6822" cy="152.1843" r="1.5393"/>
    <circle class="cls-2" cx="177.6038" cy="152.1843" r="1.5393"/>
    <circle class="cls-2" cx="227.6661" cy="152.1843" r="1.5393"/>
    <circle class="cls-2" cx="27.4316" cy="102.6232" r="1.5393"/>
    <circle class="cls-2" cx="77.677" cy="102.0014" r="1.5393"/>
    <circle class="cls-2" cx="127.5948" cy="102.0014" r="1.5393"/>
    <circle class="cls-2" cx="177.6038" cy="102.0014" r="1.5393"/>
    <circle class="cls-2" cx="227.6661" cy="102.0014" r="1.5393"/>
    <circle class="cls-2" cx="227.758" cy="52.2222" r="1.5393"/>
    <circle class="cls-2" cx="27.5649" cy="52.2222" r="1.5393"/>
    <circle class="cls-2" cx="77.8103" cy="52.2222" r="1.5393"/>
    <circle class="cls-2" cx="127.8155" cy="52.2222" r="1.5393"/>
    <circle class="cls-2" cx="177.7371" cy="52.2222" r="1.5393"/>
    <circle class="cls-2" cx="227.7994" cy="52.2222" r="1.5393"/>
    <circle class="cls-2" cx="27.5649" cy="2.6611" r="1.5393"/>
    <circle class="cls-2" cx="77.8103" cy="2.0393" r="1.5393"/>
    <circle class="cls-2" cx="127.7281" cy="2.0393" r="1.5393"/>
    <circle class="cls-2" cx="177.7371" cy="2.0393" r="1.5393"/>
    <circle class="cls-2" cx="227.7994" cy="2.0393" r="1.5393"/>
    <circle class="cls-2" cx="275.5904" cy="152.2014" r="1.5393"/>
    <circle class="cls-2" cx="325.8358" cy="152.2014" r="1.5393"/>
    <circle class="cls-2" cx="375.8409" cy="152.2014" r="1.5393"/>
    <circle class="cls-2" cx="425.7625" cy="152.2014" r="1.5393"/>
    <circle class="cls-2" cx="275.5904" cy="102.6403" r="1.5393"/>
    <circle class="cls-2" cx="325.8358" cy="102.0185" r="1.5393"/>
    <circle class="cls-2" cx="375.7536" cy="102.0185" r="1.5393"/>
    <circle class="cls-2" cx="425.7625" cy="102.0185" r="1.5393"/>
    <circle class="cls-2" cx="275.7237" cy="52.2393" r="1.5393"/>
    <circle class="cls-2" cx="325.9691" cy="52.2393" r="1.5393"/>
    <circle class="cls-2" cx="375.9742" cy="52.2393" r="1.5393"/>
    <circle class="cls-2" cx="425.8958" cy="52.2393" r="1.5393"/>
    <circle class="cls-2" cx="275.7237" cy="2.6782" r="1.5393"/>
    <circle class="cls-2" cx="325.9691" cy="2.0564" r="1.5393"/>
    <circle class="cls-2" cx="375.8869" cy="2.0564" r="1.5393"/>
    <circle class="cls-2" cx="425.8958" cy="2.0564" r="1.5393"/>
    <polyline class="cls-1" points="102.3813 249.6585 77.7205 249.6585 77.7205 401.7973 152.4341 401.7973 152.4341 374.6478 177.6472 374.6478 227.7095 374.6478 227.7095 350.058 352.0777 350.058 352.0777 324.8515 375.7515 324.8515 375.7515 300.2788 400.46 300.2788 400.46 274.6686 425.4942 274.6686 425.4942 198.7433 450.745 198.7433 450.745 77.2665 425.8958 77.2665 425.8958 52.6938 400.6827 52.6938 400.6827 77.2665 375.7536 77.2665 375.7536 102.4729 350.5405 102.4729 350.5405 126.5826 325.8358 126.5826 300.4455 126.5826 300.4455 152.1843 177.6038 152.1843 177.6038 176.7485 152.2114 176.7485 152.2114 199.8452 127.5927 199.8452 127.5927 224.8723 102.3797 224.4093 102.3813 250.113"/>
  </g>
</svg>